Exo-Light.ufo
<glyph name=".notdef" format="1">
  <advance width="770"/>
  <unicode hex="0000"/>
  <outline>
    <contour>
      <point x="106" y="0" type="line"/>
      <point x="106" y="531" type="line"/>
      <point x="664" y="531" type="line"/>
      <point x="664" y="0" type="line"/>
    </contour>
    <contour>
      <point x="641" y="518" type="line"/>
      <point x="130" y="518" type="line"/>
      <point x="387" y="276" type="line"/>
    </contour>
    <contour>
      <point x="120" y="22" type="line"/>
      <point x="376" y="266" type="line"/>
      <point x="120" y="507" type="line"/>
    </contour>
    <contour>
      <point x="133" y="13" type="line"/>
      <point x="640" y="13" type="line"/>
      <point x="387" y="256" type="line"/>
    </contour>
    <contour>
      <point x="650" y="506" type="line"/>
      <point x="398" y="266" type="line"/>
      <point x="650" y="25" type="line"/>
    </contour>
  </outline>
</glyph>
<glyph name="numbersign" format="1">
  <advance width="673"/>
  <unicode hex="0023"/>
  <note>
    GF Latin Plus glyph
  </note>
  <outline>
    <contour>
      <point x="238" y="273" type="line"/>
      <point x="267" y="455" type="line"/>
      <point x="434" y="455" type="line"/>
      <point x="405" y="273" type="line"/>
    </contour>
    <contour>
      <point x="25" y="237" type="line"/>
      <point x="195" y="237" type="line"/>
      <point x="156" y="0" type="line"/>
      <point x="192" y="0" type="line"/>
      <point x="231" y="237" type="line"/>
      <point x="397" y="237" type="line"/>
      <point x="359" y="0" type="line"/>
      <point x="395" y="0" type="line"/>
      <point x="433" y="237" type="line"/>
      <point x="612" y="237" type="line"/>
      <point x="617" y="273" type="line"/>
      <point x="441" y="273" type="line"/>
      <point x="470" y="455" type="line"/>
      <point x="646" y="455" type="line"/>
      <point x="652" y="491" type="line"/>
      <point x="476" y="491" type="line"/>
      <point x="515" y="732" type="line"/>
      <point x="479" y="732" type="line"/>
      <point x="440" y="491" type="line"/>
      <point x="274" y="491" type="line"/>
      <point x="314" y="732" type="line"/>
      <point x="278" y="732" type="line"/>
      <point x="238" y="491" type="line"/>
      <point x="64" y="491" type="line"/>
      <point x="58" y="455" type="line"/>
      <point x="231" y="455" type="line"/>
      <point x="202" y="273" type="line"/>
      <point x="30" y="273" type="line"/>
    </contour>
  </outline>
</glyph>
<glyph name="percent" format="1">
  <advance width="957"/>
  <unicode hex="0025"/>
  <note>
    GF Latin Plus glyph
  </note>
  <outline>
    <contour>
      <point x="584" y="136" type="curve" smooth="yes"/>
      <point x="584" y="253" type="line" smooth="yes"/>
      <point x="584" y="331"/>
      <point x="615" y="348"/>
      <point x="682" y="348" type="curve" smooth="yes"/>
      <point x="773" y="348" type="line" smooth="yes"/>
      <point x="847" y="348"/>
      <point x="870" y="322"/>
      <point x="870" y="253" type="curve" smooth="yes"/>
      <point x="870" y="136" type="line" smooth="yes"/>
      <point x="870" y="60"/>
      <point x="840" y="41"/>
      <point x="771" y="41" type="curve" smooth="yes"/>
      <point x="680" y="41" type="line" smooth="yes"/>
      <point x="611" y="41"/>
      <point x="584" y="63"/>
    </contour>
    <contour>
      <point x="546" y="130" type="line" smooth="yes"/>
      <point x="546" y="45"/>
      <point x="577" y="3"/>
      <point x="675" y="3" type="curve" smooth="yes"/>
      <point x="776" y="3" type="line" smooth="yes"/>
      <point x="877" y="3"/>
      <point x="907" y="45"/>
      <point x="907" y="130" type="curve" smooth="yes"/>
      <point x="907" y="259" type="line" smooth="yes"/>
      <point x="907" y="344"/>
      <point x="876" y="386"/>
      <point x="778" y="386" type="curve" smooth="yes"/>
      <point x="677" y="386" type="line" smooth="yes"/>
      <point x="576" y="386"/>
      <point x="546" y="344"/>
      <point x="546" y="259" type="curve" smooth="yes"/>
    </contour>
    <contour>
      <point x="232" y="0" type="line"/>
      <point x="275" y="0" type="line"/>
      <point x="715" y="732" type="line"/>
      <point x="673" y="732" type="line"/>
    </contour>
    <contour>
      <point x="88" y="482" type="curve" smooth="yes"/>
      <point x="88" y="599" type="line" smooth="yes"/>
      <point x="88" y="677"/>
      <point x="119" y="694"/>
      <point x="186" y="694" type="curve" smooth="yes"/>
      <point x="277" y="694" type="line" smooth="yes"/>
      <point x="351" y="694"/>
      <point x="374" y="668"/>
      <point x="374" y="599" type="curve" smooth="yes"/>
      <point x="374" y="482" type="line" smooth="yes"/>
      <point x="374" y="406"/>
      <point x="344" y="387"/>
      <point x="275" y="387" type="curve" smooth="yes"/>
      <point x="184" y="387" type="line" smooth="yes"/>
      <point x="115" y="387"/>
      <point x="88" y="409"/>
    </contour>
    <contour>
      <point x="50" y="476" type="line" smooth="yes"/>
      <point x="50" y="391"/>
      <point x="81" y="349"/>
      <point x="179" y="349" type="curve" smooth="yes"/>
      <point x="280" y="349" type="line" smooth="yes"/>
      <point x="381" y="349"/>
      <point x="411" y="391"/>
      <point x="411" y="476" type="curve" smooth="yes"/>
      <point x="411" y="605" type="line" smooth="yes"/>
      <point x="411" y="690"/>
      <point x="380" y="732"/>
      <point x="282" y="732" type="curve" smooth="yes"/>
      <point x="181" y="732" type="line" smooth="yes"/>
      <point x="80" y="732"/>
      <point x="50" y="690"/>
      <point x="50" y="605" type="curve" smooth="yes"/>
    </contour>
  </outline>
</glyph>
<glyph name="ampersand" format="1">
  <advance width="665"/>
  <unicode hex="0026"/>
  <note>
    GF Latin Plus glyph
  </note>
  <outline>
    <contour>
      <point x="241" y="49" type="curve" smooth="yes"/>
      <point x="151" y="49"/>
      <point x="95" y="105"/>
      <point x="95" y="192" type="curve" smooth="yes"/>
      <point x="95" y="243"/>
      <point x="115" y="294"/>
      <point x="175" y="344" type="curve" smooth="yes"/>
      <point x="232" y="392" type="line"/>
      <point x="414" y="147" type="line"/>
      <point x="373" y="108" type="line" smooth="yes"/>
      <point x="318" y="57"/>
      <point x="286" y="49"/>
    </contour>
    <contour>
      <point x="233" y="-6" type="curve" smooth="yes"/>
      <point x="297" y="-6"/>
      <point x="342" y="9"/>
      <point x="406" y="68" type="curve" smooth="yes"/>
      <point x="448" y="106" type="line"/>
      <point x="527" y="0" type="line"/>
      <point x="596" y="0" type="line"/>
      <point x="490" y="141" type="line"/>
      <point x="559" y="209" type="line"/>
      <point x="629" y="299" type="line"/>
      <point x="607" y="324" type="line"/>
      <point x="458" y="182" type="line"/>
      <point x="233" y="489" type="line" smooth="yes"/>
      <point x="202" y="533"/>
      <point x="182" y="564"/>
      <point x="182" y="600" type="curve" smooth="yes"/>
      <point x="182" y="652"/>
      <point x="239" y="681"/>
      <point x="309" y="681" type="curve" smooth="yes"/>
      <point x="459" y="681" type="line"/>
      <point x="459" y="723" type="line"/>
      <point x="416" y="728"/>
      <point x="375" y="733"/>
      <point x="300" y="733" type="curve" smooth="yes"/>
      <point x="200" y="733"/>
      <point x="118" y="698"/>
      <point x="118" y="607" type="curve" smooth="yes"/>
      <point x="118" y="568"/>
      <point x="137" y="525"/>
      <point x="174" y="474" type="curve" smooth="yes"/>
      <point x="204" y="434" type="line"/>
      <point x="136" y="376" type="line" smooth="yes"/>
      <point x="68" y="319"/>
      <point x="40" y="255"/>
      <point x="40" y="186" type="curve" smooth="yes"/>
      <point x="40" y="69"/>
      <point x="122" y="-6"/>
    </contour>
  </outline>
</glyph>
<glyph name="parenleft" format="1">
  <advance width="335"/>
  <unicode hex="0028"/>
  <note>
    GF Latin Plus glyph
  </note>
  <outline>
    <contour>
      <point x="89" y="326" type="curve" smooth="yes"/>
      <point x="89" y="18"/>
      <point x="235" y="-189"/>
      <point x="254" y="-210" type="curve"/>
      <point x="311" y="-210" type="line"/>
      <point x="290" y="-177"/>
      <point x="147" y="41"/>
      <point x="147" y="326" type="curve" smooth="yes"/>
      <point x="147" y="590"/>
      <point x="294" y="834"/>
      <point x="310" y="860" type="curve"/>
      <point x="254" y="860" type="line"/>
      <point x="236" y="839"/>
      <point x="89" y="597"/>
    </contour>
  </outline>
</glyph>
<glyph name="parenright" format="1">
  <advance width="336"/>
  <unicode hex="0029"/>
  <note>
    GF Latin Plus glyph
  </note>
  <outline>
    <contour>
      <point x="24" y="-210" type="curve"/>
      <point x="82" y="-210" type="line"/>
      <point x="102" y="-187"/>
      <point x="248" y="22"/>
      <point x="248" y="326" type="curve" smooth="yes"/>
      <point x="248" y="600"/>
      <point x="103" y="837"/>
      <point x="82" y="860" type="curve"/>
      <point x="24" y="860" type="line"/>
      <point x="46" y="824"/>
      <point x="186" y="588"/>
      <point x="186" y="326" type="curve" smooth="yes"/>
      <point x="186" y="41"/>
      <point x="41" y="-181"/>
    </contour>
  </outline>
</glyph>
<glyph name="asterisk" format="1">
  <advance width="458"/>
  <unicode hex="002A"/>
  <note>
    GF Latin Plus glyph
  </note>
  <outline>
    <contour>
      <point x="59" y="586" type="line"/>
      <point x="202" y="581" type="line"/>
      <point x="201" y="620" type="line"/>
      <point x="59" y="613" type="line"/>
    </contour>
    <contour>
      <point x="195" y="723" type="line"/>
      <point x="248" y="591" type="line"/>
      <point x="286" y="607" type="line"/>
      <point x="220" y="731" type="line"/>
    </contour>
    <contour>
      <point x="271" y="556" type="line"/>
      <point x="298" y="525" type="line"/>
      <point x="400" y="617" type="line"/>
      <point x="385" y="639" type="line"/>
    </contour>
    <contour>
      <point x="225" y="487" type="line"/>
      <point x="347" y="417" type="line"/>
      <point x="363" y="438" type="line"/>
      <point x="246" y="522" type="line"/>
    </contour>
    <contour>
      <point x="132" y="411" type="line"/>
      <point x="157" y="403" type="line"/>
      <point x="204" y="537" type="line"/>
      <point x="164" y="546" type="line"/>
    </contour>
  </outline>
</glyph>
<glyph name="comma" format="1">
  <advance width="191"/>
  <unicode hex="002C"/>
  <note>
    GF Latin Plus glyph
  </note>
  <outline>
    <contour>
      <point x="64" y="19" type="line" smooth="yes"/>
      <point x="64" y="9"/>
      <point x="71" y="3"/>
      <point x="79" y="3" type="curve" smooth="yes"/>
      <point x="86" y="3" type="line"/>
      <point x="86" y="-38" type="line" smooth="yes"/>
      <point x="86" y="-50"/>
      <point x="81" y="-54"/>
      <point x="67" y="-54" type="curve"/>
      <point x="67" y="-72" type="line"/>
      <point x="67" y="-72"/>
      <point x="76" y="-75"/>
      <point x="86" y="-75" type="curve" smooth="yes"/>
      <point x="103" y="-75"/>
      <point x="126" y="-69"/>
      <point x="126" y="-31" type="curve" smooth="yes"/>
      <point x="126" y="87" type="line" smooth="yes"/>
      <point x="126" y="96"/>
      <point x="122" y="103"/>
      <point x="111" y="103" type="curve" smooth="yes"/>
      <point x="79" y="103" type="line" smooth="yes"/>
      <point x="70" y="103"/>
      <point x="64" y="98"/>
      <point x="64" y="87" type="curve" smooth="yes"/>
    </contour>
  </outline>
</glyph>
<glyph name="period" format="1">
  <advance width="191"/>
  <unicode hex="002E"/>
  <note>
    GF Latin Plus glyph
  </note>
  <outline>
    <contour>
      <point x="64" y="14" type="line" smooth="yes"/>
      <point x="64" y="5"/>
      <point x="71" y="0"/>
      <point x="79" y="0" type="curve" smooth="yes"/>
      <point x="112" y="0" type="line" smooth="yes"/>
      <point x="121" y="0"/>
      <point x="127" y="4"/>
      <point x="127" y="14" type="curve" smooth="yes"/>
      <point x="127" y="88" type="line" smooth="yes"/>
      <point x="127" y="97"/>
      <point x="123" y="103"/>
      <point x="112" y="103" type="curve" smooth="yes"/>
      <point x="79" y="103" type="line" smooth="yes"/>
      <point x="69" y="103"/>
      <point x="64" y="98"/>
      <point x="64" y="88" type="curve" smooth="yes"/>
    </contour>
  </outline>
</glyph>
<glyph name="zero" format="1">
  <advance width="658"/>
  <unicode hex="0030"/>
  <note>
    GF Latin Plus glyph
  </note>
  <outline>
    <contour>
      <point x="141" y="175" type="curve" smooth="yes"/>
      <point x="141" y="564" type="line" smooth="yes"/>
      <point x="141" y="643"/>
      <point x="191" y="688"/>
      <point x="270" y="688" type="curve" smooth="yes"/>
      <point x="392" y="688" type="line" smooth="yes"/>
      <point x="474" y="688"/>
      <point x="517" y="646"/>
      <point x="517" y="564" type="curve" smooth="yes"/>
      <point x="517" y="175" type="line" smooth="yes"/>
      <point x="517" y="98"/>
      <point x="481" y="51"/>
      <point x="390" y="51" type="curve" smooth="yes"/>
      <point x="271" y="51" type="line" smooth="yes"/>
      <point x="191" y="51"/>
      <point x="141" y="93"/>
    </contour>
    <contour>
      <point x="83" y="169" type="line" smooth="yes"/>
      <point x="83" y="47"/>
      <point x="161" y="-1"/>
      <point x="261" y="-1" type="curve" smooth="yes"/>
      <point x="401" y="-1" type="line" smooth="yes"/>
      <point x="505" y="-1"/>
      <point x="575" y="49"/>
      <point x="575" y="169" type="curve" smooth="yes"/>
      <point x="575" y="568" type="line" smooth="yes"/>
      <point x="575" y="668"/>
      <point x="524" y="740"/>
      <point x="401" y="740" type="curve" smooth="yes"/>
      <point x="262" y="740" type="line" smooth="yes"/>
      <point x="159" y="740"/>
      <point x="83" y="682"/>
      <point x="83" y="568" type="curve" smooth="yes"/>
    </contour>
  </outline>
</glyph>
<glyph name="one" format="1">
  <advance width="359"/>
  <unicode hex="0031"/>
  <note>
    GF Latin Plus glyph
  </note>
  <outline>
    <contour>
      <point x="48" y="635" type="line"/>
      <point x="206" y="683" type="line"/>
      <point x="206" y="0" type="line"/>
      <point x="264" y="0" type="line"/>
      <point x="264" y="742" type="line"/>
      <point x="210" y="742" type="line"/>
      <point x="48" y="672" type="line"/>
    </contour>
  </outline>
</glyph>
<glyph name="three" format="1">
  <advance width="587"/>
  <unicode hex="0033"/>
  <note>
    GF Latin Plus glyph
  </note>
  <outline>
    <contour>
      <point x="72" y="683" type="line"/>
      <point x="282" y="683" type="line" smooth="yes"/>
      <point x="385" y="683"/>
      <point x="437" y="638"/>
      <point x="437" y="560" type="curve" smooth="yes"/>
      <point x="437" y="504" type="line" smooth="yes"/>
      <point x="437" y="431"/>
      <point x="384" y="403"/>
      <point x="309" y="400" type="curve" smooth="yes"/>
      <point x="121" y="393" type="line"/>
      <point x="121" y="349" type="line"/>
      <point x="311" y="342" type="line" smooth="yes"/>
      <point x="374" y="340"/>
      <point x="447" y="313"/>
      <point x="447" y="227" type="curve" smooth="yes"/>
      <point x="447" y="174" type="line" smooth="yes"/>
      <point x="447" y="74"/>
      <point x="376" y="51"/>
      <point x="290" y="51" type="curve" smooth="yes"/>
      <point x="45" y="51" type="line"/>
      <point x="45" y="5" type="line"/>
      <point x="110" y="-2"/>
      <point x="202" y="-6"/>
      <point x="308" y="-6" type="curve" smooth="yes"/>
      <point x="435" y="-6"/>
      <point x="510" y="54"/>
      <point x="510" y="165" type="curve" smooth="yes"/>
      <point x="510" y="221" type="line" smooth="yes"/>
      <point x="510" y="320"/>
      <point x="429" y="362"/>
      <point x="388" y="371" type="curve"/>
      <point x="424" y="377"/>
      <point x="497" y="409"/>
      <point x="497" y="505" type="curve" smooth="yes"/>
      <point x="497" y="570" type="line" smooth="yes"/>
      <point x="497" y="670"/>
      <point x="436" y="740"/>
      <point x="304" y="740" type="curve" smooth="yes"/>
      <point x="205" y="741"/>
      <point x="128" y="736"/>
      <point x="72" y="730" type="curve"/>
    </contour>
  </outline>
</glyph>
<glyph name="five" format="1">
  <advance width="637"/>
  <unicode hex="0035"/>
  <note>
    GF Latin Plus glyph
  </note>
  <outline>
    <contour>
      <point x="90" y="5" type="line"/>
      <point x="158" y="-2"/>
      <point x="251" y="-4"/>
      <point x="344" y="-4" type="curve" smooth="yes"/>
      <point x="474" y="-4"/>
      <point x="568" y="54"/>
      <point x="568" y="170" type="curve" smooth="yes"/>
      <point x="568" y="279" type="line" smooth="yes"/>
      <point x="568" y="374"/>
      <point x="503" y="442"/>
      <point x="388" y="442" type="curve" smooth="yes"/>
      <point x="299" y="442" type="line" smooth="yes"/>
      <point x="231" y="442"/>
      <point x="189" y="413"/>
      <point x="174" y="384" type="curve"/>
      <point x="188" y="679" type="line"/>
      <point x="545" y="679" type="line"/>
      <point x="545" y="734" type="line"/>
      <point x="135" y="734" type="line"/>
      <point x="114" y="298" type="line"/>
      <point x="171" y="298" type="line"/>
      <point x="183" y="361"/>
      <point x="222" y="389"/>
      <point x="288" y="389" type="curve" smooth="yes"/>
      <point x="372" y="389" type="line" smooth="yes"/>
      <point x="462" y="389"/>
      <point x="507" y="344"/>
      <point x="507" y="270" type="curve" smooth="yes"/>
      <point x="507" y="181" type="line" smooth="yes"/>
      <point x="507" y="98"/>
      <point x="438" y="51"/>
      <point x="345" y="51" type="curve" smooth="yes"/>
      <point x="90" y="51" type="line"/>
    </contour>
  </outline>
</glyph>
<glyph name="six" format="1">
  <advance width="627"/>
  <unicode hex="0036"/>
  <note>
    GF Latin Plus glyph
  </note>
  <outline>
    <contour>
      <point x="138" y="354" type="curve"/>
      <point x="339" y="354" type="line" smooth="yes"/>
      <point x="437" y="354"/>
      <point x="498" y="338"/>
      <point x="498" y="249" type="curve" smooth="yes"/>
      <point x="498" y="162" type="line" smooth="yes"/>
      <point x="498" y="74"/>
      <point x="444" y="53"/>
      <point x="380" y="53" type="curve" smooth="yes"/>
      <point x="284" y="53" type="line" smooth="yes"/>
      <point x="192" y="53"/>
      <point x="138" y="114"/>
    </contour>
    <contour>
      <point x="77" y="370" type="curve" smooth="yes"/>
      <point x="77" y="71"/>
      <point x="155" y="-2"/>
      <point x="275" y="-2" type="curve" smooth="yes"/>
      <point x="390" y="-2" type="line" smooth="yes"/>
      <point x="481" y="-2"/>
      <point x="558" y="39"/>
      <point x="558" y="155" type="curve" smooth="yes"/>
      <point x="558" y="257" type="line" smooth="yes"/>
      <point x="558" y="371"/>
      <point x="480" y="407"/>
      <point x="351" y="407" type="curve" smooth="yes"/>
      <point x="298" y="407"/>
      <point x="202" y="405"/>
      <point x="138" y="398" type="curve"/>
      <point x="138" y="592"/>
      <point x="212" y="685"/>
      <point x="330" y="685" type="curve" smooth="yes"/>
      <point x="514" y="685" type="line"/>
      <point x="514" y="731" type="line"/>
      <point x="461" y="736"/>
      <point x="386" y="740"/>
      <point x="332" y="740" type="curve" smooth="yes"/>
      <point x="172" y="740"/>
      <point x="77" y="628"/>
    </contour>
  </outline>
</glyph>
<glyph name="eight" format="1">
  <advance width="647"/>
  <unicode hex="0038"/>
  <note>
    GF Latin Plus glyph
  </note>
  <outline>
    <contour>
      <point x="162" y="499" type="curve" smooth="yes"/>
      <point x="162" y="574" type="line" smooth="yes"/>
      <point x="162" y="653"/>
      <point x="193" y="687"/>
      <point x="271" y="687" type="curve" smooth="yes"/>
      <point x="388" y="687" type="line" smooth="yes"/>
      <point x="453" y="687"/>
      <point x="485" y="657"/>
      <point x="485" y="574" type="curve" smooth="yes"/>
      <point x="485" y="499" type="line" smooth="yes"/>
      <point x="485" y="455"/>
      <point x="458" y="401"/>
      <point x="382" y="401" type="curve" smooth="yes"/>
      <point x="270" y="401" type="line" smooth="yes"/>
      <point x="196" y="401"/>
      <point x="162" y="444"/>
    </contour>
    <contour>
      <point x="149" y="147" type="curve" smooth="yes"/>
      <point x="149" y="247" type="line" smooth="yes"/>
      <point x="149" y="323"/>
      <point x="227" y="348"/>
      <point x="270" y="348" type="curve" smooth="yes"/>
      <point x="382" y="348" type="line" smooth="yes"/>
      <point x="467" y="348"/>
      <point x="498" y="320"/>
      <point x="498" y="247" type="curve" smooth="yes"/>
      <point x="498" y="147" type="line" smooth="yes"/>
      <point x="498" y="84"/>
      <point x="463" y="52"/>
      <point x="387" y="52" type="curve" smooth="yes"/>
      <point x="271" y="52" type="line" smooth="yes"/>
      <point x="201" y="52"/>
      <point x="149" y="78"/>
    </contour>
    <contour>
      <point x="88" y="141" type="line" smooth="yes"/>
      <point x="88" y="40"/>
      <point x="158" y="-1"/>
      <point x="263" y="-1" type="curve" smooth="yes"/>
      <point x="398" y="-1" type="line" smooth="yes"/>
      <point x="496" y="-1"/>
      <point x="560" y="41"/>
      <point x="560" y="141" type="curve" smooth="yes"/>
      <point x="560" y="255" type="line" smooth="yes"/>
      <point x="560" y="312"/>
      <point x="531" y="369"/>
      <point x="468" y="381" type="curve"/>
      <point x="519" y="396"/>
      <point x="545" y="454"/>
      <point x="545" y="501" type="curve" smooth="yes"/>
      <point x="545" y="586" type="line" smooth="yes"/>
      <point x="545" y="696"/>
      <point x="490" y="740"/>
      <point x="398" y="740" type="curve" smooth="yes"/>
      <point x="261" y="740" type="line" smooth="yes"/>
      <point x="170" y="740"/>
      <point x="102" y="696"/>
      <point x="102" y="586" type="curve" smooth="yes"/>
      <point x="102" y="501" type="line" smooth="yes"/>
      <point x="102" y="448"/>
      <point x="122" y="399"/>
      <point x="186" y="371" type="curve"/>
      <point x="145" y="362"/>
      <point x="88" y="323"/>
      <point x="88" y="248" type="curve" smooth="yes"/>
    </contour>
  </outline>
</glyph>
<glyph name="nine" format="1">
  <advance width="627"/>
  <unicode hex="0039"/>
  <note>
    GF Latin Plus glyph
  </note>
  <outline>
    <contour>
      <point x="491" y="382" type="curve"/>
      <point x="290" y="382" type="line" smooth="yes"/>
      <point x="191" y="382"/>
      <point x="131" y="398"/>
      <point x="131" y="487" type="curve" smooth="yes"/>
      <point x="131" y="574" type="line" smooth="yes"/>
      <point x="131" y="662"/>
      <point x="185" y="683"/>
      <point x="248" y="683" type="curve" smooth="yes"/>
      <point x="345" y="683" type="line" smooth="yes"/>
      <point x="437" y="683"/>
      <point x="491" y="622"/>
    </contour>
    <contour>
      <point x="552" y="366" type="curve" smooth="yes"/>
      <point x="552" y="665"/>
      <point x="473" y="738"/>
      <point x="354" y="738" type="curve" smooth="yes"/>
      <point x="238" y="738" type="line" smooth="yes"/>
      <point x="147" y="738"/>
      <point x="71" y="697"/>
      <point x="71" y="581" type="curve" smooth="yes"/>
      <point x="71" y="479" type="line" smooth="yes"/>
      <point x="71" y="365"/>
      <point x="149" y="329"/>
      <point x="278" y="329" type="curve" smooth="yes"/>
      <point x="331" y="329"/>
      <point x="427" y="331"/>
      <point x="491" y="338" type="curve"/>
      <point x="491" y="144"/>
      <point x="417" y="51"/>
      <point x="299" y="51" type="curve" smooth="yes"/>
      <point x="115" y="51" type="line"/>
      <point x="115" y="5" type="line"/>
      <point x="167" y="0"/>
      <point x="242" y="-4"/>
      <point x="297" y="-4" type="curve" smooth="yes"/>
      <point x="457" y="-4"/>
      <point x="552" y="108"/>
    </contour>
  </outline>
</glyph>
<glyph name="question" format="1">
  <advance width="531"/>
  <unicode hex="003F"/>
  <note>
    GF Latin Plus glyph
  </note>
  <outline>
    <contour>
      <point x="46" y="647" type="line"/>
      <point x="117" y="674"/>
      <point x="175" y="687"/>
      <point x="245" y="687" type="curve" smooth="yes"/>
      <point x="346" y="687"/>
      <point x="389" y="646"/>
      <point x="389" y="536" type="curve" smooth="yes"/>
      <point x="389" y="468" type="line" smooth="yes"/>
      <point x="389" y="372"/>
      <point x="341" y="343"/>
      <point x="221" y="343" type="curve" smooth="yes"/>
      <point x="176" y="343" type="line"/>
      <point x="176" y="197" type="line"/>
      <point x="223" y="197" type="line"/>
      <point x="223" y="295" type="line"/>
      <point x="382" y="295"/>
      <point x="447" y="351"/>
      <point x="447" y="467" type="curve" smooth="yes"/>
      <point x="447" y="542" type="line" smooth="yes"/>
      <point x="447" y="665"/>
      <point x="400" y="741"/>
      <point x="258" y="739" type="curve" smooth="yes"/>
      <point x="180" y="738"/>
      <point x="110" y="724"/>
      <point x="46" y="687" type="curve"/>
    </contour>
    <component base="period" xOffset="104"/>
  </outline>
</glyph>
<glyph name="at" format="1">
  <advance width="871"/>
  <unicode hex="0040"/>
  <note>
    GF Latin Plus glyph
  </note>
  <outline>
    <contour>
      <point x="286" y="125" type="curve" smooth="yes"/>
      <point x="286" y="163" type="line" smooth="yes"/>
      <point x="286" y="231"/>
      <point x="343" y="239"/>
      <point x="380" y="240" type="curve" smooth="yes"/>
      <point x="566" y="250" type="line"/>
      <point x="566" y="98" type="line"/>
      <point x="524" y="73"/>
      <point x="433" y="41"/>
      <point x="380" y="41" type="curve" smooth="yes"/>
      <point x="321" y="41"/>
      <point x="286" y="74"/>
    </contour>
    <contour>
      <point x="77" y="4" type="line" smooth="yes"/>
      <point x="77" y="-126"/>
      <point x="154" y="-187"/>
      <point x="260" y="-187" type="curve" smooth="yes"/>
      <point x="581" y="-187" type="line" smooth="yes"/>
      <point x="721" y="-187"/>
      <point x="771" y="-109"/>
      <point x="771" y="9" type="curve" smooth="yes"/>
      <point x="771" y="499" type="line" smooth="yes"/>
      <point x="771" y="641"/>
      <point x="687" y="703"/>
      <point x="579" y="703" type="curve" smooth="yes"/>
      <point x="481" y="703" type="line" smooth="yes"/>
      <point x="355" y="703"/>
      <point x="235" y="700"/>
      <point x="187" y="690" type="curve"/>
      <point x="187" y="653" type="line"/>
      <point x="579" y="653" type="line" smooth="yes"/>
      <point x="674" y="653"/>
      <point x="721" y="589"/>
      <point x="721" y="499" type="curve" smooth="yes"/>
      <point x="721" y="9" type="line" smooth="yes"/>
      <point x="721" y="-86"/>
      <point x="678" y="-136"/>
      <point x="579" y="-136" type="curve" smooth="yes"/>
      <point x="260" y="-136" type="line" smooth="yes"/>
      <point x="198" y="-136"/>
      <point x="127" y="-103"/>
      <point x="127" y="9" type="curve" smooth="yes"/>
      <point x="127" y="333" type="line" smooth="yes"/>
      <point x="127" y="431"/>
      <point x="182" y="462"/>
      <point x="260" y="462" type="curve" smooth="yes"/>
      <point x="453" y="462" type="line" smooth="yes"/>
      <point x="522" y="462"/>
      <point x="566" y="433"/>
      <point x="566" y="361" type="curve" smooth="yes"/>
      <point x="566" y="283" type="line"/>
      <point x="369" y="283" type="line" smooth="yes"/>
      <point x="282" y="283"/>
      <point x="233" y="238"/>
      <point x="233" y="163" type="curve" smooth="yes"/>
      <point x="233" y="115" type="line" smooth="yes"/>
      <point x="233" y="47"/>
      <point x="283" y="-9"/>
      <point x="361" y="-9" type="curve" smooth="yes"/>
      <point x="452" y="-9"/>
      <point x="565" y="62"/>
      <point x="567" y="62" type="curve"/>
      <point x="578" y="0" type="line"/>
      <point x="616" y="0" type="line"/>
      <point x="616" y="365" type="line" smooth="yes"/>
      <point x="616" y="486"/>
      <point x="531" y="512"/>
      <point x="454" y="512" type="curve" smooth="yes"/>
      <point x="260" y="512" type="line" smooth="yes"/>
      <point x="92" y="512"/>
      <point x="77" y="391"/>
      <point x="77" y="335" type="curve" smooth="yes"/>
    </contour>
  </outline>
</glyph>
<glyph name="A" format="1">
  <advance width="672"/>
  <unicode hex="0041"/>
  <note>
    GF Latin Plus glyph
  </note>
  <outline>
    <contour>
      <point x="197" y="280" type="line"/>
      <point x="335" y="680" type="line"/>
      <point x="472" y="280" type="line"/>
    </contour>
    <contour>
      <point x="39" y="0" type="line"/>
      <point x="102" y="0" type="line"/>
      <point x="181" y="225" type="line"/>
      <point x="489" y="225" type="line"/>
      <point x="569" y="0" type="line"/>
      <point x="633" y="0" type="line"/>
      <point x="376" y="734" type="line"/>
      <point x="296" y="734" type="line"/>
    </contour>
    <contour>
      <point x="335" y="810" type="move" name="top"/>
    </contour>
    <contour>
      <point x="623" y="0" type="move" name="ogonek"/>
    </contour>
    <contour>
      <point x="335" y="-150" type="move" name="bottom"/>
    </contour>
  </outline>
</glyph>
<glyph name="B" format="1">
  <advance width="597"/>
  <unicode hex="0042"/>
  <note>
    GF Latin Plus glyph
  </note>
  <outline>
    <contour>
      <point x="142" y="403" type="line"/>
      <point x="142" y="679" type="line"/>
      <point x="340" y="679" type="line" smooth="yes"/>
      <point x="415" y="679"/>
      <point x="469" y="643"/>
      <point x="466" y="540" type="curve" smooth="yes"/>
      <point x="463" y="456"/>
      <point x="414" y="403"/>
      <point x="345" y="403" type="curve" smooth="yes"/>
    </contour>
    <contour>
      <point x="142" y="55" type="line"/>
      <point x="142" y="354" type="line"/>
      <point x="348" y="354" type="line" smooth="yes"/>
      <point x="427" y="354"/>
      <point x="492" y="303"/>
      <point x="492" y="213" type="curve" smooth="yes"/>
      <point x="492" y="86"/>
      <point x="433" y="55"/>
      <point x="348" y="55" type="curve" smooth="yes"/>
    </contour>
    <contour>
      <point x="81" y="0" type="line"/>
      <point x="349" y="0" type="line" smooth="yes"/>
      <point x="472" y="0"/>
      <point x="551" y="45"/>
      <point x="551" y="204" type="curve" smooth="yes"/>
      <point x="551" y="324"/>
      <point x="470" y="370"/>
      <point x="420" y="381" type="curve"/>
      <point x="475" y="397"/>
      <point x="525" y="454"/>
      <point x="525" y="547" type="curve" smooth="yes"/>
      <point x="525" y="674"/>
      <point x="461" y="734"/>
      <point x="340" y="734" type="curve" smooth="yes"/>
      <point x="81" y="734" type="line"/>
    </contour>
    <contour>
      <point x="293" y="810" type="move" name="top"/>
    </contour>
  </outline>
</glyph>
<glyph name="C" format="1">
  <advance width="580"/>
  <unicode hex="0043"/>
  <note>
    GF Latin Plus glyph
  </note>
  <outline>
    <contour>
      <point x="63" y="369" type="curve" smooth="yes"/>
      <point x="63" y="54"/>
      <point x="141" y="-6"/>
      <point x="320" y="-6" type="curve" smooth="yes"/>
      <point x="386" y="-6"/>
      <point x="469" y="3"/>
      <point x="533" y="17" type="curve"/>
      <point x="533" y="62" type="line"/>
      <point x="492" y="56"/>
      <point x="431" y="49"/>
      <point x="331" y="49" type="curve" smooth="yes"/>
      <point x="179" y="49"/>
      <point x="124" y="98"/>
      <point x="124" y="369" type="curve" smooth="yes"/>
      <point x="124" y="628"/>
      <point x="182" y="685"/>
      <point x="334" y="685" type="curve" smooth="yes"/>
      <point x="413" y="685"/>
      <point x="500" y="676"/>
      <point x="533" y="671" type="curve"/>
      <point x="533" y="716" type="line"/>
      <point x="469" y="730"/>
      <point x="380" y="741"/>
      <point x="326" y="741" type="curve" smooth="yes"/>
      <point x="143" y="741"/>
      <point x="63" y="666"/>
    </contour>
    <contour>
      <point x="326" y="810" type="move" name="top"/>
    </contour>
    <contour>
      <point x="332" y="-150" type="move" name="bottom"/>
    </contour>
  </outline>
</glyph>
<glyph name="D" format="1">
  <advance width="666"/>
  <unicode hex="0044"/>
  <note>
    GF Latin Plus glyph
  </note>
  <outline>
    <contour>
      <point x="142" y="55" type="line"/>
      <point x="142" y="679" type="line"/>
      <point x="361" y="679" type="line" smooth="yes"/>
      <point x="489" y="679"/>
      <point x="542" y="593"/>
      <point x="542" y="367" type="curve" smooth="yes"/>
      <point x="542" y="180"/>
      <point x="486" y="55"/>
      <point x="361" y="55" type="curve" smooth="yes"/>
    </contour>
    <contour>
      <point x="81" y="0" type="line"/>
      <point x="366" y="0" type="line" smooth="yes"/>
      <point x="523" y="0"/>
      <point x="604" y="141"/>
      <point x="604" y="367" type="curve" smooth="yes"/>
      <point x="604" y="608"/>
      <point x="537" y="734"/>
      <point x="366" y="734" type="curve" smooth="yes"/>
      <point x="81" y="734" type="line"/>
    </contour>
    <contour>
      <point x="315" y="810" type="move" name="top"/>
    </contour>
    <contour>
      <point x="306" y="-150" type="move" name="bottom"/>
    </contour>
  </outline>
</glyph>
<glyph name="E" format="1">
  <advance width="584"/>
  <unicode hex="0045"/>
  <note>
    GF Latin Plus glyph
  </note>
  <outline>
    <contour>
      <point x="81" y="131" type="line" smooth="yes"/>
      <point x="81" y="9"/>
      <point x="165" y="-4"/>
      <point x="231" y="-4" type="curve" smooth="yes"/>
      <point x="253" y="-4"/>
      <point x="504" y="2"/>
      <point x="523" y="5" type="curve"/>
      <point x="523" y="53" type="line"/>
      <point x="239" y="53" type="line" smooth="yes"/>
      <point x="190" y="53"/>
      <point x="142" y="65"/>
      <point x="142" y="146" type="curve" smooth="yes"/>
      <point x="142" y="337" type="line"/>
      <point x="481" y="342" type="line"/>
      <point x="481" y="388" type="line"/>
      <point x="142" y="392" type="line"/>
      <point x="142" y="584" type="line" smooth="yes"/>
      <point x="142" y="650"/>
      <point x="177" y="678"/>
      <point x="233" y="678" type="curve" smooth="yes"/>
      <point x="523" y="678" type="line"/>
      <point x="523" y="726" type="line"/>
      <point x="508" y="728"/>
      <point x="256" y="734"/>
      <point x="220" y="734" type="curve" smooth="yes"/>
      <point x="151" y="735"/>
      <point x="81" y="701"/>
      <point x="81" y="595" type="curve" smooth="yes"/>
    </contour>
    <contour>
      <point x="311" y="810" type="move" name="top"/>
    </contour>
    <contour>
      <point x="513" y="5" type="move" name="ogonek"/>
    </contour>
    <contour>
      <point x="317" y="-150" type="move" name="bottom"/>
    </contour>
  </outline>
</glyph>
<glyph name="F" format="1">
  <advance width="563"/>
  <unicode hex="0046"/>
  <note>
    GF Latin Plus glyph
  </note>
  <outline>
    <contour>
      <point x="81" y="0" type="line"/>
      <point x="142" y="0" type="line"/>
      <point x="142" y="322" type="line"/>
      <point x="481" y="326" type="line"/>
      <point x="481" y="373" type="line"/>
      <point x="142" y="377" type="line"/>
      <point x="142" y="585" type="line" smooth="yes"/>
      <point x="142" y="647"/>
      <point x="176" y="678"/>
      <point x="232" y="678" type="curve" smooth="yes"/>
      <point x="523" y="678" type="line"/>
      <point x="523" y="726" type="line"/>
      <point x="498" y="730"/>
      <point x="233" y="734"/>
      <point x="220" y="734" type="curve" smooth="yes"/>
      <point x="151" y="735"/>
      <point x="81" y="701"/>
      <point x="81" y="595" type="curve" smooth="yes"/>
    </contour>
    <contour>
      <point x="311" y="810" type="move" name="top"/>
    </contour>
  </outline>
</glyph>
<glyph name="G" format="1">
  <advance width="649"/>
  <unicode hex="0047"/>
  <note>
    GF Latin Plus glyph
  </note>
  <outline>
    <contour>
      <point x="63" y="370" type="curve" smooth="yes"/>
      <point x="63" y="103"/>
      <point x="113" y="-7"/>
      <point x="301" y="-5" type="curve" smooth="yes"/>
      <point x="384" y="-4"/>
      <point x="464" y="27"/>
      <point x="514" y="52" type="curve"/>
      <point x="524" y="0" type="line"/>
      <point x="568" y="0" type="line"/>
      <point x="568" y="380" type="line"/>
      <point x="546" y="383"/>
      <point x="516" y="384"/>
      <point x="483" y="384" type="curve" smooth="yes"/>
      <point x="419" y="384"/>
      <point x="357" y="380"/>
      <point x="319" y="374" type="curve"/>
      <point x="319" y="330" type="line"/>
      <point x="509" y="330" type="line"/>
      <point x="509" y="94" type="line"/>
      <point x="458" y="73"/>
      <point x="382" y="51"/>
      <point x="315" y="51" type="curve" smooth="yes"/>
      <point x="164" y="51"/>
      <point x="124" y="124"/>
      <point x="124" y="368" type="curve" smooth="yes"/>
      <point x="124" y="595"/>
      <point x="164" y="685"/>
      <point x="314" y="685" type="curve" smooth="yes"/>
      <point x="402" y="685"/>
      <point x="499" y="676"/>
      <point x="539" y="671" type="curve"/>
      <point x="539" y="717" type="line"/>
      <point x="472" y="731"/>
      <point x="377" y="741"/>
      <point x="305" y="741" type="curve" smooth="yes"/>
      <point x="117" y="741"/>
      <point x="63" y="622"/>
    </contour>
    <contour>
      <point x="329" y="810" type="move" name="top"/>
    </contour>
    <contour>
      <point x="337" y="-150" type="move" name="bottom"/>
    </contour>
  </outline>
</glyph>
<glyph name="I" format="1">
  <advance width="221"/>
  <unicode hex="0049"/>
  <note>
    GF Latin Plus glyph
  </note>
  <outline>
    <contour>
      <point x="81" y="0" type="line"/>
      <point x="139" y="0" type="line"/>
      <point x="139" y="734" type="line"/>
      <point x="81" y="734" type="line"/>
    </contour>
    <contour>
      <point x="110" y="810" type="move" name="top"/>
    </contour>
    <contour>
      <point x="129" y="0" type="move" name="ogonek"/>
    </contour>
    <contour>
      <point x="110" y="-150" type="move" name="bottom"/>
    </contour>
  </outline>
</glyph>
<glyph name="L" format="1">
  <advance width="531"/>
  <unicode hex="004C"/>
  <note>
    GF Latin Plus glyph
  </note>
  <outline>
    <contour>
      <point x="81" y="137" type="line" smooth="yes"/>
      <point x="81" y="29"/>
      <point x="143" y="0"/>
      <point x="219" y="0" type="curve" smooth="yes"/>
      <point x="503" y="0" type="line"/>
      <point x="503" y="54" type="line"/>
      <point x="231" y="54" type="line" smooth="yes"/>
      <point x="185" y="54"/>
      <point x="139" y="68"/>
      <point x="139" y="146" type="curve" smooth="yes"/>
      <point x="139" y="734" type="line"/>
      <point x="81" y="734" type="line"/>
    </contour>
    <contour>
      <point x="110" y="810" type="move" name="top"/>
    </contour>
    <contour>
      <point x="179" y="650" type="move" name="altcaron"/>
    </contour>
    <contour>
      <point x="268" y="-150" type="move" name="bottom"/>
    </contour>
  </outline>
</glyph>
<glyph name="M" format="1">
  <advance width="823"/>
  <unicode hex="004D"/>
  <note>
    GF Latin Plus glyph
  </note>
  <outline>
    <contour>
      <point x="61" y="0" type="line"/>
      <point x="143" y="734" type="line"/>
      <point x="209" y="734" type="line"/>
      <point x="411" y="80" type="line"/>
      <point x="610" y="734" type="line"/>
      <point x="677" y="734" type="line"/>
      <point x="762" y="0" type="line"/>
      <point x="702" y="0" type="line"/>
      <point x="625" y="672" type="line"/>
      <point x="637" y="669" type="line"/>
      <point x="439" y="0" type="line"/>
      <point x="383" y="0" type="line"/>
      <point x="181" y="668" type="line"/>
      <point x="194" y="670" type="line"/>
      <point x="120" y="0" type="line"/>
    </contour>
    <contour>
      <point x="409" y="810" type="move" name="top"/>
    </contour>
    <contour>
      <point x="409" y="-150" type="move" name="bottom"/>
    </contour>
  </outline>
</glyph>
<glyph name="N" format="1">
  <advance width="677"/>
  <unicode hex="004E"/>
  <note>
    GF Latin Plus glyph
  </note>
  <outline>
    <contour>
      <point x="96" y="0" type="line"/>
      <point x="158" y="0" type="line"/>
      <point x="158" y="628" type="line"/>
      <point x="561" y="0" type="line"/>
      <point x="612" y="0" type="line"/>
      <point x="612" y="734" type="line"/>
      <point x="550" y="734" type="line"/>
      <point x="550" y="106" type="line"/>
      <point x="147" y="734" type="line"/>
      <point x="96" y="734" type="line"/>
    </contour>
    <contour>
      <point x="339" y="810" type="move" name="top"/>
    </contour>
    <contour>
      <point x="339" y="-150" type="move" name="bottom"/>
    </contour>
  </outline>
</glyph>
<glyph name="O" format="1">
  <advance width="683"/>
  <unicode hex="004F"/>
  <note>
    GF Latin Plus glyph
  </note>
  <outline>
    <contour>
      <point x="124" y="363" type="curve" smooth="yes"/>
      <point x="124" y="649"/>
      <point x="196" y="685"/>
      <point x="342" y="685" type="curve" smooth="yes"/>
      <point x="496" y="685"/>
      <point x="559" y="649"/>
      <point x="559" y="363" type="curve" smooth="yes"/>
      <point x="559" y="91"/>
      <point x="497" y="49"/>
      <point x="342" y="49" type="curve" smooth="yes"/>
      <point x="180" y="49"/>
      <point x="124" y="91"/>
    </contour>
    <contour>
      <point x="63" y="363" type="curve" smooth="yes"/>
      <point x="63" y="41"/>
      <point x="155" y="-6"/>
      <point x="342" y="-6" type="curve" smooth="yes"/>
      <point x="528" y="-6"/>
      <point x="620" y="41"/>
      <point x="620" y="363" type="curve" smooth="yes"/>
      <point x="620" y="685"/>
      <point x="530" y="741"/>
      <point x="342" y="741" type="curve" smooth="yes"/>
      <point x="159" y="741"/>
      <point x="63" y="685"/>
    </contour>
    <contour>
      <point x="342" y="810" type="move" name="top"/>
    </contour>
    <contour>
      <point x="403" y="0" type="move" name="ogonek"/>
    </contour>
    <contour>
      <point x="342" y="-150" type="move" name="bottom"/>
    </contour>
  </outline>
</glyph>
<glyph name="P" format="1">
  <advance width="599"/>
  <unicode hex="0050"/>
  <note>
    GF Latin Plus glyph
  </note>
  <outline>
    <contour>
      <point x="142" y="323" type="line"/>
      <point x="142" y="679" type="line"/>
      <point x="363" y="679" type="line" smooth="yes"/>
      <point x="431" y="679"/>
      <point x="493" y="645"/>
      <point x="493" y="504" type="curve" smooth="yes"/>
      <point x="493" y="361"/>
      <point x="430" y="323"/>
      <point x="356" y="323" type="curve" smooth="yes"/>
    </contour>
    <contour>
      <point x="81" y="0" type="line"/>
      <point x="142" y="0" type="line"/>
      <point x="142" y="276" type="line"/>
      <point x="184" y="273"/>
      <point x="321" y="267"/>
      <point x="362" y="267" type="curve" smooth="yes"/>
      <point x="444" y="267"/>
      <point x="555" y="304"/>
      <point x="555" y="504" type="curve" smooth="yes"/>
      <point x="555" y="702"/>
      <point x="452" y="734"/>
      <point x="368" y="734" type="curve" smooth="yes"/>
      <point x="81" y="734" type="line"/>
    </contour>
    <contour>
      <point x="286" y="810" type="move" name="top"/>
    </contour>
  </outline>
</glyph>
<glyph name="R" format="1">
  <advance width="603"/>
  <unicode hex="0052"/>
  <note>
    GF Latin Plus glyph
  </note>
  <outline>
    <contour>
      <point x="81" y="0" type="line"/>
      <point x="142" y="0" type="line"/>
      <point x="142" y="313" type="line"/>
      <point x="193" y="311"/>
      <point x="307" y="309"/>
      <point x="349" y="308" type="curve"/>
      <point x="498" y="0" type="line"/>
      <point x="560" y="0" type="line"/>
      <point x="406" y="315" type="line"/>
      <point x="467" y="325"/>
      <point x="552" y="357"/>
      <point x="552" y="523" type="curve" smooth="yes"/>
      <point x="552" y="706"/>
      <point x="456" y="734"/>
      <point x="366" y="734" type="curve" smooth="yes"/>
      <point x="81" y="734" type="line"/>
    </contour>
    <contour>
      <point x="142" y="359" type="line"/>
      <point x="142" y="679" type="line"/>
      <point x="358" y="679" type="line" smooth="yes"/>
      <point x="427" y="679"/>
      <point x="491" y="656"/>
      <point x="491" y="523" type="curve" smooth="yes"/>
      <point x="491" y="384"/>
      <point x="429" y="359"/>
      <point x="358" y="359" type="curve" smooth="yes"/>
    </contour>
    <contour>
      <point x="292" y="810" type="move" name="top"/>
    </contour>
    <contour>
      <point x="293" y="-150" type="move" name="bottom"/>
    </contour>
  </outline>
</glyph>
<glyph name="S" format="1">
  <advance width="575"/>
  <unicode hex="0053"/>
  <note>
    GF Latin Plus glyph
  </note>
  <outline>
    <contour>
      <point x="64" y="510" type="line" smooth="yes"/>
      <point x="64" y="383"/>
      <point x="135" y="339"/>
      <point x="251" y="339" type="curve" smooth="yes"/>
      <point x="334" y="339" type="line" smooth="yes"/>
      <point x="419" y="339"/>
      <point x="454" y="298"/>
      <point x="454" y="226" type="curve" smooth="yes"/>
      <point x="454" y="170" type="line" smooth="yes"/>
      <point x="454" y="70"/>
      <point x="377" y="49"/>
      <point x="283" y="49" type="curve" smooth="yes"/>
      <point x="202" y="49"/>
      <point x="111" y="52"/>
      <point x="65" y="57" type="curve"/>
      <point x="65" y="11" type="line"/>
      <point x="113" y="1"/>
      <point x="231" y="-6"/>
      <point x="286" y="-6" type="curve" smooth="yes"/>
      <point x="408" y="-6"/>
      <point x="513" y="29"/>
      <point x="513" y="171" type="curve" smooth="yes"/>
      <point x="513" y="231" type="line" smooth="yes"/>
      <point x="513" y="328"/>
      <point x="459" y="398"/>
      <point x="340" y="398" type="curve" smooth="yes"/>
      <point x="252" y="398" type="line" smooth="yes"/>
      <point x="171" y="398"/>
      <point x="123" y="425"/>
      <point x="123" y="513" type="curve" smooth="yes"/>
      <point x="123" y="551" type="line" smooth="yes"/>
      <point x="123" y="657"/>
      <point x="180" y="685"/>
      <point x="276" y="685" type="curve" smooth="yes"/>
      <point x="342" y="685"/>
      <point x="421" y="680"/>
      <point x="479" y="675" type="curve"/>
      <point x="479" y="722" type="line"/>
      <point x="431" y="730"/>
      <point x="330" y="740"/>
      <point x="271" y="740" type="curve" smooth="yes"/>
      <point x="139" y="740"/>
      <point x="64" y="691"/>
      <point x="64" y="553" type="curve" smooth="yes"/>
    </contour>
    <contour>
      <point x="282" y="810" type="move" name="top"/>
    </contour>
    <contour>
      <point x="282" y="-150" type="move" name="bottom"/>
    </contour>
  </outline>
</glyph>
<glyph name="U" format="1">
  <advance width="673"/>
  <unicode hex="0055"/>
  <note>
    GF Latin Plus glyph
  </note>
  <outline>
    <contour>
      <point x="71" y="225" type="line" smooth="yes"/>
      <point x="71" y="46"/>
      <point x="171" y="-6"/>
      <point x="337" y="-6" type="curve" smooth="yes"/>
      <point x="502" y="-6"/>
      <point x="602" y="46"/>
      <point x="602" y="225" type="curve" smooth="yes"/>
      <point x="602" y="734" type="line"/>
      <point x="541" y="734" type="line"/>
      <point x="541" y="226" type="line" smooth="yes"/>
      <point x="541" y="88"/>
      <point x="466" y="49"/>
      <point x="337" y="49" type="curve" smooth="yes"/>
      <point x="208" y="49"/>
      <point x="132" y="88"/>
      <point x="132" y="226" type="curve" smooth="yes"/>
      <point x="132" y="734" type="line"/>
      <point x="71" y="734" type="line"/>
    </contour>
    <contour>
      <point x="334" y="810" type="move" name="top"/>
    </contour>
    <contour>
      <point x="410" y="0" type="move" name="ogonek"/>
    </contour>
    <contour>
      <point x="334" y="-150" type="move" name="bottom"/>
    </contour>
  </outline>
</glyph>
<glyph name="X" format="1">
  <advance width="611"/>
  <unicode hex="0058"/>
  <note>
    GF Latin Plus glyph
  </note>
  <outline>
    <contour>
      <point x="44" y="0" type="line"/>
      <point x="108" y="0" type="line"/>
      <point x="311" y="329" type="line"/>
      <point x="281" y="379" type="line"/>
    </contour>
    <contour>
      <point x="304" y="400" type="line"/>
      <point x="330" y="345" type="line"/>
      <point x="570" y="734" type="line"/>
      <point x="506" y="734" type="line"/>
    </contour>
    <contour>
      <point x="41" y="734" type="line"/>
      <point x="505" y="0" type="line"/>
      <point x="569" y="0" type="line"/>
      <point x="105" y="734" type="line"/>
    </contour>
    <contour>
      <point x="299" y="810" type="move" name="top"/>
    </contour>
    <contour>
      <point x="299" y="-150" type="move" name="bottom"/>
    </contour>
  </outline>
</glyph>
<glyph name="Y" format="1">
  <advance width="615"/>
  <unicode hex="0059"/>
  <note>
    GF Latin Plus glyph
  </note>
  <outline>
    <contour>
      <point x="40" y="734" type="line"/>
      <point x="277" y="249" type="line"/>
      <point x="277" y="0" type="line"/>
      <point x="338" y="0" type="line"/>
      <point x="338" y="249" type="line"/>
      <point x="575" y="734" type="line"/>
      <point x="513" y="734" type="line"/>
      <point x="309" y="311" type="line"/>
      <point x="104" y="734" type="line"/>
    </contour>
    <contour>
      <point x="309" y="810" type="move" name="top"/>
    </contour>
    <contour>
      <point x="309" y="-150" type="move" name="bottom"/>
    </contour>
  </outline>
</glyph>
<glyph name="bracketleft" format="1">
  <advance width="331"/>
  <unicode hex="005B"/>
  <note>
    GF Latin Plus glyph
  </note>
  <outline>
    <contour>
      <point x="100" y="-27" type="line" smooth="yes"/>
      <point x="100" y="-95"/>
      <point x="118" y="-210"/>
      <point x="249" y="-210" type="curve" smooth="yes"/>
      <point x="308" y="-210" type="line"/>
      <point x="308" y="-158" type="line"/>
      <point x="263" y="-158" type="line" smooth="yes"/>
      <point x="189" y="-158"/>
      <point x="162" y="-101"/>
      <point x="162" y="-25" type="curve" smooth="yes"/>
      <point x="162" y="657" type="line" smooth="yes"/>
      <point x="162" y="752"/>
      <point x="203" y="790"/>
      <point x="263" y="790" type="curve" smooth="yes"/>
      <point x="308" y="790" type="line"/>
      <point x="308" y="842" type="line"/>
      <point x="249" y="842" type="line" smooth="yes"/>
      <point x="125" y="842"/>
      <point x="100" y="739"/>
      <point x="100" y="663" type="curve" smooth="yes"/>
    </contour>
  </outline>
</glyph>
<glyph name="bracketright" format="1">
  <advance width="331"/>
  <unicode hex="005D"/>
  <note>
    GF Latin Plus glyph
  </note>
  <outline>
    <contour>
      <point x="24" y="-158" type="line"/>
      <point x="24" y="-210" type="line"/>
      <point x="82" y="-210" type="line" smooth="yes"/>
      <point x="214" y="-210"/>
      <point x="231" y="-95"/>
      <point x="231" y="-27" type="curve" smooth="yes"/>
      <point x="231" y="663" type="line" smooth="yes"/>
      <point x="231" y="739"/>
      <point x="207" y="842"/>
      <point x="82" y="842" type="curve" smooth="yes"/>
      <point x="24" y="842" type="line"/>
      <point x="24" y="790" type="line"/>
      <point x="69" y="790" type="line" smooth="yes"/>
      <point x="129" y="790"/>
      <point x="170" y="752"/>
      <point x="170" y="657" type="curve" smooth="yes"/>
      <point x="170" y="-25" type="line" smooth="yes"/>
      <point x="170" y="-101"/>
      <point x="142" y="-158"/>
      <point x="69" y="-158" type="curve" smooth="yes"/>
    </contour>
  </outline>
</glyph>
<glyph name="a" format="1">
  <advance width="543"/>
  <unicode hex="0061"/>
  <note>
    GF Latin Plus glyph
  </note>
  <outline>
    <contour>
      <point x="109" y="138" type="curve" smooth="yes"/>
      <point x="109" y="163" type="line" smooth="yes"/>
      <point x="109" y="220"/>
      <point x="140" y="262"/>
      <point x="222" y="265" type="curve" smooth="yes"/>
      <point x="405" y="272" type="line"/>
      <point x="405" y="93" type="line"/>
      <point x="403" y="92"/>
      <point x="271" y="40"/>
      <point x="205" y="42" type="curve" smooth="yes"/>
      <point x="160" y="42"/>
      <point x="109" y="66"/>
    </contour>
    <contour>
      <point x="48" y="127" type="line" smooth="yes"/>
      <point x="48" y="42"/>
      <point x="105" y="-6"/>
      <point x="182" y="-6" type="curve" smooth="yes"/>
      <point x="277" y="-6"/>
      <point x="400" y="56"/>
      <point x="407" y="62" type="curve"/>
      <point x="420" y="0" type="line"/>
      <point x="466" y="0" type="line"/>
      <point x="466" y="380" type="line" smooth="yes"/>
      <point x="466" y="492"/>
      <point x="408" y="543"/>
      <point x="279" y="542" type="curve" smooth="yes"/>
      <point x="198" y="541"/>
      <point x="139" y="535"/>
      <point x="94" y="529" type="curve"/>
      <point x="94" y="492" type="line"/>
      <point x="261" y="492" type="line" smooth="yes"/>
      <point x="376" y="492"/>
      <point x="405" y="448"/>
      <point x="405" y="377" type="curve" smooth="yes"/>
      <point x="405" y="304" type="line"/>
      <point x="212" y="304" type="line" smooth="yes"/>
      <point x="103" y="304"/>
      <point x="48" y="247"/>
      <point x="48" y="163" type="curve" smooth="yes"/>
    </contour>
    <contour>
      <point x="270" y="650" type="move" name="top"/>
    </contour>
    <contour>
      <point x="456" y="0" type="move" name="ogonek"/>
    </contour>
    <contour>
      <point x="270" y="-150" type="move" name="bottom"/>
    </contour>
  </outline>
</glyph>
<glyph name="c" format="1">
  <advance width="490"/>
  <unicode hex="0063"/>
  <note>
    GF Latin Plus glyph
  </note>
  <outline>
    <contour>
      <point x="61" y="266" type="curve" smooth="yes"/>
      <point x="61" y="46"/>
      <point x="152" y="-6"/>
      <point x="272" y="-6" type="curve" smooth="yes"/>
      <point x="342" y="-6"/>
      <point x="408" y="1"/>
      <point x="454" y="7" type="curve"/>
      <point x="454" y="43" type="line"/>
      <point x="287" y="43" type="line" smooth="yes"/>
      <point x="188" y="43"/>
      <point x="122" y="84"/>
      <point x="122" y="264" type="curve" smooth="yes"/>
      <point x="122" y="450"/>
      <point x="183" y="490"/>
      <point x="287" y="490" type="curve" smooth="yes"/>
      <point x="447" y="490" type="line"/>
      <point x="447" y="527" type="line"/>
      <point x="391" y="535"/>
      <point x="323" y="539"/>
      <point x="273" y="539" type="curve" smooth="yes"/>
      <point x="145" y="539"/>
      <point x="61" y="487"/>
    </contour>
    <contour>
      <point x="270" y="650" type="move" name="top"/>
    </contour>
    <contour>
      <point x="270" y="-150" type="move" name="bottom"/>
    </contour>
  </outline>
</glyph>
<glyph name="d" format="1">
  <advance width="572"/>
  <unicode hex="0064"/>
  <note>
    GF Latin Plus glyph
  </note>
  <outline>
    <contour>
      <point x="122" y="265" type="curve" smooth="yes"/>
      <point x="122" y="437"/>
      <point x="166" y="491"/>
      <point x="278" y="491" type="curve" smooth="yes"/>
      <point x="338" y="491"/>
      <point x="380" y="478"/>
      <point x="434" y="464" type="curve"/>
      <point x="434" y="94" type="line"/>
      <point x="390" y="71"/>
      <point x="336" y="45"/>
      <point x="269" y="45" type="curve" smooth="yes"/>
      <point x="164" y="45"/>
      <point x="122" y="109"/>
    </contour>
    <contour>
      <point x="61" y="263" type="curve" smooth="yes"/>
      <point x="61" y="80"/>
      <point x="120" y="-6"/>
      <point x="253" y="-6" type="curve" smooth="yes"/>
      <point x="316" y="-6"/>
      <point x="405" y="29"/>
      <point x="434" y="55" type="curve"/>
      <point x="447" y="0" type="line"/>
      <point x="495" y="0" type="line"/>
      <point x="495" y="763" type="line"/>
      <point x="434" y="763" type="line"/>
      <point x="434" y="507" type="line"/>
      <point x="389" y="522"/>
      <point x="325" y="539"/>
      <point x="263" y="539" type="curve" smooth="yes"/>
      <point x="118" y="539"/>
      <point x="61" y="461"/>
    </contour>
    <contour>
      <point x="515" y="650" type="move" name="altcaron"/>
    </contour>
    <contour>
      <point x="288" y="-150" type="move" name="bottom"/>
    </contour>
  </outline>
</glyph>
<glyph name="h" format="1">
  <advance width="586"/>
  <unicode hex="0068"/>
  <note>
    GF Latin Plus glyph
  </note>
  <outline>
    <contour>
      <point x="81" y="0" type="line"/>
      <point x="142" y="0" type="line"/>
      <point x="142" y="431" type="line"/>
      <point x="204" y="465"/>
      <point x="252" y="487"/>
      <point x="327" y="487" type="curve" smooth="yes"/>
      <point x="402" y="487"/>
      <point x="448" y="431"/>
      <point x="448" y="360" type="curve" smooth="yes"/>
      <point x="448" y="0" type="line"/>
      <point x="509" y="0" type="line"/>
      <point x="509" y="366" type="line" smooth="yes"/>
      <point x="509" y="461"/>
      <point x="455" y="542"/>
      <point x="344" y="542" type="curve" smooth="yes"/>
      <point x="268" y="542"/>
      <point x="194" y="509"/>
      <point x="142" y="473" type="curve"/>
      <point x="142" y="764" type="line"/>
      <point x="81" y="764" type="line"/>
    </contour>
    <contour>
      <point x="111" y="889" type="move" name="top"/>
    </contour>
  </outline>
</glyph>
<glyph name="i" format="1">
  <advance width="223"/>
  <unicode hex="0069"/>
  <note>
    GF Latin Plus glyph
  </note>
  <outline>
    <contour>
      <point x="76" y="647" type="line" smooth="yes"/>
      <point x="76" y="639"/>
      <point x="82" y="633"/>
      <point x="91" y="633" type="curve" smooth="yes"/>
      <point x="133" y="633" type="line" smooth="yes"/>
      <point x="141" y="633"/>
      <point x="146" y="638"/>
      <point x="146" y="647" type="curve" smooth="yes"/>
      <point x="146" y="720" type="line" smooth="yes"/>
      <point x="146" y="728"/>
      <point x="142" y="735"/>
      <point x="133" y="735" type="curve" smooth="yes"/>
      <point x="91" y="735" type="line" smooth="yes"/>
      <point x="81" y="735"/>
      <point x="76" y="729"/>
      <point x="76" y="720" type="curve" smooth="yes"/>
    </contour>
    <component base="dotlessi"/>
    <contour>
      <point x="132" y="0" type="move" name="ogonek"/>
    </contour>
    <contour>
      <point x="111" y="-150" type="move" name="bottom"/>
    </contour>
  </outline>
</glyph>
<glyph name="k" format="1">
  <advance width="494"/>
  <unicode hex="006B"/>
  <note>
    GF Latin Plus glyph
  </note>
  <outline>
    <contour>
      <point x="81" y="0" type="line"/>
      <point x="142" y="0" type="line"/>
      <point x="142" y="259" type="line"/>
      <point x="217" y="259" type="line"/>
      <point x="407" y="0" type="line"/>
      <point x="473" y="0" type="line"/>
      <point x="266" y="285" type="line"/>
      <point x="463" y="533" type="line"/>
      <point x="396" y="533" type="line"/>
      <point x="222" y="314" type="line"/>
      <point x="142" y="314" type="line"/>
      <point x="142" y="762" type="line"/>
      <point x="81" y="762" type="line"/>
    </contour>
    <contour>
      <point x="251" y="-150" type="move" name="bottom"/>
    </contour>
  </outline>
</glyph>
<glyph name="m" format="1">
  <advance width="953"/>
  <unicode hex="006D"/>
  <note>
    GF Latin Plus glyph
  </note>
  <outline>
    <contour>
      <point x="81" y="0" type="line"/>
      <point x="142" y="0" type="line"/>
      <point x="142" y="431" type="line"/>
      <point x="204" y="466"/>
      <point x="252" y="487"/>
      <point x="327" y="487" type="curve" smooth="yes"/>
      <point x="403" y="487"/>
      <point x="448" y="431"/>
      <point x="448" y="360" type="curve" smooth="yes"/>
      <point x="448" y="0" type="line"/>
      <point x="509" y="0" type="line"/>
      <point x="509" y="359" type="line" smooth="yes"/>
      <point x="509" y="382"/>
      <point x="504" y="403"/>
      <point x="496" y="423" type="curve"/>
      <point x="556" y="459"/>
      <point x="627" y="487"/>
      <point x="693" y="487" type="curve" smooth="yes"/>
      <point x="769" y="487"/>
      <point x="814" y="431"/>
      <point x="814" y="360" type="curve" smooth="yes"/>
      <point x="814" y="0" type="line"/>
      <point x="876" y="0" type="line"/>
      <point x="876" y="363" type="line" smooth="yes"/>
      <point x="876" y="461"/>
      <point x="822" y="542"/>
      <point x="709" y="542" type="curve" smooth="yes"/>
      <point x="632" y="542"/>
      <point x="537" y="499"/>
      <point x="488" y="462" type="curve"/>
      <point x="462" y="508"/>
      <point x="415" y="542"/>
      <point x="347" y="542" type="curve" smooth="yes"/>
      <point x="266" y="542"/>
      <point x="197" y="510"/>
      <point x="142" y="473" type="curve"/>
      <point x="127" y="533" type="line"/>
      <point x="81" y="533" type="line"/>
    </contour>
    <contour>
      <point x="480" y="650" type="move" name="top"/>
    </contour>
    <contour>
      <point x="476" y="-150" type="move" name="bottom"/>
    </contour>
  </outline>
</glyph>
<glyph name="n" format="1">
  <advance width="586"/>
  <unicode hex="006E"/>
  <note>
    GF Latin Plus glyph
  </note>
  <outline>
    <contour>
      <point x="82" y="0" type="line"/>
      <point x="140" y="0" type="line"/>
      <point x="140" y="433" type="line"/>
      <point x="203" y="468"/>
      <point x="251" y="489"/>
      <point x="327" y="489" type="curve" smooth="yes"/>
      <point x="404" y="489"/>
      <point x="450" y="433"/>
      <point x="450" y="360" type="curve" smooth="yes"/>
      <point x="450" y="0" type="line"/>
      <point x="508" y="0" type="line"/>
      <point x="508" y="366" type="line" smooth="yes"/>
      <point x="508" y="458"/>
      <point x="456" y="542"/>
      <point x="343" y="542" type="curve" smooth="yes"/>
      <point x="267" y="542"/>
      <point x="193" y="509"/>
      <point x="140" y="473" type="curve"/>
      <point x="125" y="533" type="line"/>
      <point x="82" y="533" type="line"/>
    </contour>
    <contour>
      <point x="292" y="650" type="move" name="top"/>
    </contour>
    <contour>
      <point x="292" y="-150" type="move" name="bottom"/>
    </contour>
  </outline>
</glyph>
<glyph name="r" format="1">
  <advance width="409"/>
  <unicode hex="0072"/>
  <note>
    GF Latin Plus glyph
  </note>
  <outline>
    <contour>
      <point x="82" y="0" type="line"/>
      <point x="140" y="0" type="line"/>
      <point x="140" y="392" type="line"/>
      <point x="202" y="450"/>
      <point x="249" y="480"/>
      <point x="327" y="480" type="curve" smooth="yes"/>
      <point x="348" y="480"/>
      <point x="367" y="477"/>
      <point x="384" y="474" type="curve"/>
      <point x="384" y="533" type="line"/>
      <point x="370" y="537"/>
      <point x="351" y="539"/>
      <point x="332" y="539" type="curve" smooth="yes"/>
      <point x="251" y="539"/>
      <point x="191" y="496"/>
      <point x="140" y="437" type="curve"/>
      <point x="125" y="533" type="line"/>
      <point x="82" y="533" type="line"/>
    </contour>
    <contour>
      <point x="206" y="650" type="move" name="top"/>
    </contour>
    <contour>
      <point x="111" y="-150" type="move" name="bottom"/>
    </contour>
  </outline>
</glyph>
<glyph name="s" format="1">
  <advance width="499"/>
  <unicode hex="0073"/>
  <note>
    GF Latin Plus glyph
  </note>
  <outline>
    <contour>
      <point x="53" y="367" type="line" smooth="yes"/>
      <point x="53" y="269"/>
      <point x="116" y="239"/>
      <point x="212" y="239" type="curve" smooth="yes"/>
      <point x="285" y="239" type="line" smooth="yes"/>
      <point x="358" y="239"/>
      <point x="391" y="208"/>
      <point x="391" y="156" type="curve" smooth="yes"/>
      <point x="391" y="131" type="line" smooth="yes"/>
      <point x="391" y="53"/>
      <point x="341" y="43"/>
      <point x="271" y="43" type="curve" smooth="yes"/>
      <point x="57" y="43" type="line"/>
      <point x="57" y="5" type="line"/>
      <point x="90" y="-1"/>
      <point x="213" y="-6"/>
      <point x="262" y="-6" type="curve" smooth="yes"/>
      <point x="368" y="-6"/>
      <point x="446" y="20"/>
      <point x="446" y="127" type="curve" smooth="yes"/>
      <point x="446" y="162" type="line" smooth="yes"/>
      <point x="446" y="246"/>
      <point x="388" y="291"/>
      <point x="294" y="291" type="curve" smooth="yes"/>
      <point x="221" y="291" type="line" smooth="yes"/>
      <point x="152" y="291"/>
      <point x="107" y="302"/>
      <point x="107" y="372" type="curve" smooth="yes"/>
      <point x="107" y="395" type="line" smooth="yes"/>
      <point x="107" y="468"/>
      <point x="149" y="488"/>
      <point x="224" y="488" type="curve" smooth="yes"/>
      <point x="426" y="488" type="line"/>
      <point x="426" y="526" type="line"/>
      <point x="381" y="533"/>
      <point x="286" y="538"/>
      <point x="233" y="538" type="curve" smooth="yes"/>
      <point x="109" y="538"/>
      <point x="53" y="494"/>
      <point x="53" y="395" type="curve" smooth="yes"/>
    </contour>
    <contour>
      <point x="238" y="650" type="move" name="top"/>
    </contour>
    <contour>
      <point x="238" y="-150" type="move" name="bottom"/>
    </contour>
  </outline>
</glyph>
<glyph name="t" format="1">
  <advance width="361"/>
  <unicode hex="0074"/>
  <note>
    GF Latin Plus glyph
  </note>
  <outline>
    <contour>
      <point x="23" y="484" type="line"/>
      <point x="108" y="484" type="line"/>
      <point x="105" y="167" type="line" smooth="yes"/>
      <point x="103" y="47"/>
      <point x="154" y="0"/>
      <point x="250" y="0" type="curve" smooth="yes"/>
      <point x="317" y="0" type="line"/>
      <point x="317" y="42" type="line"/>
      <point x="252" y="48" type="line" smooth="yes"/>
      <point x="215" y="51"/>
      <point x="163" y="65"/>
      <point x="163" y="167" type="curve" smooth="yes"/>
      <point x="163" y="484" type="line"/>
      <point x="325" y="484" type="line"/>
      <point x="325" y="533" type="line"/>
      <point x="163" y="533" type="line"/>
      <point x="163" y="682" type="line"/>
      <point x="119" y="682" type="line"/>
      <point x="108" y="533" type="line"/>
      <point x="23" y="522" type="line"/>
    </contour>
    <contour>
      <point x="183" y="650" type="move" name="altcaron"/>
    </contour>
    <contour>
      <point x="188" y="-150" type="move" name="bottom"/>
    </contour>
  </outline>
</glyph>
<glyph name="u" format="1">
  <advance width="586"/>
  <unicode hex="0075"/>
  <note>
    GF Latin Plus glyph
  </note>
  <outline>
    <contour>
      <point x="80" y="158" type="line" smooth="yes"/>
      <point x="80" y="43"/>
      <point x="138" y="-6"/>
      <point x="241" y="-6" type="curve" smooth="yes"/>
      <point x="319" y="-6"/>
      <point x="392" y="24"/>
      <point x="447" y="60" type="curve"/>
      <point x="462" y="0" type="line"/>
      <point x="508" y="0" type="line"/>
      <point x="508" y="533" type="line"/>
      <point x="447" y="533" type="line"/>
      <point x="447" y="102" type="line"/>
      <point x="386" y="67"/>
      <point x="336" y="49"/>
      <point x="267" y="49" type="curve" smooth="yes"/>
      <point x="186" y="49"/>
      <point x="141" y="75"/>
      <point x="141" y="172" type="curve" smooth="yes"/>
      <point x="141" y="533" type="line"/>
      <point x="80" y="533" type="line"/>
    </contour>
    <contour>
      <point x="284" y="650" type="move" name="top"/>
    </contour>
    <contour>
      <point x="498" y="0" type="move" name="ogonek"/>
    </contour>
    <contour>
      <point x="284" y="-150" type="move" name="bottom"/>
    </contour>
  </outline>
</glyph>
<glyph name="w" format="1">
  <advance width="790"/>
  <unicode hex="0077"/>
  <note>
    GF Latin Plus glyph
  </note>
  <outline>
    <contour>
      <point x="21" y="533" type="line"/>
      <point x="188" y="0" type="line"/>
      <point x="254" y="0" type="line"/>
      <point x="395" y="454" type="line"/>
      <point x="535" y="0" type="line"/>
      <point x="602" y="0" type="line"/>
      <point x="769" y="533" type="line"/>
      <point x="707" y="533" type="line"/>
      <point x="566" y="57" type="line"/>
      <point x="423" y="533" type="line"/>
      <point x="369" y="533" type="line"/>
      <point x="226" y="57" type="line"/>
      <point x="83" y="533" type="line"/>
    </contour>
    <contour>
      <point x="399" y="650" type="move" name="top"/>
    </contour>
    <contour>
      <point x="399" y="-150" type="move" name="bottom"/>
    </contour>
  </outline>
</glyph>
<glyph name="x" format="1">
  <advance width="497"/>
  <unicode hex="0078"/>
  <note>
    GF Latin Plus glyph
  </note>
  <outline>
    <contour>
      <point x="26" y="0" type="line"/>
      <point x="88" y="0" type="line"/>
      <point x="250" y="230" type="line"/>
      <point x="223" y="282" type="line"/>
    </contour>
    <contour>
      <point x="245" y="298" type="line"/>
      <point x="273" y="249" type="line"/>
      <point x="471" y="533" type="line"/>
      <point x="408" y="532" type="line"/>
    </contour>
    <contour>
      <point x="26" y="533" type="line"/>
      <point x="406" y="0" type="line"/>
      <point x="471" y="0" type="line"/>
      <point x="91" y="533" type="line"/>
    </contour>
  </outline>
</glyph>
<glyph name="z" format="1">
  <advance width="492"/>
  <unicode hex="007A"/>
  <note>
    GF Latin Plus glyph
  </note>
  <outline>
    <contour>
      <point x="46" y="482" type="line"/>
      <point x="374" y="482" type="line"/>
      <point x="53" y="47" type="line"/>
      <point x="53" y="0" type="line"/>
      <point x="446" y="0" type="line"/>
      <point x="446" y="51" type="line"/>
      <point x="123" y="51" type="line"/>
      <point x="446" y="485" type="line"/>
      <point x="446" y="533" type="line"/>
      <point x="46" y="533" type="line"/>
    </contour>
    <contour>
      <point x="234" y="650" type="move" name="top"/>
    </contour>
    <contour>
      <point x="234" y="-150" type="move" name="bottom"/>
    </contour>
  </outline>
</glyph>
<glyph name="braceleft" format="1">
  <advance width="308"/>
  <unicode hex="007B"/>
  <note>
    GF Latin Plus glyph
  </note>
  <outline>
    <contour>
      <point x="24" y="305" type="line"/>
      <point x="64" y="308"/>
      <point x="107" y="281"/>
      <point x="107" y="236" type="curve" smooth="yes"/>
      <point x="107" y="-38" type="line" smooth="yes"/>
      <point x="107" y="-125"/>
      <point x="129" y="-210"/>
      <point x="284" y="-210" type="curve"/>
      <point x="284" y="-162" type="line"/>
      <point x="202" y="-162"/>
      <point x="165" y="-128"/>
      <point x="165" y="-24" type="curve" smooth="yes"/>
      <point x="165" y="247" type="line" smooth="yes"/>
      <point x="165" y="292"/>
      <point x="128" y="327"/>
      <point x="81" y="334" type="curve"/>
      <point x="128" y="340"/>
      <point x="166" y="371"/>
      <point x="166" y="424" type="curve" smooth="yes"/>
      <point x="166" y="640" type="line" smooth="yes"/>
      <point x="166" y="756"/>
      <point x="205" y="792"/>
      <point x="284" y="792" type="curve"/>
      <point x="284" y="842" type="line"/>
      <point x="145" y="842"/>
      <point x="108" y="757"/>
      <point x="108" y="656" type="curve" smooth="yes"/>
      <point x="108" y="431" type="line" smooth="yes"/>
      <point x="108" y="377"/>
      <point x="57" y="365"/>
      <point x="24" y="362" type="curve"/>
    </contour>
  </outline>
</glyph>
<glyph name="braceright" format="1">
  <advance width="308"/>
  <unicode hex="007D"/>
  <note>
    GF Latin Plus glyph
  </note>
  <outline>
    <contour>
      <point x="24" y="-162" type="curve"/>
      <point x="24" y="-210" type="line"/>
      <point x="178" y="-210"/>
      <point x="201" y="-125"/>
      <point x="201" y="-38" type="curve" smooth="yes"/>
      <point x="201" y="236" type="line" smooth="yes"/>
      <point x="201" y="281"/>
      <point x="244" y="308"/>
      <point x="284" y="305" type="curve"/>
      <point x="284" y="362" type="line"/>
      <point x="251" y="365"/>
      <point x="200" y="377"/>
      <point x="200" y="431" type="curve" smooth="yes"/>
      <point x="200" y="656" type="line" smooth="yes"/>
      <point x="200" y="757"/>
      <point x="163" y="842"/>
      <point x="24" y="842" type="curve"/>
      <point x="24" y="792" type="line"/>
      <point x="103" y="792"/>
      <point x="142" y="756"/>
      <point x="142" y="640" type="curve" smooth="yes"/>
      <point x="142" y="424" type="line" smooth="yes"/>
      <point x="142" y="371"/>
      <point x="179" y="340"/>
      <point x="227" y="334" type="curve"/>
      <point x="179" y="327"/>
      <point x="143" y="292"/>
      <point x="143" y="247" type="curve" smooth="yes"/>
      <point x="143" y="-24" type="line" smooth="yes"/>
      <point x="143" y="-128"/>
      <point x="106" y="-162"/>
    </contour>
  </outline>
</glyph>
<glyph name="asciitilde" format="1">
  <advance width="458"/>
  <unicode hex="007E"/>
  <note>
    GF Latin Plus glyph
  </note>
  <outline>
    <contour>
      <point x="59" y="578" type="curve"/>
      <point x="68" y="557" type="line"/>
      <point x="103" y="582"/>
      <point x="130" y="604"/>
      <point x="166" y="604" type="curve" smooth="yes"/>
      <point x="198" y="604"/>
      <point x="247" y="539"/>
      <point x="292" y="539" type="curve" smooth="yes"/>
      <point x="336" y="539"/>
      <point x="369" y="570"/>
      <point x="399" y="603" type="curve"/>
      <point x="389" y="625" type="line"/>
      <point x="366" y="605"/>
      <point x="330" y="575"/>
      <point x="293" y="575" type="curve" smooth="yes"/>
      <point x="261" y="575"/>
      <point x="212" y="639"/>
      <point x="169" y="639" type="curve" smooth="yes"/>
      <point x="126" y="639"/>
      <point x="91" y="609"/>
    </contour>
  </outline>
</glyph>
<glyph name="cent" format="1">
  <advance width="487"/>
  <unicode hex="00A2"/>
  <note>
    GF Latin Plus glyph
  </note>
  <outline>
    <contour>
      <point x="47" y="266" type="curve" smooth="yes"/>
      <point x="47" y="37"/>
      <point x="134" y="-5"/>
      <point x="243" y="-5" type="curve"/>
      <point x="243" y="-85" type="line"/>
      <point x="281" y="-85" type="line"/>
      <point x="281" y="-4" type="line"/>
      <point x="338" y="-1"/>
      <point x="379" y="5"/>
      <point x="440" y="26" type="curve"/>
      <point x="440" y="63" type="line"/>
      <point x="386" y="52"/>
      <point x="339" y="44"/>
      <point x="259" y="44" type="curve" smooth="yes"/>
      <point x="164" y="44"/>
      <point x="108" y="79"/>
      <point x="108" y="262" type="curve" smooth="yes"/>
      <point x="108" y="455"/>
      <point x="160" y="487"/>
      <point x="254" y="487" type="curve" smooth="yes"/>
      <point x="333" y="487"/>
      <point x="390" y="481"/>
      <point x="433" y="472" type="curve"/>
      <point x="433" y="508" type="line"/>
      <point x="386" y="521"/>
      <point x="328" y="532"/>
      <point x="282" y="535" type="curve"/>
      <point x="282" y="622" type="line"/>
      <point x="244" y="622" type="line"/>
      <point x="244" y="536" type="line"/>
      <point x="128" y="536"/>
      <point x="47" y="496"/>
    </contour>
  </outline>
</glyph>
<glyph name="sterling" format="1">
  <advance width="609"/>
  <unicode hex="00A3"/>
  <note>
    GF Latin Plus glyph
  </note>
  <outline>
    <contour>
      <point x="65" y="0" type="line"/>
      <point x="540" y="0" type="line"/>
      <point x="540" y="55" type="line"/>
      <point x="239" y="55" type="line"/>
      <point x="239" y="338" type="line"/>
      <point x="462" y="344" type="line"/>
      <point x="462" y="379" type="line"/>
      <point x="239" y="385" type="line"/>
      <point x="239" y="528" type="line" smooth="yes"/>
      <point x="239" y="656"/>
      <point x="289" y="681"/>
      <point x="385" y="681" type="curve" smooth="yes"/>
      <point x="526" y="681" type="line"/>
      <point x="526" y="728" type="line"/>
      <point x="491" y="731"/>
      <point x="435" y="736"/>
      <point x="382" y="736" type="curve" smooth="yes"/>
      <point x="257" y="736"/>
      <point x="178" y="694"/>
      <point x="178" y="523" type="curve" smooth="yes"/>
      <point x="178" y="385" type="line"/>
      <point x="65" y="377" type="line"/>
      <point x="65" y="344" type="line"/>
      <point x="178" y="338" type="line"/>
      <point x="178" y="55" type="line"/>
      <point x="65" y="45" type="line"/>
    </contour>
  </outline>
</glyph>
<glyph name="currency" format="1">
  <advance width="609"/>
  <unicode hex="00A4"/>
  <note>
    GF Latin Plus glyph
  </note>
  <outline>
    <contour>
      <point x="304" y="518" type="curve" smooth="yes"/>
      <point x="215" y="518"/>
      <point x="143" y="445"/>
      <point x="143" y="356" type="curve" smooth="yes"/>
      <point x="143" y="268"/>
      <point x="215" y="194"/>
      <point x="304" y="194" type="curve" smooth="yes"/>
      <point x="393" y="194"/>
      <point x="466" y="268"/>
      <point x="466" y="356" type="curve" smooth="yes"/>
      <point x="466" y="445"/>
      <point x="393" y="518"/>
    </contour>
    <contour>
      <point x="215" y="476" type="line"/>
      <point x="111" y="580" type="line"/>
      <point x="80" y="549" type="line"/>
      <point x="184" y="445" type="line"/>
    </contour>
    <contour>
      <point x="422" y="443" type="line"/>
      <point x="528" y="549" type="line"/>
      <point x="497" y="580" type="line"/>
      <point x="391" y="474" type="line"/>
    </contour>
    <contour>
      <point x="528" y="163" type="line"/>
      <point x="422" y="269" type="line"/>
      <point x="391" y="238" type="line"/>
      <point x="497" y="132" type="line"/>
    </contour>
    <contour>
      <point x="111" y="132" type="line"/>
      <point x="219" y="240" type="line"/>
      <point x="188" y="271" type="line"/>
      <point x="80" y="163" type="line"/>
    </contour>
    <contour>
      <point x="304" y="478" type="curve" smooth="yes"/>
      <point x="371" y="478"/>
      <point x="426" y="423"/>
      <point x="426" y="356" type="curve" smooth="yes"/>
      <point x="426" y="290"/>
      <point x="371" y="234"/>
      <point x="304" y="234" type="curve" smooth="yes"/>
      <point x="238" y="234"/>
      <point x="184" y="290"/>
      <point x="184" y="356" type="curve" smooth="yes"/>
      <point x="184" y="423"/>
      <point x="238" y="478"/>
    </contour>
  </outline>
</glyph>
<glyph name="section" format="1">
  <advance width="553"/>
  <unicode hex="00A7"/>
  <note>
    GF Latin Plus glyph
  </note>
  <outline>
    <contour>
      <point x="124" y="357" type="curve" smooth="yes"/>
      <point x="124" y="411" type="line" smooth="yes"/>
      <point x="124" y="478"/>
      <point x="151" y="481"/>
      <point x="214" y="481" type="curve" smooth="yes"/>
      <point x="337" y="481" type="line" smooth="yes"/>
      <point x="413" y="481"/>
      <point x="430" y="468"/>
      <point x="430" y="413" type="curve" smooth="yes"/>
      <point x="430" y="358" type="line" smooth="yes"/>
      <point x="430" y="298"/>
      <point x="419" y="293"/>
      <point x="337" y="293" type="curve" smooth="yes"/>
      <point x="214" y="293" type="line" smooth="yes"/>
      <point x="148" y="293"/>
      <point x="124" y="294"/>
    </contour>
    <contour>
      <point x="65" y="346" type="line" smooth="yes"/>
      <point x="65" y="246"/>
      <point x="119" y="243"/>
      <point x="203" y="243" type="curve" smooth="yes"/>
      <point x="337" y="243" type="line" smooth="yes"/>
      <point x="418" y="243"/>
      <point x="428" y="231"/>
      <point x="428" y="182" type="curve" smooth="yes"/>
      <point x="428" y="122" type="line" smooth="yes"/>
      <point x="428" y="61"/>
      <point x="385" y="45"/>
      <point x="307" y="45" type="curve" smooth="yes"/>
      <point x="102" y="45" type="line"/>
      <point x="102" y="2" type="line"/>
      <point x="144" y="-3"/>
      <point x="265" y="-6"/>
      <point x="321" y="-6" type="curve" smooth="yes"/>
      <point x="399" y="-6"/>
      <point x="489" y="9"/>
      <point x="489" y="121" type="curve" smooth="yes"/>
      <point x="489" y="187" type="line" smooth="yes"/>
      <point x="489" y="221"/>
      <point x="485" y="267"/>
      <point x="433" y="278" type="curve"/>
      <point x="485" y="285"/>
      <point x="490" y="333"/>
      <point x="490" y="372" type="curve" smooth="yes"/>
      <point x="490" y="423" type="line" smooth="yes"/>
      <point x="490" y="501"/>
      <point x="461" y="530"/>
      <point x="348" y="530" type="curve" smooth="yes"/>
      <point x="215" y="530" type="line" smooth="yes"/>
      <point x="154" y="530"/>
      <point x="126" y="541"/>
      <point x="126" y="592" type="curve" smooth="yes"/>
      <point x="126" y="648" type="line" smooth="yes"/>
      <point x="126" y="697"/>
      <point x="150" y="733"/>
      <point x="232" y="733" type="curve" smooth="yes"/>
      <point x="452" y="733" type="line"/>
      <point x="452" y="775" type="line"/>
      <point x="411" y="781"/>
      <point x="276" y="784"/>
      <point x="221" y="784" type="curve" smooth="yes"/>
      <point x="136" y="784"/>
      <point x="65" y="749"/>
      <point x="65" y="651" type="curve" smooth="yes"/>
      <point x="65" y="590" type="line" smooth="yes"/>
      <point x="65" y="554"/>
      <point x="75" y="510"/>
      <point x="124" y="496" type="curve"/>
      <point x="72" y="484"/>
      <point x="65" y="443"/>
      <point x="65" y="402" type="curve" smooth="yes"/>
    </contour>
  </outline>
</glyph>
<glyph name="dieresis" format="1">
  <advance width="417"/>
  <unicode hex="00A8"/>
  <note>
    GF Latin Plus glyph
  </note>
  <outline>
    <contour>
      <point x="59" y="672" type="line" smooth="yes"/>
      <point x="59" y="663"/>
      <point x="65" y="657"/>
      <point x="74" y="657" type="curve" smooth="yes"/>
      <point x="102" y="657" type="line" smooth="yes"/>
      <point x="111" y="657"/>
      <point x="117" y="662"/>
      <point x="117" y="672" type="curve" smooth="yes"/>
      <point x="117" y="745" type="line" smooth="yes"/>
      <point x="117" y="753"/>
      <point x="112" y="759"/>
      <point x="102" y="759" type="curve" smooth="yes"/>
      <point x="74" y="759" type="line" smooth="yes"/>
      <point x="64" y="759"/>
      <point x="59" y="754"/>
      <point x="59" y="745" type="curve" smooth="yes"/>
    </contour>
    <contour>
      <point x="301" y="672" type="line" smooth="yes"/>
      <point x="301" y="663"/>
      <point x="307" y="657"/>
      <point x="315" y="657" type="curve" smooth="yes"/>
      <point x="344" y="657" type="line" smooth="yes"/>
      <point x="352" y="657"/>
      <point x="358" y="662"/>
      <point x="358" y="672" type="curve" smooth="yes"/>
      <point x="358" y="745" type="line" smooth="yes"/>
      <point x="358" y="753"/>
      <point x="353" y="759"/>
      <point x="344" y="759" type="curve" smooth="yes"/>
      <point x="315" y="759" type="line" smooth="yes"/>
      <point x="306" y="759"/>
      <point x="301" y="754"/>
      <point x="301" y="745" type="curve" smooth="yes"/>
    </contour>
  </outline>
</glyph>
<glyph name="copyright" format="1">
  <advance width="848"/>
  <unicode hex="00A9"/>
  <note>
    GF Latin Plus glyph
  </note>
  <outline>
    <contour>
      <point x="241" y="365" type="curve" smooth="yes"/>
      <point x="241" y="188"/>
      <point x="310" y="147"/>
      <point x="390" y="147" type="curve" smooth="yes"/>
      <point x="456" y="147"/>
      <point x="511" y="150"/>
      <point x="572" y="170" type="curve"/>
      <point x="572" y="197" type="line"/>
      <point x="527" y="187"/>
      <point x="466" y="181"/>
      <point x="398" y="181" type="curve" smooth="yes"/>
      <point x="311" y="181"/>
      <point x="277" y="244"/>
      <point x="277" y="362" type="curve" smooth="yes"/>
      <point x="277" y="499"/>
      <point x="323" y="549"/>
      <point x="399" y="549" type="curve" smooth="yes"/>
      <point x="431" y="549"/>
      <point x="504" y="546"/>
      <point x="566" y="537" type="curve"/>
      <point x="566" y="564" type="line"/>
      <point x="510" y="577"/>
      <point x="430" y="583"/>
      <point x="390" y="583" type="curve" smooth="yes"/>
      <point x="304" y="583"/>
      <point x="241" y="526"/>
    </contour>
    <contour>
      <point x="100" y="368" type="curve" smooth="yes"/>
      <point x="103" y="627"/>
      <point x="207" y="698"/>
      <point x="313" y="698" type="curve" smooth="yes"/>
      <point x="557" y="698" type="line" smooth="yes"/>
      <point x="704" y="698"/>
      <point x="748" y="543"/>
      <point x="748" y="368" type="curve" smooth="yes"/>
      <point x="748" y="143"/>
      <point x="663" y="34"/>
      <point x="555" y="34" type="curve" smooth="yes"/>
      <point x="313" y="34" type="line" smooth="yes"/>
      <point x="167" y="34"/>
      <point x="99" y="211"/>
    </contour>
    <contour>
      <point x="65" y="368" type="curve" smooth="yes"/>
      <point x="65" y="215"/>
      <point x="128" y="0"/>
      <point x="313" y="0" type="curve" smooth="yes"/>
      <point x="557" y="0" type="line" smooth="yes"/>
      <point x="708" y="0"/>
      <point x="784" y="161"/>
      <point x="784" y="368" type="curve" smooth="yes"/>
      <point x="784" y="512"/>
      <point x="755" y="732"/>
      <point x="557" y="732" type="curve" smooth="yes"/>
      <point x="313" y="732" type="line" smooth="yes"/>
      <point x="113" y="732"/>
      <point x="65" y="538"/>
    </contour>
  </outline>
</glyph>
<glyph name="twosuperior" format="1">
  <advance width="456"/>
  <unicode hex="00B2"/>
  <note>
    GF Latin Plus glyph
  </note>
  <outline>
    <contour>
      <point x="70" y="774" type="line"/>
      <point x="217" y="774" type="line" smooth="yes"/>
      <point x="315" y="774"/>
      <point x="339" y="734"/>
      <point x="339" y="682" type="curve" smooth="yes"/>
      <point x="339" y="620"/>
      <point x="316" y="576"/>
      <point x="253" y="517" type="curve" smooth="yes"/>
      <point x="50" y="324" type="line"/>
      <point x="50" y="280" type="line"/>
      <point x="415" y="280" type="line"/>
      <point x="415" y="329" type="line"/>
      <point x="124" y="329" type="line"/>
      <point x="293" y="488" type="line" smooth="yes"/>
      <point x="367" y="560"/>
      <point x="394" y="611"/>
      <point x="394" y="687" type="curve" smooth="yes"/>
      <point x="394" y="768"/>
      <point x="355" y="824"/>
      <point x="229" y="824" type="curve" smooth="yes"/>
      <point x="171" y="824"/>
      <point x="115" y="819"/>
      <point x="70" y="815" type="curve"/>
    </contour>
  </outline>
</glyph>
<glyph name="threesuperior" format="1">
  <advance width="456"/>
  <unicode hex="00B3"/>
  <note>
    GF Latin Plus glyph
  </note>
  <outline>
    <contour>
      <point x="62" y="777" type="line"/>
      <point x="219" y="777" type="line" smooth="yes"/>
      <point x="295" y="777"/>
      <point x="332" y="745"/>
      <point x="332" y="690" type="curve" smooth="yes"/>
      <point x="332" y="650" type="line" smooth="yes"/>
      <point x="332" y="598"/>
      <point x="294" y="579"/>
      <point x="239" y="576" type="curve" smooth="yes"/>
      <point x="98" y="571" type="line"/>
      <point x="98" y="534" type="line"/>
      <point x="241" y="529" type="line" smooth="yes"/>
      <point x="288" y="527"/>
      <point x="340" y="509"/>
      <point x="340" y="448" type="curve" smooth="yes"/>
      <point x="340" y="410" type="line" smooth="yes"/>
      <point x="340" y="340"/>
      <point x="288" y="323"/>
      <point x="224" y="323" type="curve" smooth="yes"/>
      <point x="42" y="323" type="line"/>
      <point x="42" y="284" type="line"/>
      <point x="91" y="278"/>
      <point x="161" y="276"/>
      <point x="240" y="276" type="curve" smooth="yes"/>
      <point x="336" y="276"/>
      <point x="393" y="320"/>
      <point x="393" y="402" type="curve" smooth="yes"/>
      <point x="393" y="442" type="line" smooth="yes"/>
      <point x="393" y="515"/>
      <point x="334" y="546"/>
      <point x="302" y="553" type="curve"/>
      <point x="331" y="558"/>
      <point x="383" y="582"/>
      <point x="383" y="652" type="curve" smooth="yes"/>
      <point x="383" y="698" type="line" smooth="yes"/>
      <point x="383" y="773"/>
      <point x="337" y="824"/>
      <point x="239" y="824" type="curve" smooth="yes"/>
      <point x="164" y="824"/>
      <point x="105" y="821"/>
      <point x="62" y="815" type="curve"/>
    </contour>
  </outline>
</glyph>
<glyph name="paragraph" format="1">
  <advance width="572"/>
  <unicode hex="00B6"/>
  <note>
    GF Latin Plus glyph
  </note>
  <outline>
    <contour>
      <point x="85" y="470" type="curve" smooth="yes"/>
      <point x="85" y="585" type="line" smooth="yes"/>
      <point x="85" y="646"/>
      <point x="125" y="689"/>
      <point x="205" y="689" type="curve" smooth="yes"/>
      <point x="280" y="689" type="line"/>
      <point x="280" y="358" type="line"/>
      <point x="205" y="358" type="line" smooth="yes"/>
      <point x="176" y="358"/>
      <point x="85" y="369"/>
    </contour>
    <contour>
      <point x="39" y="464" type="line" smooth="yes"/>
      <point x="39" y="382"/>
      <point x="92" y="312"/>
      <point x="200" y="312" type="curve"/>
      <point x="243" y="311"/>
      <point x="270" y="317"/>
      <point x="280" y="324" type="curve"/>
      <point x="280" y="-270" type="line"/>
      <point x="326" y="-270" type="line"/>
      <point x="326" y="689" type="line"/>
      <point x="427" y="689" type="line"/>
      <point x="427" y="0" type="line"/>
      <point x="473" y="0" type="line"/>
      <point x="473" y="687" type="line"/>
      <point x="554" y="687" type="line"/>
      <point x="554" y="734" type="line"/>
      <point x="203" y="734" type="line" smooth="yes"/>
      <point x="118" y="734"/>
      <point x="39" y="689"/>
      <point x="39" y="594" type="curve" smooth="yes"/>
    </contour>
  </outline>
</glyph>
<glyph name="periodcentered" format="1">
  <advance width="263"/>
  <unicode hex="00B7"/>
  <note>
    GF Latin Plus glyph
  </note>
  <outline>
    <contour>
      <point x="102" y="358" type="line" smooth="yes"/>
      <point x="102" y="350"/>
      <point x="108" y="344"/>
      <point x="116" y="344" type="curve" smooth="yes"/>
      <point x="147" y="344" type="line" smooth="yes"/>
      <point x="156" y="344"/>
      <point x="162" y="348"/>
      <point x="162" y="358" type="curve" smooth="yes"/>
      <point x="162" y="391" type="line" smooth="yes"/>
      <point x="162" y="400"/>
      <point x="157" y="406"/>
      <point x="147" y="406" type="curve" smooth="yes"/>
      <point x="116" y="406" type="line" smooth="yes"/>
      <point x="106" y="406"/>
      <point x="102" y="401"/>
      <point x="102" y="391" type="curve" smooth="yes"/>
    </contour>
  </outline>
</glyph>
<glyph name="cedilla" format="1">
  <advance width="261"/>
  <unicode hex="00B8"/>
  <note>
    GF Latin Plus glyph
  </note>
  <outline>
    <contour>
      <point x="59" y="-162" type="line"/>
      <point x="59" y="-187" type="line"/>
      <point x="88" y="-187" type="line" smooth="yes"/>
      <point x="148" y="-187"/>
      <point x="181" y="-162"/>
      <point x="181" y="-119" type="curve" smooth="yes"/>
      <point x="181" y="-78"/>
      <point x="156" y="-56"/>
      <point x="98" y="-56" type="curve"/>
      <point x="70" y="-67" type="line"/>
      <point x="130" y="-68"/>
      <point x="142" y="-89"/>
      <point x="142" y="-112" type="curve" smooth="yes"/>
      <point x="142" y="-143"/>
      <point x="121" y="-157"/>
      <point x="83" y="-160" type="curve" smooth="yes"/>
    </contour>
    <contour>
      <point x="152" y="12" type="line"/>
      <point x="123" y="12" type="line"/>
      <point x="70" y="-67" type="line"/>
      <point x="100" y="-67" type="line"/>
    </contour>
  </outline>
</glyph>
<glyph name="onesuperior" format="1">
  <advance width="456"/>
  <unicode hex="00B9"/>
  <note>
    GF Latin Plus glyph
  </note>
  <outline>
    <contour>
      <point x="71" y="280" type="line"/>
      <point x="401" y="280" type="line"/>
      <point x="401" y="328" type="line"/>
      <point x="71" y="328" type="line"/>
    </contour>
    <contour>
      <point x="79" y="738" type="line"/>
      <point x="209" y="772" type="line"/>
      <point x="209" y="280" type="line"/>
      <point x="263" y="280" type="line"/>
      <point x="263" y="826" type="line"/>
      <point x="214" y="826" type="line"/>
      <point x="79" y="776" type="line"/>
    </contour>
  </outline>
</glyph>
<glyph name="Eth" format="1">
  <advance width="666"/>
  <unicode hex="00D0"/>
  <note>
    GF Latin Plus glyph
  </note>
  <outline>
    <contour>
      <point x="16" y="351" type="line"/>
      <point x="324" y="351" type="line"/>
      <point x="324" y="393" type="line"/>
      <point x="16" y="393" type="line"/>
    </contour>
    <component base="D"/>
  </outline>
</glyph>
<glyph name="multiply" format="1">
  <advance width="609"/>
  <unicode hex="00D7"/>
  <note>
    GF Latin Plus glyph
  </note>
  <outline>
    <contour>
      <point x="163" y="180" type="line"/>
      <point x="480" y="497" type="line"/>
      <point x="445" y="532" type="line"/>
      <point x="128" y="215" type="line"/>
    </contour>
    <contour>
      <point x="480" y="215" type="line"/>
      <point x="163" y="532" type="line"/>
      <point x="128" y="497" type="line"/>
      <point x="445" y="180" type="line"/>
    </contour>
  </outline>
</glyph>
<glyph name="Thorn" format="1">
  <advance width="553"/>
  <unicode hex="00DE"/>
  <note>
    GF Latin Plus glyph
  </note>
  <outline>
    <contour>
      <point x="81" y="0" type="line"/>
      <point x="139" y="0" type="line"/>
      <point x="139" y="174" type="line"/>
      <point x="173" y="172"/>
      <point x="283" y="165"/>
      <point x="316" y="165" type="curve" smooth="yes"/>
      <point x="397" y="165"/>
      <point x="507" y="199"/>
      <point x="507" y="383" type="curve" smooth="yes"/>
      <point x="507" y="564"/>
      <point x="405" y="595"/>
      <point x="321" y="595" type="curve" smooth="yes"/>
      <point x="139" y="595" type="line"/>
      <point x="139" y="734" type="line"/>
      <point x="81" y="734" type="line"/>
    </contour>
    <contour>
      <point x="139" y="218" type="line"/>
      <point x="139" y="542" type="line"/>
      <point x="317" y="542" type="line" smooth="yes"/>
      <point x="386" y="542"/>
      <point x="449" y="512"/>
      <point x="449" y="383" type="curve" smooth="yes"/>
      <point x="449" y="252"/>
      <point x="385" y="218"/>
      <point x="309" y="218" type="curve" smooth="yes"/>
    </contour>
  </outline>
</glyph>
<glyph name="ae" format="1">
  <advance width="889"/>
  <unicode hex="00E6"/>
  <note>
    GF Latin Plus glyph
  </note>
  <outline>
    <contour>
      <point x="466" y="297" type="line"/>
      <point x="467" y="456"/>
      <point x="500" y="491"/>
      <point x="618" y="491" type="curve" smooth="yes"/>
      <point x="732" y="491"/>
      <point x="769" y="456"/>
      <point x="769" y="366" type="curve" smooth="yes"/>
      <point x="769" y="305"/>
      <point x="729" y="297"/>
      <point x="674" y="297" type="curve" smooth="yes"/>
    </contour>
    <contour>
      <point x="110" y="139" type="curve" smooth="yes"/>
      <point x="110" y="162" type="line" smooth="yes"/>
      <point x="110" y="214"/>
      <point x="138" y="257"/>
      <point x="218" y="258" type="curve" smooth="yes"/>
      <point x="405" y="261" type="line"/>
      <point x="406" y="204"/>
      <point x="414" y="163"/>
      <point x="419" y="141" type="curve"/>
      <point x="360" y="78"/>
      <point x="281" y="42"/>
      <point x="205" y="42" type="curve" smooth="yes"/>
      <point x="155" y="42"/>
      <point x="110" y="65"/>
    </contour>
    <contour>
      <point x="49" y="131" type="line" smooth="yes"/>
      <point x="49" y="47"/>
      <point x="95" y="-6"/>
      <point x="184" y="-6" type="curve" smooth="yes"/>
      <point x="286" y="-6"/>
      <point x="378" y="48"/>
      <point x="432" y="108" type="curve"/>
      <point x="460" y="52"/>
      <point x="509" y="-6"/>
      <point x="623" y="-6" type="curve" smooth="yes"/>
      <point x="680" y="-6"/>
      <point x="751" y="-3"/>
      <point x="812" y="5" type="curve"/>
      <point x="812" y="43" type="line"/>
      <point x="645" y="43" type="line" smooth="yes"/>
      <point x="543" y="43"/>
      <point x="465" y="80"/>
      <point x="466" y="254" type="curve"/>
      <point x="675" y="254" type="line" smooth="yes"/>
      <point x="771" y="254"/>
      <point x="826" y="277"/>
      <point x="826" y="365" type="curve" smooth="yes"/>
      <point x="826" y="499"/>
      <point x="758" y="539"/>
      <point x="621" y="539" type="curve" smooth="yes"/>
      <point x="533" y="539"/>
      <point x="468" y="517"/>
      <point x="442" y="443" type="curve"/>
      <point x="420" y="512"/>
      <point x="352" y="543"/>
      <point x="274" y="542" type="curve" smooth="yes"/>
      <point x="188" y="541"/>
      <point x="143" y="536"/>
      <point x="95" y="529" type="curve"/>
      <point x="95" y="492" type="line"/>
      <point x="269" y="492" type="line" smooth="yes"/>
      <point x="374" y="492"/>
      <point x="406" y="441"/>
      <point x="406" y="378" type="curve" smooth="yes"/>
      <point x="406" y="298" type="line"/>
      <point x="209" y="298" type="line" smooth="yes"/>
      <point x="105" y="298"/>
      <point x="49" y="245"/>
      <point x="49" y="161" type="curve" smooth="yes"/>
    </contour>
    <contour>
      <point x="442" y="650" type="move" name="top"/>
    </contour>
  </outline>
</glyph>
<glyph name="eth" format="1">
  <advance width="577"/>
  <unicode hex="00F0"/>
  <note>
    GF Latin Plus glyph
  </note>
  <outline>
    <contour>
      <point x="62" y="265" type="curve" smooth="yes"/>
      <point x="62" y="42"/>
      <point x="140" y="-6"/>
      <point x="288" y="-6" type="curve" smooth="yes"/>
      <point x="437" y="-6"/>
      <point x="515" y="42"/>
      <point x="515" y="267" type="curve" smooth="yes"/>
      <point x="515" y="340"/>
      <point x="488" y="383"/>
      <point x="467" y="425" type="curve"/>
      <point x="438" y="512"/>
      <point x="376" y="535"/>
      <point x="282" y="535" type="curve" smooth="yes"/>
      <point x="144" y="535"/>
      <point x="62" y="491"/>
    </contour>
    <contour>
      <point x="120" y="265" type="curve" smooth="yes"/>
      <point x="120" y="462"/>
      <point x="179" y="487"/>
      <point x="288" y="487" type="curve" smooth="yes"/>
      <point x="396" y="487"/>
      <point x="457" y="462"/>
      <point x="457" y="265" type="curve" smooth="yes"/>
      <point x="457" y="68"/>
      <point x="396" y="43"/>
      <point x="288" y="43" type="curve" smooth="yes"/>
      <point x="179" y="43"/>
      <point x="120" y="68"/>
    </contour>
    <contour>
      <point x="154" y="729" type="line"/>
      <point x="344" y="710"/>
      <point x="463" y="614"/>
      <point x="463" y="280" type="curve"/>
      <point x="515" y="266" type="line"/>
      <point x="515" y="636"/>
      <point x="376" y="749"/>
      <point x="154" y="768" type="curve"/>
    </contour>
    <contour>
      <point x="192" y="591" type="line"/>
      <point x="516" y="718" type="line"/>
      <point x="507" y="742" type="line"/>
      <point x="183" y="615" type="line"/>
    </contour>
  </outline>
</glyph>
<glyph name="divide" format="1">
  <advance width="609"/>
  <unicode hex="00F7"/>
  <note>
    GF Latin Plus glyph
  </note>
  <outline>
    <contour>
      <point x="263" y="532" type="line" smooth="yes"/>
      <point x="263" y="518"/>
      <point x="273" y="509"/>
      <point x="287" y="509" type="curve" smooth="yes"/>
      <point x="321" y="509" type="line" smooth="yes"/>
      <point x="335" y="509"/>
      <point x="346" y="514"/>
      <point x="346" y="532" type="curve" smooth="yes"/>
      <point x="346" y="574" type="line" smooth="yes"/>
      <point x="346" y="590"/>
      <point x="339" y="599"/>
      <point x="321" y="599" type="curve" smooth="yes"/>
      <point x="287" y="599" type="line" smooth="yes"/>
      <point x="271" y="599"/>
      <point x="263" y="589"/>
      <point x="263" y="574" type="curve" smooth="yes"/>
    </contour>
    <contour>
      <point x="263" y="136" type="line" smooth="yes"/>
      <point x="263" y="122"/>
      <point x="273" y="113"/>
      <point x="287" y="113" type="curve" smooth="yes"/>
      <point x="321" y="113" type="line" smooth="yes"/>
      <point x="335" y="113"/>
      <point x="346" y="118"/>
      <point x="346" y="136" type="curve" smooth="yes"/>
      <point x="346" y="178" type="line" smooth="yes"/>
      <point x="346" y="194"/>
      <point x="339" y="203"/>
      <point x="321" y="203" type="curve" smooth="yes"/>
      <point x="287" y="203" type="line" smooth="yes"/>
      <point x="271" y="203"/>
      <point x="263" y="193"/>
      <point x="263" y="178" type="curve" smooth="yes"/>
    </contour>
    <component base="minus"/>
  </outline>
</glyph>
<glyph name="oslash" format="1">
  <advance width="577"/>
  <unicode hex="00F8"/>
  <note>
    GF Latin Plus glyph
  </note>
  <outline>
    <contour>
      <point x="484" y="533" type="line"/>
      <point x="58" y="0" type="line"/>
      <point x="94" y="0" type="line"/>
      <point x="520" y="533" type="line"/>
    </contour>
    <component base="o"/>
    <contour>
      <point x="288" y="650" type="move" name="top"/>
    </contour>
  </outline>
</glyph>
<glyph name="thorn" format="1">
  <advance width="576"/>
  <unicode hex="00FE"/>
  <note>
    GF Latin Plus glyph
  </note>
  <outline>
    <contour>
      <point x="140" y="92" type="curve"/>
      <point x="140" y="441" type="line"/>
      <point x="185" y="464"/>
      <point x="240" y="491"/>
      <point x="309" y="491" type="curve" smooth="yes"/>
      <point x="385" y="491"/>
      <point x="456" y="427"/>
      <point x="456" y="266" type="curve" smooth="yes"/>
      <point x="456" y="99"/>
      <point x="394" y="43"/>
      <point x="309" y="43" type="curve" smooth="yes"/>
      <point x="251" y="43"/>
      <point x="192" y="63"/>
    </contour>
    <contour>
      <point x="82" y="-237" type="line"/>
      <point x="140" y="-237" type="line"/>
      <point x="140" y="49" type="line"/>
      <point x="194" y="17"/>
      <point x="261" y="-6"/>
      <point x="322" y="-6" type="curve" smooth="yes"/>
      <point x="449" y="-6"/>
      <point x="514" y="86"/>
      <point x="514" y="268" type="curve" smooth="yes"/>
      <point x="514" y="404"/>
      <point x="462" y="539"/>
      <point x="322" y="539" type="curve" smooth="yes"/>
      <point x="256" y="539"/>
      <point x="175" y="501"/>
      <point x="140" y="477" type="curve"/>
      <point x="140" y="763" type="line"/>
      <point x="82" y="763" type="line"/>
    </contour>
  </outline>
</glyph>
<glyph name="Eng" format="1">
  <advance width="675"/>
  <unicode hex="014A"/>
  <note>
    GF Latin Plus glyph
  </note>
  <outline>
    <contour>
      <point x="326" y="-220" type="line"/>
      <point x="354" y="-232"/>
      <point x="400" y="-243"/>
      <point x="437" y="-243" type="curve" smooth="yes"/>
      <point x="552" y="-243"/>
      <point x="612" y="-202"/>
      <point x="612" y="-81" type="curve" smooth="yes"/>
      <point x="612" y="34" type="line"/>
      <point x="550" y="34" type="line"/>
      <point x="550" y="-75" type="line" smooth="yes"/>
      <point x="550" y="-167"/>
      <point x="501" y="-188"/>
      <point x="429" y="-188" type="curve" smooth="yes"/>
      <point x="404" y="-188"/>
      <point x="348" y="-180"/>
      <point x="326" y="-173" type="curve"/>
    </contour>
    <component base="N"/>
  </outline>
</glyph>
<glyph name="oe" format="1">
  <advance width="932"/>
  <unicode hex="0153"/>
  <note>
    GF Latin Plus glyph
  </note>
  <outline>
    <contour>
      <point x="512" y="282" type="line"/>
      <point x="512" y="428"/>
      <point x="546" y="492"/>
      <point x="663" y="492" type="curve" smooth="yes"/>
      <point x="765" y="492"/>
      <point x="815" y="474"/>
      <point x="815" y="365" type="curve" smooth="yes"/>
      <point x="815" y="297"/>
      <point x="776" y="282"/>
      <point x="720" y="282" type="curve" smooth="yes"/>
    </contour>
    <contour>
      <point x="461" y="268" type="curve" smooth="yes"/>
      <point x="461" y="67"/>
      <point x="528" y="-6"/>
      <point x="666" y="-6" type="curve" smooth="yes"/>
      <point x="740" y="-6"/>
      <point x="798" y="-1"/>
      <point x="859" y="5" type="curve"/>
      <point x="859" y="43" type="line"/>
      <point x="681" y="43" type="line" smooth="yes"/>
      <point x="563" y="43"/>
      <point x="513" y="100"/>
      <point x="512" y="241" type="curve"/>
      <point x="730" y="241" type="line" smooth="yes"/>
      <point x="814" y="241"/>
      <point x="871" y="275"/>
      <point x="871" y="360" type="curve" smooth="yes"/>
      <point x="871" y="510"/>
      <point x="795" y="539"/>
      <point x="663" y="539" type="curve" smooth="yes"/>
      <point x="514" y="539"/>
      <point x="461" y="460"/>
    </contour>
    <contour>
      <point x="122" y="267" type="curve" smooth="yes"/>
      <point x="122" y="466"/>
      <point x="181" y="491"/>
      <point x="288" y="491" type="curve" smooth="yes"/>
      <point x="395" y="491"/>
      <point x="455" y="466"/>
      <point x="455" y="267" type="curve" smooth="yes"/>
      <point x="455" y="69"/>
      <point x="395" y="43"/>
      <point x="288" y="43" type="curve" smooth="yes"/>
      <point x="181" y="43"/>
      <point x="122" y="69"/>
    </contour>
    <contour>
      <point x="61" y="267" type="curve" smooth="yes"/>
      <point x="61" y="44"/>
      <point x="138" y="-6"/>
      <point x="285" y="-6" type="curve" smooth="yes"/>
      <point x="430" y="-6"/>
      <point x="506" y="42"/>
      <point x="506" y="267" type="curve" smooth="yes"/>
      <point x="506" y="493"/>
      <point x="430" y="539"/>
      <point x="288" y="539" type="curve" smooth="yes"/>
      <point x="139" y="539"/>
      <point x="61" y="494"/>
    </contour>
  </outline>
</glyph>
<glyph name="Schwa" format="1">
  <advance width="606"/>
  <unicode hex="018F"/>
  <note>
    GF Latin Plus glyph
  </note>
  <outline>
    <contour>
      <point x="300" y="-6" type="curve" smooth="yes"/>
      <point x="448" y="-6"/>
      <point x="543" y="68"/>
      <point x="543" y="370" type="curve" smooth="yes"/>
      <point x="543" y="682"/>
      <point x="459" y="740"/>
      <point x="270" y="740" type="curve" smooth="yes"/>
      <point x="195" y="740"/>
      <point x="137" y="729"/>
      <point x="94" y="718" type="curve"/>
      <point x="94" y="675" type="line"/>
      <point x="124" y="679"/>
      <point x="171" y="688"/>
      <point x="249" y="688" type="curve" smooth="yes"/>
      <point x="432" y="688"/>
      <point x="483" y="633"/>
      <point x="484" y="380" type="curve"/>
      <point x="67" y="380" type="line"/>
      <point x="67" y="334" type="line" smooth="yes"/>
      <point x="67" y="86"/>
      <point x="138" y="-6"/>
    </contour>
    <contour>
      <point x="297" y="46" type="curve" smooth="yes"/>
      <point x="165" y="46"/>
      <point x="126" y="125"/>
      <point x="125" y="332" type="curve"/>
      <point x="483" y="332" type="line"/>
      <point x="480" y="101"/>
      <point x="415" y="46"/>
    </contour>
  </outline>
</glyph>
<glyph name="florin" format="1">
  <advance width="609"/>
  <unicode hex="0192"/>
  <note>
    GF Latin Plus glyph
  </note>
  <outline>
    <contour>
      <point x="23" y="-194" type="line"/>
      <point x="42" y="-199"/>
      <point x="76" y="-204"/>
      <point x="108" y="-204" type="curve" smooth="yes"/>
      <point x="220" y="-204"/>
      <point x="264" y="-121"/>
      <point x="298" y="88" type="curve" smooth="yes"/>
      <point x="349" y="409" type="line"/>
      <point x="482" y="409" type="line"/>
      <point x="489" y="455" type="line"/>
      <point x="355" y="455" type="line"/>
      <point x="374" y="565" type="line" smooth="yes"/>
      <point x="396" y="700"/>
      <point x="421" y="750"/>
      <point x="500" y="750" type="curve" smooth="yes"/>
      <point x="570" y="750" type="line"/>
      <point x="576" y="788" type="line"/>
      <point x="563" y="792"/>
      <point x="535" y="798"/>
      <point x="485" y="798" type="curve" smooth="yes"/>
      <point x="378" y="798"/>
      <point x="341" y="734"/>
      <point x="314" y="573" type="curve" smooth="yes"/>
      <point x="294" y="456" type="line"/>
      <point x="198" y="456" type="line"/>
      <point x="191" y="409" type="line"/>
      <point x="288" y="409" type="line"/>
      <point x="235" y="77" type="line" smooth="yes"/>
      <point x="206" y="-102"/>
      <point x="171" y="-155"/>
      <point x="97" y="-155" type="curve" smooth="yes"/>
      <point x="30" y="-155" type="line"/>
    </contour>
  </outline>
</glyph>
<glyph name="Ohorn" format="1">
  <advance width="682"/>
  <unicode hex="01A0"/>
  <note>
    GF Latin Plus glyph
  </note>
  <outline>
    <contour>
      <point x="379" y="701" type="line"/>
      <point x="513" y="701" type="line" smooth="yes"/>
      <point x="574" y="701"/>
      <point x="631" y="735"/>
      <point x="631" y="849" type="curve"/>
      <point x="587" y="849" type="line"/>
      <point x="587" y="763"/>
      <point x="553" y="734"/>
      <point x="506" y="734" type="curve" smooth="yes"/>
      <point x="379" y="734" type="line"/>
    </contour>
    <component base="O"/>
  </outline>
</glyph>
<glyph name="Uhorn" format="1">
  <advance width="673"/>
  <unicode hex="01AF"/>
  <note>
    GF Latin Plus glyph
  </note>
  <outline>
    <contour>
      <point x="549" y="699" type="line"/>
      <point x="583" y="699" type="line" smooth="yes"/>
      <point x="644" y="699"/>
      <point x="701" y="735"/>
      <point x="701" y="849" type="curve"/>
      <point x="655" y="849" type="line"/>
      <point x="655" y="763"/>
      <point x="622" y="734"/>
      <point x="575" y="734" type="curve" smooth="yes"/>
      <point x="549" y="734" type="line"/>
    </contour>
    <component base="U"/>
  </outline>
</glyph>
<glyph name="uhorn" format="1">
  <advance width="586"/>
  <unicode hex="01B0"/>
  <note>
    GF Latin Plus glyph
  </note>
  <outline>
    <contour>
      <point x="460" y="498" type="line"/>
      <point x="487" y="498" type="line" smooth="yes"/>
      <point x="548" y="498"/>
      <point x="605" y="533"/>
      <point x="605" y="647" type="curve"/>
      <point x="559" y="647" type="line"/>
      <point x="559" y="561"/>
      <point x="526" y="533"/>
      <point x="479" y="533" type="curve" smooth="yes"/>
      <point x="460" y="533" type="line"/>
    </contour>
    <component base="u"/>
  </outline>
</glyph>
<glyph name="breve" format="1">
  <advance width="360"/>
  <unicode hex="02D8"/>
  <note>
    GF Latin Plus glyph
  </note>
  <outline>
    <contour>
      <point x="52" y="769" type="line"/>
      <point x="52" y="664"/>
      <point x="113" y="630"/>
      <point x="180" y="630" type="curve" smooth="yes"/>
      <point x="247" y="630"/>
      <point x="310" y="661"/>
      <point x="310" y="769" type="curve"/>
      <point x="281" y="769" type="line"/>
      <point x="281" y="687"/>
      <point x="238" y="660"/>
      <point x="180" y="659" type="curve" smooth="yes"/>
      <point x="127" y="658"/>
      <point x="81" y="688"/>
      <point x="81" y="769" type="curve"/>
    </contour>
  </outline>
</glyph>
<glyph name="dotaccent" format="1">
  <advance width="175"/>
  <unicode hex="02D9"/>
  <note>
    GF Latin Plus glyph
  </note>
  <outline>
    <contour>
      <point x="55" y="672" type="line" smooth="yes"/>
      <point x="55" y="663"/>
      <point x="61" y="657"/>
      <point x="69" y="657" type="curve" smooth="yes"/>
      <point x="97" y="657" type="line" smooth="yes"/>
      <point x="106" y="657"/>
      <point x="112" y="662"/>
      <point x="112" y="672" type="curve" smooth="yes"/>
      <point x="112" y="745" type="line" smooth="yes"/>
      <point x="112" y="753"/>
      <point x="107" y="759"/>
      <point x="97" y="759" type="curve" smooth="yes"/>
      <point x="69" y="759" type="line" smooth="yes"/>
      <point x="59" y="759"/>
      <point x="55" y="754"/>
      <point x="55" y="745" type="curve" smooth="yes"/>
    </contour>
  </outline>
</glyph>
<glyph name="ogonek" format="1">
  <advance width="245"/>
  <unicode hex="02DB"/>
  <note>
    GF Latin Plus glyph
  </note>
  <outline>
    <contour>
      <point x="134" y="0" type="line"/>
      <point x="80" y="-25"/>
      <point x="57" y="-60"/>
      <point x="57" y="-97" type="curve" smooth="yes"/>
      <point x="57" y="-148"/>
      <point x="97" y="-185"/>
      <point x="162" y="-185" type="curve" smooth="yes"/>
      <point x="170" y="-185"/>
      <point x="179" y="-185"/>
      <point x="186" y="-183" type="curve"/>
      <point x="186" y="-153" type="line"/>
      <point x="180" y="-153" type="line" smooth="yes"/>
      <point x="122" y="-153"/>
      <point x="91" y="-127"/>
      <point x="91" y="-84" type="curve" smooth="yes"/>
      <point x="91" y="-52"/>
      <point x="115" y="-23"/>
      <point x="159" y="0" type="curve"/>
    </contour>
  </outline>
</glyph>
<glyph name="hungarumlaut" format="1">
  <advance width="360"/>
  <unicode hex="02DD"/>
  <note>
    GF Latin Plus glyph
  </note>
  <outline>
    <contour>
      <point x="277" y="766" type="line"/>
      <point x="170" y="631" type="line"/>
      <point x="206" y="631" type="line"/>
      <point x="329" y="766" type="line"/>
    </contour>
    <contour>
      <point x="131" y="766" type="line"/>
      <point x="24" y="631" type="line"/>
      <point x="59" y="631" type="line"/>
      <point x="183" y="766" type="line"/>
    </contour>
  </outline>
</glyph>
<glyph name="pi" format="1">
  <advance width="613"/>
  <unicode hex="03C0"/>
  <outline>
    <contour>
      <point x="24" y="476" type="line"/>
      <point x="129" y="476" type="line"/>
      <point x="129" y="0" type="line"/>
      <point x="190" y="0" type="line"/>
      <point x="190" y="476" type="line"/>
      <point x="366" y="476" type="line"/>
      <point x="366" y="127" type="line" smooth="yes"/>
      <point x="366" y="31"/>
      <point x="404" y="-6"/>
      <point x="476" y="-6" type="curve" smooth="yes"/>
      <point x="508" y="-6"/>
      <point x="534" y="1"/>
      <point x="551" y="10" type="curve"/>
      <point x="551" y="46" type="line"/>
      <point x="494" y="46" type="line" smooth="yes"/>
      <point x="448" y="46"/>
      <point x="427" y="68"/>
      <point x="427" y="129" type="curve" smooth="yes"/>
      <point x="427" y="476" type="line"/>
      <point x="543" y="476" type="line"/>
      <point x="543" y="533" type="line"/>
      <point x="24" y="533" type="line"/>
    </contour>
  </outline>
</glyph>
<glyph name="Germandbls" format="1">
  <advance width="657"/>
  <unicode hex="1E9E"/>
  <note>
    GF Latin Plus glyph
  </note>
  <outline>
    <contour>
      <point x="290" y="390" type="line"/>
      <point x="349" y="380" type="line"/>
      <point x="561" y="681" type="line"/>
      <point x="561" y="728" type="line"/>
      <point x="493" y="680" type="line"/>
    </contour>
    <contour>
      <point x="232" y="7" type="line"/>
      <point x="263" y="1"/>
      <point x="339" y="-6"/>
      <point x="374" y="-6" type="curve" smooth="yes"/>
      <point x="492" y="-6"/>
      <point x="594" y="28"/>
      <point x="594" y="167" type="curve" smooth="yes"/>
      <point x="594" y="227" type="line" smooth="yes"/>
      <point x="594" y="329"/>
      <point x="538" y="390"/>
      <point x="422" y="390" type="curve" smooth="yes"/>
      <point x="290" y="390" type="line"/>
      <point x="290" y="338" type="line"/>
      <point x="410" y="338" type="line" smooth="yes"/>
      <point x="498" y="338"/>
      <point x="533" y="299"/>
      <point x="533" y="224" type="curve" smooth="yes"/>
      <point x="533" y="170" type="line" smooth="yes"/>
      <point x="533" y="70"/>
      <point x="458" y="49"/>
      <point x="368" y="49" type="curve" smooth="yes"/>
      <point x="326" y="49"/>
      <point x="251" y="51"/>
      <point x="232" y="53" type="curve"/>
    </contour>
    <contour>
      <point x="81" y="0" type="line"/>
      <point x="142" y="0" type="line"/>
      <point x="142" y="569" type="line" smooth="yes"/>
      <point x="142" y="644"/>
      <point x="183" y="679"/>
      <point x="250" y="679" type="curve" smooth="yes"/>
      <point x="540" y="679" type="line"/>
      <point x="561" y="728" type="line"/>
      <point x="536" y="730"/>
      <point x="284" y="734"/>
      <point x="248" y="734" type="curve" smooth="yes"/>
      <point x="161" y="735"/>
      <point x="81" y="692"/>
      <point x="81" y="568" type="curve" smooth="yes"/>
    </contour>
  </outline>
</glyph>
<glyph name="quoteleft" format="1">
  <advance width="176"/>
  <unicode hex="2018"/>
  <note>
    GF Latin Plus glyph
  </note>
  <outline>
    <contour>
      <point x="57" y="554" type="line" smooth="yes"/>
      <point x="57" y="544"/>
      <point x="60" y="535"/>
      <point x="69" y="535" type="curve" smooth="yes"/>
      <point x="105" y="535" type="line" smooth="yes"/>
      <point x="116" y="535"/>
      <point x="121" y="541"/>
      <point x="121" y="554" type="curve" smooth="yes"/>
      <point x="121" y="628" type="line" smooth="yes"/>
      <point x="121" y="640"/>
      <point x="114" y="646"/>
      <point x="105" y="646" type="curve" smooth="yes"/>
      <point x="97" y="646" type="line"/>
      <point x="97" y="702" type="line" smooth="yes"/>
      <point x="97" y="715"/>
      <point x="102" y="723"/>
      <point x="119" y="723" type="curve"/>
      <point x="119" y="744" type="line"/>
      <point x="114" y="746"/>
      <point x="110" y="746"/>
      <point x="103" y="746" type="curve" smooth="yes"/>
      <point x="85" y="746"/>
      <point x="57" y="739"/>
      <point x="57" y="694" type="curve" smooth="yes"/>
    </contour>
  </outline>
</glyph>
<glyph name="quoteright" format="1">
  <advance width="174"/>
  <unicode hex="2019"/>
  <note>
    GF Latin Plus glyph
  </note>
  <outline>
    <contour>
      <point x="55" y="653" type="line" smooth="yes"/>
      <point x="55" y="641"/>
      <point x="62" y="635"/>
      <point x="71" y="635" type="curve" smooth="yes"/>
      <point x="79" y="635" type="line"/>
      <point x="79" y="578" type="line" smooth="yes"/>
      <point x="79" y="565"/>
      <point x="74" y="557"/>
      <point x="58" y="557" type="curve"/>
      <point x="58" y="537" type="line"/>
      <point x="63" y="535"/>
      <point x="66" y="535"/>
      <point x="73" y="535" type="curve" smooth="yes"/>
      <point x="90" y="535"/>
      <point x="117" y="542"/>
      <point x="117" y="587" type="curve" smooth="yes"/>
      <point x="117" y="726" type="line" smooth="yes"/>
      <point x="117" y="736"/>
      <point x="114" y="744"/>
      <point x="105" y="744" type="curve" smooth="yes"/>
      <point x="71" y="744" type="line" smooth="yes"/>
      <point x="60" y="744"/>
      <point x="55" y="738"/>
      <point x="55" y="726" type="curve" smooth="yes"/>
    </contour>
  </outline>
</glyph>
<glyph name="dagger" format="1">
  <advance width="417"/>
  <unicode hex="2020"/>
  <note>
    GF Latin Plus glyph
  </note>
  <outline>
    <contour>
      <point x="24" y="493" type="line"/>
      <point x="178" y="486" type="line"/>
      <point x="183" y="-72" type="line"/>
      <point x="232" y="-72" type="line"/>
      <point x="240" y="486" type="line"/>
      <point x="394" y="493" type="line"/>
      <point x="394" y="536" type="line"/>
      <point x="240" y="543" type="line"/>
      <point x="233" y="770" type="line"/>
      <point x="184" y="770" type="line"/>
      <point x="178" y="543" type="line"/>
      <point x="24" y="536" type="line"/>
    </contour>
  </outline>
</glyph>
<glyph name="daggerdbl" format="1">
  <advance width="439"/>
  <unicode hex="2021"/>
  <note>
    GF Latin Plus glyph
  </note>
  <outline>
    <contour>
      <point x="24" y="180" type="line"/>
      <point x="178" y="172" type="line"/>
      <point x="185" y="-72" type="line"/>
      <point x="230" y="-72" type="line"/>
      <point x="237" y="173" type="line"/>
      <point x="392" y="180" type="line"/>
      <point x="392" y="221" type="line"/>
      <point x="237" y="228" type="line"/>
      <point x="237" y="487" type="line"/>
      <point x="392" y="494" type="line"/>
      <point x="392" y="535" type="line"/>
      <point x="237" y="542" type="line"/>
      <point x="231" y="770" type="line"/>
      <point x="185" y="770" type="line"/>
      <point x="178" y="542" type="line"/>
      <point x="24" y="535" type="line"/>
      <point x="24" y="494" type="line"/>
      <point x="178" y="487" type="line"/>
      <point x="178" y="228" type="line"/>
      <point x="24" y="221" type="line"/>
    </contour>
  </outline>
</glyph>
<glyph name="bullet" format="1">
  <advance width="318"/>
  <unicode hex="2022"/>
  <note>
    GF Latin Plus glyph
  </note>
  <outline>
    <contour>
      <point x="100" y="353" type="line" smooth="yes"/>
      <point x="100" y="333"/>
      <point x="113" y="321"/>
      <point x="133" y="321" type="curve" smooth="yes"/>
      <point x="184" y="321" type="line" smooth="yes"/>
      <point x="204" y="321"/>
      <point x="219" y="329"/>
      <point x="219" y="353" type="curve" smooth="yes"/>
      <point x="219" y="409" type="line" smooth="yes"/>
      <point x="219" y="431"/>
      <point x="209" y="444"/>
      <point x="184" y="444" type="curve" smooth="yes"/>
      <point x="133" y="444" type="line" smooth="yes"/>
      <point x="111" y="444"/>
      <point x="100" y="430"/>
      <point x="100" y="409" type="curve" smooth="yes"/>
    </contour>
  </outline>
</glyph>
<glyph name="ellipsis" format="1">
  <advance width="816"/>
  <unicode hex="2026"/>
  <note>
    GF Latin Plus glyph
  </note>
  <outline>
    <contour>
      <point x="105" y="14" type="line" smooth="yes"/>
      <point x="105" y="6"/>
      <point x="111" y="0"/>
      <point x="120" y="0" type="curve" smooth="yes"/>
      <point x="152" y="0" type="line" smooth="yes"/>
      <point x="161" y="0"/>
      <point x="167" y="4"/>
      <point x="167" y="14" type="curve" smooth="yes"/>
      <point x="167" y="88" type="line" smooth="yes"/>
      <point x="167" y="97"/>
      <point x="162" y="103"/>
      <point x="152" y="103" type="curve" smooth="yes"/>
      <point x="120" y="103" type="line" smooth="yes"/>
      <point x="110" y="103"/>
      <point x="105" y="98"/>
      <point x="105" y="88" type="curve" smooth="yes"/>
    </contour>
    <contour>
      <point x="377" y="14" type="line" smooth="yes"/>
      <point x="377" y="6"/>
      <point x="383" y="0"/>
      <point x="392" y="0" type="curve" smooth="yes"/>
      <point x="424" y="0" type="line" smooth="yes"/>
      <point x="433" y="0"/>
      <point x="439" y="4"/>
      <point x="439" y="14" type="curve" smooth="yes"/>
      <point x="439" y="88" type="line" smooth="yes"/>
      <point x="439" y="97"/>
      <point x="434" y="103"/>
      <point x="424" y="103" type="curve" smooth="yes"/>
      <point x="392" y="103" type="line" smooth="yes"/>
      <point x="382" y="103"/>
      <point x="377" y="98"/>
      <point x="377" y="88" type="curve" smooth="yes"/>
    </contour>
    <contour>
      <point x="649" y="14" type="line" smooth="yes"/>
      <point x="649" y="6"/>
      <point x="655" y="0"/>
      <point x="664" y="0" type="curve" smooth="yes"/>
      <point x="696" y="0" type="line" smooth="yes"/>
      <point x="705" y="0"/>
      <point x="711" y="4"/>
      <point x="711" y="14" type="curve" smooth="yes"/>
      <point x="711" y="88" type="line" smooth="yes"/>
      <point x="711" y="97"/>
      <point x="706" y="103"/>
      <point x="696" y="103" type="curve" smooth="yes"/>
      <point x="664" y="103" type="line" smooth="yes"/>
      <point x="654" y="103"/>
      <point x="649" y="98"/>
      <point x="649" y="88" type="curve" smooth="yes"/>
    </contour>
  </outline>
</glyph>
<glyph name="perthousand" format="1">
  <advance width="1379"/>
  <unicode hex="2030"/>
  <note>
    GF Latin Plus glyph
  </note>
  <outline>
    <contour>
      <point x="1008" y="137" type="curve" smooth="yes"/>
      <point x="1008" y="252" type="line" smooth="yes"/>
      <point x="1008" y="329"/>
      <point x="1039" y="346"/>
      <point x="1105" y="346" type="curve" smooth="yes"/>
      <point x="1195" y="346" type="line" smooth="yes"/>
      <point x="1268" y="346"/>
      <point x="1290" y="320"/>
      <point x="1290" y="252" type="curve" smooth="yes"/>
      <point x="1290" y="137" type="line" smooth="yes"/>
      <point x="1290" y="62"/>
      <point x="1261" y="43"/>
      <point x="1193" y="43" type="curve" smooth="yes"/>
      <point x="1103" y="43" type="line" smooth="yes"/>
      <point x="1035" y="43"/>
      <point x="1008" y="65"/>
    </contour>
    <contour>
      <point x="969" y="130" type="line" smooth="yes"/>
      <point x="969" y="45"/>
      <point x="1000" y="3"/>
      <point x="1098" y="3" type="curve" smooth="yes"/>
      <point x="1199" y="3" type="line" smooth="yes"/>
      <point x="1300" y="3"/>
      <point x="1330" y="45"/>
      <point x="1330" y="130" type="curve" smooth="yes"/>
      <point x="1330" y="259" type="line" smooth="yes"/>
      <point x="1330" y="344"/>
      <point x="1299" y="386"/>
      <point x="1201" y="386" type="curve" smooth="yes"/>
      <point x="1100" y="386" type="line" smooth="yes"/>
      <point x="999" y="386"/>
      <point x="969" y="344"/>
      <point x="969" y="259" type="curve" smooth="yes"/>
    </contour>
    <contour>
      <point x="587" y="137" type="curve" smooth="yes"/>
      <point x="587" y="252" type="line" smooth="yes"/>
      <point x="587" y="329"/>
      <point x="617" y="346"/>
      <point x="684" y="346" type="curve" smooth="yes"/>
      <point x="773" y="346" type="line" smooth="yes"/>
      <point x="846" y="346"/>
      <point x="868" y="320"/>
      <point x="868" y="252" type="curve" smooth="yes"/>
      <point x="868" y="137" type="line" smooth="yes"/>
      <point x="868" y="62"/>
      <point x="839" y="43"/>
      <point x="771" y="43" type="curve" smooth="yes"/>
      <point x="682" y="43" type="line" smooth="yes"/>
      <point x="613" y="43"/>
      <point x="587" y="65"/>
    </contour>
    <contour>
      <point x="547" y="130" type="line" smooth="yes"/>
      <point x="547" y="45"/>
      <point x="578" y="3"/>
      <point x="676" y="3" type="curve" smooth="yes"/>
      <point x="777" y="3" type="line" smooth="yes"/>
      <point x="878" y="3"/>
      <point x="908" y="45"/>
      <point x="908" y="130" type="curve" smooth="yes"/>
      <point x="908" y="259" type="line" smooth="yes"/>
      <point x="908" y="344"/>
      <point x="877" y="386"/>
      <point x="779" y="386" type="curve" smooth="yes"/>
      <point x="678" y="386" type="line" smooth="yes"/>
      <point x="577" y="386"/>
      <point x="547" y="344"/>
      <point x="547" y="259" type="curve" smooth="yes"/>
    </contour>
    <contour>
      <point x="231" y="0" type="line"/>
      <point x="276" y="0" type="line"/>
      <point x="716" y="732" type="line"/>
      <point x="673" y="732" type="line"/>
    </contour>
    <contour>
      <point x="90" y="483" type="curve" smooth="yes"/>
      <point x="90" y="598" type="line" smooth="yes"/>
      <point x="90" y="675"/>
      <point x="120" y="692"/>
      <point x="186" y="692" type="curve" smooth="yes"/>
      <point x="277" y="692" type="line" smooth="yes"/>
      <point x="349" y="692"/>
      <point x="371" y="666"/>
      <point x="371" y="598" type="curve" smooth="yes"/>
      <point x="371" y="483" type="line" smooth="yes"/>
      <point x="371" y="408"/>
      <point x="342" y="389"/>
      <point x="275" y="389" type="curve" smooth="yes"/>
      <point x="184" y="389" type="line" smooth="yes"/>
      <point x="116" y="389"/>
      <point x="90" y="411"/>
    </contour>
    <contour>
      <point x="50" y="476" type="line" smooth="yes"/>
      <point x="50" y="391"/>
      <point x="81" y="349"/>
      <point x="179" y="349" type="curve" smooth="yes"/>
      <point x="280" y="349" type="line" smooth="yes"/>
      <point x="381" y="349"/>
      <point x="411" y="391"/>
      <point x="411" y="476" type="curve" smooth="yes"/>
      <point x="411" y="605" type="line" smooth="yes"/>
      <point x="411" y="690"/>
      <point x="380" y="732"/>
      <point x="282" y="732" type="curve" smooth="yes"/>
      <point x="181" y="732" type="line" smooth="yes"/>
      <point x="80" y="732"/>
      <point x="50" y="690"/>
      <point x="50" y="605" type="curve" smooth="yes"/>
    </contour>
  </outline>
</glyph>
<glyph name="minute" format="1">
  <advance width="143"/>
  <unicode hex="2032"/>
  <outline>
    <contour>
      <point x="37" y="467" type="line"/>
      <point x="77" y="467" type="line"/>
      <point x="107" y="763" type="line"/>
      <point x="53" y="763" type="line"/>
    </contour>
  </outline>
</glyph>
<glyph name="guilsinglright" format="1">
  <advance width="358"/>
  <unicode hex="203A"/>
  <note>
    GF Latin Plus glyph
  </note>
  <outline>
    <contour>
      <point x="299" y="275" type="line"/>
      <point x="86" y="486" type="line"/>
      <point x="52" y="454" type="line"/>
      <point x="235" y="275" type="line"/>
      <point x="57" y="100" type="line"/>
      <point x="88" y="67" type="line"/>
    </contour>
  </outline>
</glyph>
<glyph name="fraction" format="1">
  <advance width="212"/>
  <unicode hex="2044"/>
  <note>
    GF Latin Plus glyph
  </note>
  <outline>
    <contour>
      <point x="-106" y="0" type="line"/>
      <point x="-59" y="0" type="line"/>
      <point x="318" y="770" type="line"/>
      <point x="270" y="770" type="line"/>
    </contour>
  </outline>
</glyph>
<glyph name="zerosuperior" format="1">
  <advance width="456"/>
  <unicode hex="2070"/>
  <outline>
    <contour>
      <point x="99" y="411" type="curve" smooth="yes"/>
      <point x="99" y="692" type="line" smooth="yes"/>
      <point x="99" y="748"/>
      <point x="135" y="779"/>
      <point x="190" y="779" type="curve" smooth="yes"/>
      <point x="269" y="779" type="line" smooth="yes"/>
      <point x="327" y="779"/>
      <point x="359" y="749"/>
      <point x="359" y="692" type="curve" smooth="yes"/>
      <point x="359" y="411" type="line" smooth="yes"/>
      <point x="359" y="357"/>
      <point x="332" y="324"/>
      <point x="269" y="324" type="curve" smooth="yes"/>
      <point x="190" y="324" type="line" smooth="yes"/>
      <point x="135" y="324"/>
      <point x="99" y="353"/>
    </contour>
    <contour>
      <point x="47" y="405" type="line" smooth="yes"/>
      <point x="47" y="316"/>
      <point x="105" y="279"/>
      <point x="182" y="279" type="curve" smooth="yes"/>
      <point x="279" y="279" type="line" smooth="yes"/>
      <point x="358" y="279"/>
      <point x="410" y="317"/>
      <point x="410" y="405" type="curve" smooth="yes"/>
      <point x="410" y="696" type="line" smooth="yes"/>
      <point x="410" y="771"/>
      <point x="371" y="824"/>
      <point x="279" y="824" type="curve" smooth="yes"/>
      <point x="182" y="824" type="line" smooth="yes"/>
      <point x="104" y="824"/>
      <point x="47" y="781"/>
      <point x="47" y="696" type="curve" smooth="yes"/>
    </contour>
  </outline>
</glyph>
<glyph name="foursuperior" format="1">
  <advance width="456"/>
  <unicode hex="2074"/>
  <note>
    GF Latin Plus glyph
  </note>
  <outline>
    <contour>
      <point x="33" y="450" type="line"/>
      <point x="45" y="420" type="line"/>
      <point x="307" y="420" type="line"/>
      <point x="307" y="281" type="line"/>
      <point x="359" y="281" type="line"/>
      <point x="359" y="420" type="line"/>
      <point x="436" y="429" type="line"/>
      <point x="436" y="466" type="line"/>
      <point x="359" y="466" type="line"/>
      <point x="359" y="663" type="line"/>
      <point x="321" y="663" type="line"/>
      <point x="307" y="607" type="line"/>
      <point x="307" y="466" type="line"/>
      <point x="95" y="466" type="line"/>
      <point x="298" y="820" type="line"/>
      <point x="243" y="820" type="line"/>
    </contour>
  </outline>
</glyph>
<glyph name="fivesuperior" format="1">
  <advance width="456"/>
  <unicode hex="2075"/>
  <outline>
    <contour>
      <point x="68" y="284" type="line"/>
      <point x="120" y="279"/>
      <point x="190" y="277"/>
      <point x="259" y="277" type="curve" smooth="yes"/>
      <point x="359" y="277"/>
      <point x="429" y="319"/>
      <point x="429" y="406" type="curve" smooth="yes"/>
      <point x="429" y="486" type="line" smooth="yes"/>
      <point x="429" y="555"/>
      <point x="381" y="607"/>
      <point x="295" y="607" type="curve" smooth="yes"/>
      <point x="229" y="607" type="line" smooth="yes"/>
      <point x="180" y="607"/>
      <point x="150" y="587"/>
      <point x="138" y="567" type="curve"/>
      <point x="148" y="772" type="line"/>
      <point x="411" y="772" type="line"/>
      <point x="411" y="820" type="line"/>
      <point x="100" y="820" type="line"/>
      <point x="84" y="497" type="line"/>
      <point x="136" y="497" type="line"/>
      <point x="144" y="542"/>
      <point x="172" y="561"/>
      <point x="219" y="561" type="curve" smooth="yes"/>
      <point x="279" y="561" type="line" smooth="yes"/>
      <point x="342" y="561"/>
      <point x="374" y="529"/>
      <point x="374" y="478" type="curve" smooth="yes"/>
      <point x="374" y="414" type="line" smooth="yes"/>
      <point x="374" y="355"/>
      <point x="322" y="324"/>
      <point x="259" y="324" type="curve" smooth="yes"/>
      <point x="68" y="324" type="line"/>
    </contour>
  </outline>
</glyph>
<glyph name="sixsuperior" format="1">
  <advance width="456"/>
  <unicode hex="2076"/>
  <outline>
    <contour>
      <point x="109" y="538" type="curve"/>
      <point x="254" y="538" type="line" smooth="yes"/>
      <point x="326" y="538"/>
      <point x="369" y="526"/>
      <point x="369" y="463" type="curve" smooth="yes"/>
      <point x="369" y="401" type="line" smooth="yes"/>
      <point x="369" y="339"/>
      <point x="329" y="324"/>
      <point x="284" y="324" type="curve" smooth="yes"/>
      <point x="213" y="324" type="line" smooth="yes"/>
      <point x="148" y="324"/>
      <point x="109" y="367"/>
    </contour>
    <contour>
      <point x="57" y="551" type="curve" smooth="yes"/>
      <point x="57" y="332"/>
      <point x="116" y="278"/>
      <point x="208" y="278" type="curve" smooth="yes"/>
      <point x="293" y="278" type="line" smooth="yes"/>
      <point x="363" y="278"/>
      <point x="420" y="309"/>
      <point x="420" y="395" type="curve" smooth="yes"/>
      <point x="420" y="470" type="line" smooth="yes"/>
      <point x="420" y="553"/>
      <point x="363" y="582"/>
      <point x="265" y="582" type="curve" smooth="yes"/>
      <point x="225" y="582"/>
      <point x="156" y="580"/>
      <point x="109" y="574" type="curve"/>
      <point x="109" y="713"/>
      <point x="163" y="779"/>
      <point x="249" y="779" type="curve" smooth="yes"/>
      <point x="387" y="779" type="line"/>
      <point x="387" y="818" type="line"/>
      <point x="347" y="821"/>
      <point x="292" y="824"/>
      <point x="251" y="824" type="curve" smooth="yes"/>
      <point x="129" y="824"/>
      <point x="57" y="743"/>
    </contour>
  </outline>
</glyph>
<glyph name="sevensuperior" format="1">
  <advance width="456"/>
  <unicode hex="2077"/>
  <outline>
    <contour>
      <point x="51" y="767" type="line"/>
      <point x="333" y="767" type="line"/>
      <point x="137" y="280" type="line"/>
      <point x="199" y="280" type="line"/>
      <point x="402" y="792" type="line"/>
      <point x="383" y="820" type="line"/>
      <point x="51" y="820" type="line"/>
    </contour>
  </outline>
</glyph>
<glyph name="eightsuperior" format="1">
  <advance width="456"/>
  <unicode hex="2078"/>
  <outline>
    <contour>
      <point x="114" y="647" type="curve" smooth="yes"/>
      <point x="114" y="700" type="line" smooth="yes"/>
      <point x="114" y="755"/>
      <point x="136" y="778"/>
      <point x="190" y="778" type="curve" smooth="yes"/>
      <point x="275" y="778" type="line" smooth="yes"/>
      <point x="319" y="778"/>
      <point x="343" y="758"/>
      <point x="343" y="700" type="curve" smooth="yes"/>
      <point x="343" y="647" type="line" smooth="yes"/>
      <point x="343" y="615"/>
      <point x="324" y="578"/>
      <point x="270" y="578" type="curve" smooth="yes"/>
      <point x="190" y="578" type="line" smooth="yes"/>
      <point x="138" y="578"/>
      <point x="114" y="607"/>
    </contour>
    <contour>
      <point x="105" y="391" type="curve" smooth="yes"/>
      <point x="105" y="462" type="line" smooth="yes"/>
      <point x="105" y="514"/>
      <point x="158" y="532"/>
      <point x="190" y="532" type="curve" smooth="yes"/>
      <point x="270" y="532" type="line" smooth="yes"/>
      <point x="330" y="532"/>
      <point x="353" y="512"/>
      <point x="353" y="462" type="curve" smooth="yes"/>
      <point x="353" y="391" type="line" smooth="yes"/>
      <point x="353" y="347"/>
      <point x="328" y="325"/>
      <point x="274" y="325" type="curve" smooth="yes"/>
      <point x="190" y="325" type="line" smooth="yes"/>
      <point x="141" y="325"/>
      <point x="105" y="342"/>
    </contour>
    <contour>
      <point x="50" y="385" type="line" smooth="yes"/>
      <point x="50" y="312"/>
      <point x="100" y="279"/>
      <point x="183" y="279" type="curve" smooth="yes"/>
      <point x="284" y="279" type="line" smooth="yes"/>
      <point x="363" y="279"/>
      <point x="407" y="313"/>
      <point x="407" y="385" type="curve" smooth="yes"/>
      <point x="407" y="468" type="line" smooth="yes"/>
      <point x="407" y="509"/>
      <point x="384" y="551"/>
      <point x="340" y="560" type="curve"/>
      <point x="375" y="573"/>
      <point x="396" y="610"/>
      <point x="396" y="649" type="curve" smooth="yes"/>
      <point x="396" y="711" type="line" smooth="yes"/>
      <point x="396" y="792"/>
      <point x="353" y="824"/>
      <point x="284" y="824" type="curve" smooth="yes"/>
      <point x="180" y="824" type="line" smooth="yes"/>
      <point x="113" y="824"/>
      <point x="60" y="792"/>
      <point x="60" y="711" type="curve" smooth="yes"/>
      <point x="60" y="649" type="line" smooth="yes"/>
      <point x="60" y="610"/>
      <point x="78" y="573"/>
      <point x="121" y="553" type="curve"/>
      <point x="92" y="546"/>
      <point x="50" y="516"/>
      <point x="50" y="463" type="curve" smooth="yes"/>
    </contour>
  </outline>
</glyph>
<glyph name="ninesuperior" format="1">
  <advance width="456"/>
  <unicode hex="2079"/>
  <outline>
    <contour>
      <point x="363" y="563" type="curve"/>
      <point x="218" y="563" type="line" smooth="yes"/>
      <point x="146" y="563"/>
      <point x="102" y="575"/>
      <point x="102" y="639" type="curve" smooth="yes"/>
      <point x="102" y="700" type="line" smooth="yes"/>
      <point x="102" y="763"/>
      <point x="143" y="777"/>
      <point x="188" y="777" type="curve" smooth="yes"/>
      <point x="259" y="777" type="line" smooth="yes"/>
      <point x="326" y="777"/>
      <point x="363" y="734"/>
    </contour>
    <contour>
      <point x="414" y="550" type="curve" smooth="yes"/>
      <point x="414" y="769"/>
      <point x="356" y="823"/>
      <point x="265" y="823" type="curve" smooth="yes"/>
      <point x="179" y="823" type="line" smooth="yes"/>
      <point x="110" y="823"/>
      <point x="52" y="793"/>
      <point x="52" y="707" type="curve" smooth="yes"/>
      <point x="52" y="631" type="line" smooth="yes"/>
      <point x="52" y="547"/>
      <point x="108" y="519"/>
      <point x="207" y="519" type="curve" smooth="yes"/>
      <point x="247" y="519"/>
      <point x="317" y="521"/>
      <point x="363" y="527" type="curve"/>
      <point x="363" y="389"/>
      <point x="310" y="322"/>
      <point x="222" y="322" type="curve" smooth="yes"/>
      <point x="85" y="322" type="line"/>
      <point x="85" y="284" type="line"/>
      <point x="124" y="280"/>
      <point x="180" y="277"/>
      <point x="222" y="277" type="curve" smooth="yes"/>
      <point x="343" y="277"/>
      <point x="414" y="359"/>
    </contour>
  </outline>
</glyph>
<glyph name="n.superior" format="1">
  <advance width="440"/>
  <unicode hex="207F"/>
  <outline>
    <contour>
      <point x="58" y="280" type="line"/>
      <point x="112" y="280" type="line"/>
      <point x="112" y="591" type="line"/>
      <point x="156" y="616"/>
      <point x="191" y="630"/>
      <point x="243" y="630" type="curve" smooth="yes"/>
      <point x="298" y="630"/>
      <point x="330" y="592"/>
      <point x="330" y="542" type="curve" smooth="yes"/>
      <point x="330" y="280" type="line"/>
      <point x="385" y="280" type="line"/>
      <point x="385" y="547" type="line" smooth="yes"/>
      <point x="385" y="617"/>
      <point x="347" y="678"/>
      <point x="260" y="678" type="curve" smooth="yes"/>
      <point x="205" y="678"/>
      <point x="150" y="654"/>
      <point x="112" y="628" type="curve"/>
      <point x="100" y="672" type="line"/>
      <point x="58" y="672" type="line"/>
    </contour>
    <contour>
      <point x="219" y="757" type="move" name="top"/>
    </contour>
    <contour>
      <point x="219" y="169" type="move" name="bottom"/>
    </contour>
  </outline>
</glyph>
<glyph name="franc" format="1">
  <advance width="609"/>
  <unicode hex="20A3"/>
  <note>
    GF Latin Plus glyph
  </note>
  <outline>
    <contour>
      <point x="151" y="0" type="line"/>
      <point x="212" y="0" type="line"/>
      <point x="212" y="362" type="line"/>
      <point x="487" y="366" type="line"/>
      <point x="487" y="413" type="line"/>
      <point x="212" y="417" type="line"/>
      <point x="212" y="585" type="line" smooth="yes"/>
      <point x="212" y="647"/>
      <point x="246" y="678"/>
      <point x="302" y="678" type="curve" smooth="yes"/>
      <point x="529" y="678" type="line"/>
      <point x="529" y="726" type="line"/>
      <point x="510" y="729"/>
      <point x="300" y="734"/>
      <point x="290" y="734" type="curve" smooth="yes"/>
      <point x="221" y="736"/>
      <point x="151" y="701"/>
      <point x="151" y="595" type="curve" smooth="yes"/>
    </contour>
    <contour>
      <point x="63" y="150" type="line"/>
      <point x="151" y="146" type="line"/>
      <point x="212" y="146" type="line"/>
      <point x="486" y="150" type="line"/>
      <point x="486" y="192" type="line"/>
      <point x="212" y="196" type="line"/>
      <point x="151" y="196" type="line"/>
      <point x="63" y="192" type="line"/>
    </contour>
  </outline>
</glyph>
<glyph name="lira" format="1">
  <advance width="609"/>
  <unicode hex="20A4"/>
  <note>
    GF Latin Plus glyph
  </note>
  <outline>
    <contour>
      <point x="65" y="0" type="line"/>
      <point x="540" y="0" type="line"/>
      <point x="540" y="55" type="line"/>
      <point x="239" y="55" type="line"/>
      <point x="239" y="240" type="line"/>
      <point x="462" y="243" type="line"/>
      <point x="462" y="274" type="line"/>
      <point x="239" y="278" type="line"/>
      <point x="239" y="377" type="line"/>
      <point x="462" y="380" type="line"/>
      <point x="462" y="411" type="line"/>
      <point x="239" y="415" type="line"/>
      <point x="239" y="528" type="line" smooth="yes"/>
      <point x="239" y="656"/>
      <point x="289" y="681"/>
      <point x="385" y="681" type="curve" smooth="yes"/>
      <point x="526" y="681" type="line"/>
      <point x="526" y="728" type="line"/>
      <point x="491" y="731"/>
      <point x="435" y="736"/>
      <point x="382" y="736" type="curve" smooth="yes"/>
      <point x="258" y="736"/>
      <point x="178" y="695"/>
      <point x="178" y="528" type="curve" smooth="yes"/>
      <point x="178" y="415" type="line"/>
      <point x="65" y="411" type="line"/>
      <point x="65" y="380" type="line"/>
      <point x="178" y="377" type="line"/>
      <point x="178" y="280" type="line"/>
      <point x="65" y="276" type="line"/>
      <point x="65" y="245" type="line"/>
      <point x="178" y="242" type="line"/>
      <point x="178" y="55" type="line"/>
      <point x="65" y="45" type="line"/>
    </contour>
  </outline>
</glyph>
<glyph name="won" format="1">
  <advance width="609"/>
  <unicode hex="20A9"/>
  <note>
    GF Latin Plus glyph
  </note>
  <outline>
    <contour>
      <point x="51" y="734" type="line"/>
      <point x="131" y="0" type="line"/>
      <point x="182" y="0" type="line"/>
      <point x="301" y="504" type="line"/>
      <point x="420" y="0" type="line"/>
      <point x="470" y="0" type="line"/>
      <point x="553" y="734" type="line"/>
      <point x="499" y="734" type="line"/>
      <point x="429" y="137" type="line"/>
      <point x="319" y="603" type="line"/>
      <point x="286" y="603" type="line"/>
      <point x="171" y="137" type="line"/>
      <point x="105" y="734" type="line"/>
    </contour>
    <contour>
      <point x="5" y="465" type="line"/>
      <point x="106" y="465" type="line"/>
      <point x="106" y="503" type="line"/>
      <point x="5" y="503" type="line"/>
    </contour>
    <contour>
      <point x="510" y="465" type="line"/>
      <point x="596" y="465" type="line"/>
      <point x="596" y="503" type="line"/>
      <point x="508" y="503" type="line"/>
    </contour>
    <contour>
      <point x="5" y="240" type="line"/>
      <point x="142" y="240" type="line"/>
      <point x="132" y="278" type="line"/>
      <point x="5" y="278" type="line"/>
    </contour>
    <contour>
      <point x="471" y="240" type="line"/>
      <point x="596" y="240" type="line"/>
      <point x="596" y="278" type="line"/>
      <point x="471" y="278" type="line"/>
    </contour>
  </outline>
</glyph>
<glyph name="dong" format="1">
  <advance width="609"/>
  <unicode hex="20AB"/>
  <note>
    GF Latin Plus glyph
  </note>
  <outline>
    <contour>
      <point x="76" y="-31" type="line"/>
      <point x="550" y="-31" type="line"/>
      <point x="550" y="21" type="line"/>
      <point x="76" y="21" type="line"/>
    </contour>
    <contour>
      <point x="305" y="673" type="line"/>
      <point x="582" y="673" type="line"/>
      <point x="582" y="701" type="line"/>
      <point x="305" y="701" type="line"/>
    </contour>
    <contour>
      <point x="138" y="350" type="curve" smooth="yes"/>
      <point x="138" y="486"/>
      <point x="183" y="531"/>
      <point x="293" y="531" type="curve" smooth="yes"/>
      <point x="355" y="531"/>
      <point x="395" y="518"/>
      <point x="450" y="504" type="curve"/>
      <point x="450" y="223" type="line"/>
      <point x="406" y="200"/>
      <point x="352" y="174"/>
      <point x="284" y="174" type="curve" smooth="yes"/>
      <point x="180" y="174"/>
      <point x="138" y="226"/>
    </contour>
    <contour>
      <point x="77" y="347" type="curve" smooth="yes"/>
      <point x="77" y="195"/>
      <point x="136" y="123"/>
      <point x="269" y="123" type="curve" smooth="yes"/>
      <point x="332" y="123"/>
      <point x="421" y="158"/>
      <point x="450" y="184" type="curve"/>
      <point x="462" y="129" type="line"/>
      <point x="511" y="129" type="line"/>
      <point x="511" y="783" type="line"/>
      <point x="450" y="783" type="line"/>
      <point x="450" y="547" type="line"/>
      <point x="405" y="563"/>
      <point x="341" y="579"/>
      <point x="279" y="579" type="curve" smooth="yes"/>
      <point x="133" y="579"/>
      <point x="77" y="514"/>
    </contour>
  </outline>
</glyph>
<glyph name="kip" format="1">
  <advance width="609"/>
  <unicode hex="20AD"/>
  <note>
    GF Latin Plus glyph
  </note>
  <outline>
    <contour>
      <point x="26" y="338" type="line"/>
      <point x="548" y="338" type="line"/>
      <point x="548" y="396" type="line"/>
      <point x="26" y="396" type="line"/>
    </contour>
    <contour>
      <point x="96" y="0" type="line"/>
      <point x="158" y="0" type="line"/>
      <point x="158" y="339" type="line"/>
      <point x="290" y="339" type="line"/>
      <point x="499" y="0" type="line"/>
      <point x="565" y="0" type="line"/>
      <point x="338" y="367" type="line"/>
      <point x="563" y="734" type="line"/>
      <point x="498" y="734" type="line"/>
      <point x="291" y="395" type="line"/>
      <point x="158" y="395" type="line"/>
      <point x="158" y="734" type="line"/>
      <point x="96" y="734" type="line"/>
    </contour>
  </outline>
</glyph>
<glyph name="peso" format="1">
  <advance width="609"/>
  <unicode hex="20B1"/>
  <note>
    GF Latin Plus glyph
  </note>
  <outline>
    <contour>
      <point x="488" y="546" type="line"/>
      <point x="599" y="546" type="line"/>
      <point x="599" y="584" type="line"/>
      <point x="488" y="584" type="line"/>
    </contour>
    <contour>
      <point x="10" y="546" type="line"/>
      <point x="152" y="546" type="line"/>
      <point x="152" y="584" type="line"/>
      <point x="10" y="584" type="line"/>
    </contour>
    <contour>
      <point x="466" y="376" type="line"/>
      <point x="599" y="376" type="line"/>
      <point x="599" y="414" type="line"/>
      <point x="481" y="414" type="line"/>
    </contour>
    <contour>
      <point x="10" y="376" type="line"/>
      <point x="155" y="376" type="line"/>
      <point x="155" y="414" type="line"/>
      <point x="10" y="414" type="line"/>
    </contour>
    <contour>
      <point x="181" y="323" type="line"/>
      <point x="181" y="679" type="line"/>
      <point x="329" y="679" type="line" smooth="yes"/>
      <point x="396" y="679"/>
      <point x="458" y="646"/>
      <point x="458" y="504" type="curve" smooth="yes"/>
      <point x="458" y="361"/>
      <point x="396" y="323"/>
      <point x="321" y="323" type="curve" smooth="yes"/>
    </contour>
    <contour>
      <point x="124" y="0" type="line"/>
      <point x="181" y="0" type="line"/>
      <point x="181" y="276" type="line"/>
      <point x="221" y="274"/>
      <point x="291" y="267"/>
      <point x="328" y="267" type="curve" smooth="yes"/>
      <point x="408" y="267"/>
      <point x="516" y="304"/>
      <point x="516" y="504" type="curve" smooth="yes"/>
      <point x="516" y="702"/>
      <point x="415" y="734"/>
      <point x="333" y="734" type="curve" smooth="yes"/>
      <point x="124" y="734" type="line"/>
    </contour>
  </outline>
</glyph>
<glyph name="guarani" format="1">
  <advance width="609"/>
  <unicode hex="20B2"/>
  <note>
    GF Latin Plus glyph
  </note>
  <outline>
    <contour>
      <point x="355" y="-103" type="line"/>
      <point x="355" y="793" type="line"/>
      <point x="318" y="793" type="line"/>
      <point x="318" y="-103" type="line"/>
    </contour>
    <contour>
      <point x="58" y="362" type="curve" smooth="yes"/>
      <point x="58" y="101"/>
      <point x="108" y="-7"/>
      <point x="297" y="-5" type="curve" smooth="yes"/>
      <point x="380" y="-4"/>
      <point x="461" y="27"/>
      <point x="511" y="52" type="curve"/>
      <point x="522" y="0" type="line"/>
      <point x="562" y="0" type="line"/>
      <point x="562" y="380" type="line"/>
      <point x="505" y="380" type="line"/>
      <point x="505" y="94" type="line"/>
      <point x="454" y="73"/>
      <point x="378" y="51"/>
      <point x="311" y="51" type="curve" smooth="yes"/>
      <point x="156" y="51"/>
      <point x="115" y="122"/>
      <point x="115" y="361" type="curve" smooth="yes"/>
      <point x="115" y="582"/>
      <point x="159" y="670"/>
      <point x="325" y="670" type="curve" smooth="yes"/>
      <point x="413" y="670"/>
      <point x="511" y="660"/>
      <point x="551" y="656" type="curve"/>
      <point x="551" y="701" type="line"/>
      <point x="484" y="715"/>
      <point x="388" y="725"/>
      <point x="317" y="725" type="curve" smooth="yes"/>
      <point x="116" y="725"/>
      <point x="58" y="609"/>
    </contour>
  </outline>
</glyph>
<glyph name="cedi" format="1">
  <advance width="609"/>
  <unicode hex="20B5"/>
  <note>
    GF Latin Plus glyph
  </note>
  <outline>
    <contour>
      <point x="375" y="-103" type="line"/>
      <point x="375" y="793" type="line"/>
      <point x="338" y="793" type="line"/>
      <point x="338" y="-103" type="line"/>
    </contour>
    <contour>
      <point x="69" y="364" type="curve" smooth="yes"/>
      <point x="69" y="61"/>
      <point x="159" y="-6"/>
      <point x="336" y="-6" type="curve" smooth="yes"/>
      <point x="431" y="-6"/>
      <point x="510" y="8"/>
      <point x="555" y="26" type="curve"/>
      <point x="555" y="69" type="line"/>
      <point x="488" y="53"/>
      <point x="438" y="47"/>
      <point x="350" y="47" type="curve" smooth="yes"/>
      <point x="184" y="47"/>
      <point x="126" y="106"/>
      <point x="126" y="362" type="curve" smooth="yes"/>
      <point x="126" y="639"/>
      <point x="211" y="678"/>
      <point x="366" y="678" type="curve" smooth="yes"/>
      <point x="434" y="678"/>
      <point x="502" y="666"/>
      <point x="556" y="655" type="curve"/>
      <point x="556" y="698" type="line"/>
      <point x="521" y="712"/>
      <point x="438" y="732"/>
      <point x="353" y="732" type="curve" smooth="yes"/>
      <point x="185" y="732"/>
      <point x="69" y="672"/>
    </contour>
  </outline>
</glyph>
<glyph name="ruble" format="1">
  <advance width="609"/>
  <unicode hex="20BD"/>
  <note>
    GF Latin Plus glyph
  </note>
  <outline>
    <contour>
      <point x="158" y="124" type="line"/>
      <point x="481" y="124" type="line"/>
      <point x="481" y="160" type="line"/>
      <point x="160" y="160" type="line"/>
    </contour>
    <contour>
      <point x="18" y="124" type="line"/>
      <point x="153" y="124" type="line"/>
      <point x="153" y="160" type="line"/>
      <point x="18" y="160" type="line"/>
    </contour>
    <contour>
      <point x="180" y="336" type="line"/>
      <point x="180" y="682" type="line"/>
      <point x="329" y="682" type="line" smooth="yes"/>
      <point x="440" y="682"/>
      <point x="485" y="639"/>
      <point x="485" y="511" type="curve" smooth="yes"/>
      <point x="485" y="395"/>
      <point x="443" y="336"/>
      <point x="329" y="336" type="curve" smooth="yes"/>
    </contour>
    <contour>
      <point x="124" y="0" type="line"/>
      <point x="180" y="0" type="line"/>
      <point x="180" y="288" type="line"/>
      <point x="184" y="287"/>
      <point x="330" y="285"/>
      <point x="336" y="285" type="curve" smooth="yes"/>
      <point x="464" y="285"/>
      <point x="541" y="355"/>
      <point x="541" y="511" type="curve" smooth="yes"/>
      <point x="541" y="688"/>
      <point x="453" y="734"/>
      <point x="349" y="734" type="curve" smooth="yes"/>
      <point x="124" y="734" type="line"/>
    </contour>
    <contour>
      <point x="18" y="300" type="line"/>
      <point x="148" y="300" type="line"/>
      <point x="148" y="336" type="line"/>
      <point x="18" y="336" type="line"/>
    </contour>
  </outline>
</glyph>
<glyph name="afii61289" format="1">
  <advance width="438"/>
  <unicode hex="2113"/>
  <outline>
    <contour>
      <point x="150" y="344" type="curve"/>
      <point x="150" y="612" type="line" smooth="yes"/>
      <point x="150" y="664"/>
      <point x="187" y="692"/>
      <point x="226" y="692" type="curve" smooth="yes"/>
      <point x="282" y="692"/>
      <point x="316" y="649"/>
      <point x="316" y="596" type="curve" smooth="yes"/>
      <point x="316" y="497"/>
      <point x="237" y="425"/>
    </contour>
    <contour>
      <point x="35" y="250" type="curve"/>
      <point x="46" y="222" type="line"/>
      <point x="57" y="227"/>
      <point x="82" y="244"/>
      <point x="93" y="255" type="curve"/>
      <point x="93" y="186" type="line" smooth="yes"/>
      <point x="93" y="46"/>
      <point x="139" y="0"/>
      <point x="223" y="0" type="curve" smooth="yes"/>
      <point x="319" y="0" type="line"/>
      <point x="319" y="35" type="line"/>
      <point x="248" y="44" type="line" smooth="yes"/>
      <point x="182" y="53"/>
      <point x="150" y="82"/>
      <point x="150" y="200" type="curve" smooth="yes"/>
      <point x="150" y="286" type="line"/>
      <point x="259" y="377"/>
      <point x="365" y="475"/>
      <point x="365" y="594" type="curve" smooth="yes"/>
      <point x="365" y="680"/>
      <point x="312" y="739"/>
      <point x="228" y="739" type="curve" smooth="yes"/>
      <point x="149" y="739"/>
      <point x="93" y="694"/>
      <point x="93" y="604" type="curve" smooth="yes"/>
      <point x="93" y="304" type="line"/>
      <point x="74" y="284"/>
      <point x="54" y="267"/>
    </contour>
  </outline>
</glyph>
<glyph name="numero" format="1">
  <advance width="1120"/>
  <unicode hex="2116"/>
  <note>
    GF Latin Plus glyph
  </note>
  <outline>
    <contour>
      <point x="97" y="0" type="line"/>
      <point x="155" y="0" type="line"/>
      <point x="155" y="624" type="line" smooth="yes"/>
      <point x="155" y="668"/>
      <point x="174" y="683"/>
      <point x="200" y="683" type="curve" smooth="yes"/>
      <point x="223" y="683"/>
      <point x="239" y="671"/>
      <point x="249" y="643" type="curve" smooth="yes"/>
      <point x="451" y="70" type="line" smooth="yes"/>
      <point x="469" y="17"/>
      <point x="504" y="-6"/>
      <point x="551" y="-6" type="curve" smooth="yes"/>
      <point x="610" y="-6"/>
      <point x="653" y="31"/>
      <point x="653" y="94" type="curve" smooth="yes"/>
      <point x="653" y="539" type="line" smooth="yes"/>
      <point x="653" y="669"/>
      <point x="718" y="697"/>
      <point x="794" y="697" type="curve" smooth="yes"/>
      <point x="920" y="697" type="line" smooth="yes"/>
      <point x="977" y="697"/>
      <point x="1029" y="665"/>
      <point x="1029" y="554" type="curve" smooth="yes"/>
      <point x="1029" y="467"/>
      <point x="997" y="424"/>
      <point x="926" y="424" type="curve" smooth="yes"/>
      <point x="896" y="424" type="line" smooth="yes"/>
      <point x="835" y="424"/>
      <point x="801" y="468"/>
      <point x="801" y="614" type="curve"/>
      <point x="755" y="614" type="line"/>
      <point x="755" y="436"/>
      <point x="801" y="380"/>
      <point x="895" y="380" type="curve" smooth="yes"/>
      <point x="929" y="380" type="line" smooth="yes"/>
      <point x="1026" y="380"/>
      <point x="1075" y="442"/>
      <point x="1075" y="554" type="curve" smooth="yes"/>
      <point x="1075" y="694"/>
      <point x="1005" y="746"/>
      <point x="922" y="746" type="curve" smooth="yes"/>
      <point x="789" y="746" type="line" smooth="yes"/>
      <point x="687" y="746"/>
      <point x="595" y="700"/>
      <point x="595" y="541" type="curve" smooth="yes"/>
      <point x="595" y="109" type="line" smooth="yes"/>
      <point x="595" y="72"/>
      <point x="577" y="50"/>
      <point x="545" y="50" type="curve" smooth="yes"/>
      <point x="526" y="50"/>
      <point x="508" y="64"/>
      <point x="500" y="86" type="curve" smooth="yes"/>
      <point x="298" y="663" type="line" smooth="yes"/>
      <point x="280" y="715"/>
      <point x="250" y="739"/>
      <point x="195" y="739" type="curve" smooth="yes"/>
      <point x="138" y="739"/>
      <point x="97" y="703"/>
      <point x="97" y="634" type="curve" smooth="yes"/>
    </contour>
  </outline>
</glyph>
<glyph name="trademark" format="1">
  <advance width="707"/>
  <unicode hex="2122"/>
  <note>
    GF Latin Plus glyph
  </note>
  <outline>
    <contour>
      <point x="322" y="383" type="line"/>
      <point x="357" y="383" type="line"/>
      <point x="380" y="668" type="line"/>
      <point x="493" y="383" type="line"/>
      <point x="524" y="383" type="line"/>
      <point x="629" y="668" type="line"/>
      <point x="655" y="383" type="line"/>
      <point x="689" y="383" type="line"/>
      <point x="654" y="732" type="line"/>
      <point x="618" y="732" type="line"/>
      <point x="509" y="437" type="line"/>
      <point x="388" y="732" type="line"/>
      <point x="353" y="732" type="line"/>
    </contour>
    <contour>
      <point x="24" y="701" type="line"/>
      <point x="140" y="701" type="line"/>
      <point x="140" y="383" type="line"/>
      <point x="176" y="383" type="line"/>
      <point x="176" y="701" type="line"/>
      <point x="291" y="701" type="line"/>
      <point x="291" y="732" type="line"/>
      <point x="24" y="732" type="line"/>
    </contour>
  </outline>
</glyph>
<glyph name="estimated" format="1">
  <advance width="745"/>
  <unicode hex="212E"/>
  <outline>
    <contour>
      <point x="183" y="284" type="curve" smooth="yes"/>
      <point x="183" y="421" type="line" smooth="yes"/>
      <point x="183" y="444"/>
      <point x="264" y="514"/>
      <point x="372" y="514" type="curve" smooth="yes"/>
      <point x="458" y="514"/>
      <point x="562" y="457"/>
      <point x="562" y="415" type="curve" smooth="yes"/>
      <point x="562" y="282" type="line" smooth="yes"/>
      <point x="562" y="272"/>
      <point x="561" y="275"/>
      <point x="549" y="275" type="curve" smooth="yes"/>
      <point x="192" y="275" type="line" smooth="yes"/>
      <point x="187" y="275"/>
      <point x="183" y="275"/>
    </contour>
    <contour>
      <point x="72" y="266" type="curve" smooth="yes"/>
      <point x="72" y="188"/>
      <point x="100" y="125"/>
      <point x="155" y="74" type="curve" smooth="yes"/>
      <point x="210" y="23"/>
      <point x="277" y="0"/>
      <point x="373" y="0" type="curve" smooth="yes"/>
      <point x="435" y="0"/>
      <point x="465" y="6"/>
      <point x="507" y="22" type="curve" smooth="yes"/>
      <point x="547" y="38"/>
      <point x="582" y="65"/>
      <point x="620" y="105" type="curve"/>
      <point x="564" y="105" type="line"/>
      <point x="521" y="57"/>
      <point x="449" y="21"/>
      <point x="373" y="21" type="curve" smooth="yes"/>
      <point x="259" y="21"/>
      <point x="183" y="87"/>
      <point x="183" y="114" type="curve" smooth="yes"/>
      <point x="183" y="247" type="line" smooth="yes"/>
      <point x="183" y="260"/>
      <point x="188" y="258"/>
      <point x="195" y="258" type="curve" smooth="yes"/>
      <point x="674" y="258" type="line"/>
      <point x="670" y="347"/>
      <point x="639" y="422"/>
      <point x="581" y="467" type="curve" smooth="yes"/>
      <point x="523" y="512"/>
      <point x="462" y="533"/>
      <point x="373" y="533" type="curve" smooth="yes"/>
      <point x="276" y="533"/>
      <point x="212" y="508"/>
      <point x="156" y="458" type="curve"/>
      <point x="101" y="406"/>
      <point x="72" y="344"/>
    </contour>
  </outline>
</glyph>
<glyph name="product" format="1">
  <advance width="603"/>
  <unicode hex="220F"/>
  <outline>
    <contour>
      <point x="24" y="679" type="line"/>
      <point x="105" y="679" type="line"/>
      <point x="105" y="0" type="line"/>
      <point x="166" y="0" type="line"/>
      <point x="166" y="679" type="line"/>
      <point x="436" y="679" type="line"/>
      <point x="436" y="0" type="line"/>
      <point x="497" y="0" type="line"/>
      <point x="497" y="679" type="line"/>
      <point x="579" y="679" type="line"/>
      <point x="579" y="734" type="line"/>
      <point x="24" y="734" type="line"/>
    </contour>
  </outline>
</glyph>
<glyph name="summation" format="1">
  <advance width="565"/>
  <unicode hex="2211"/>
  <outline>
    <contour>
      <point x="47" y="-140" type="line"/>
      <point x="47" y="-200" type="line"/>
      <point x="542" y="-200" type="line"/>
      <point x="542" y="-142" type="line"/>
      <point x="120" y="-142" type="line"/>
      <point x="333" y="271" type="line"/>
      <point x="121" y="678" type="line"/>
      <point x="542" y="678" type="line"/>
      <point x="542" y="734" type="line"/>
      <point x="47" y="734" type="line"/>
      <point x="47" y="678" type="line"/>
      <point x="261" y="271" type="line"/>
    </contour>
  </outline>
</glyph>
<glyph name="radical" format="1">
  <advance width="611"/>
  <unicode hex="221A"/>
  <outline>
    <contour>
      <point x="24" y="308" type="line"/>
      <point x="105" y="308" type="line"/>
      <point x="243" y="0" type="line"/>
      <point x="296" y="0" type="line"/>
      <point x="587" y="800" type="line"/>
      <point x="525" y="800" type="line"/>
      <point x="265" y="85" type="line"/>
      <point x="144" y="362" type="line"/>
      <point x="24" y="362" type="line"/>
    </contour>
  </outline>
</glyph>
<glyph name="infinity" format="1">
  <advance width="804"/>
  <unicode hex="221E"/>
  <outline>
    <contour>
      <point x="430" y="342" type="curve"/>
      <point x="465" y="398"/>
      <point x="537" y="468"/>
      <point x="599" y="468" type="curve" smooth="yes"/>
      <point x="683" y="468"/>
      <point x="697" y="417"/>
      <point x="697" y="341" type="curve" smooth="yes"/>
      <point x="697" y="268"/>
      <point x="681" y="215"/>
      <point x="592" y="215" type="curve" smooth="yes"/>
      <point x="527" y="215"/>
      <point x="467" y="278"/>
    </contour>
    <contour>
      <point x="107" y="341" type="curve" smooth="yes"/>
      <point x="107" y="432"/>
      <point x="128" y="468"/>
      <point x="209" y="468" type="curve" smooth="yes"/>
      <point x="265" y="468"/>
      <point x="331" y="404"/>
      <point x="372" y="343" type="curve"/>
      <point x="347" y="300"/>
      <point x="288" y="215"/>
      <point x="207" y="215" type="curve" smooth="yes"/>
      <point x="133" y="215"/>
      <point x="107" y="255"/>
    </contour>
    <contour>
      <point x="59" y="341" type="curve" smooth="yes"/>
      <point x="59" y="249"/>
      <point x="83" y="169"/>
      <point x="205" y="169" type="curve" smooth="yes"/>
      <point x="296" y="169"/>
      <point x="362" y="235"/>
      <point x="400" y="307" type="curve"/>
      <point x="439" y="243"/>
      <point x="511" y="169"/>
      <point x="595" y="169" type="curve" smooth="yes"/>
      <point x="722" y="169"/>
      <point x="745" y="249"/>
      <point x="745" y="341" type="curve" smooth="yes"/>
      <point x="745" y="420"/>
      <point x="733" y="514"/>
      <point x="606" y="514" type="curve" smooth="yes"/>
      <point x="519" y="514"/>
      <point x="435" y="435"/>
      <point x="401" y="378" type="curve"/>
      <point x="361" y="436"/>
      <point x="286" y="514"/>
      <point x="206" y="514" type="curve" smooth="yes"/>
      <point x="72" y="514"/>
      <point x="59" y="428"/>
    </contour>
  </outline>
</glyph>
<glyph name="approxequal" format="1">
  <advance width="609"/>
  <unicode hex="2248"/>
  <note>
    GF Latin Plus glyph
  </note>
  <outline>
    <contour>
      <point x="80" y="421" type="line"/>
      <point x="110" y="447"/>
      <point x="150" y="461"/>
      <point x="190" y="461" type="curve" smooth="yes"/>
      <point x="261" y="461"/>
      <point x="338" y="421"/>
      <point x="420" y="421" type="curve" smooth="yes"/>
      <point x="477" y="421"/>
      <point x="509" y="443"/>
      <point x="528" y="461" type="curve"/>
      <point x="528" y="511" type="line"/>
      <point x="507" y="491"/>
      <point x="473" y="471"/>
      <point x="418" y="471" type="curve" smooth="yes"/>
      <point x="336" y="471"/>
      <point x="268" y="511"/>
      <point x="188" y="511" type="curve" smooth="yes"/>
      <point x="148" y="511"/>
      <point x="108" y="495"/>
      <point x="80" y="471" type="curve"/>
    </contour>
    <contour>
      <point x="80" y="181" type="line"/>
      <point x="110" y="207"/>
      <point x="150" y="221"/>
      <point x="190" y="221" type="curve" smooth="yes"/>
      <point x="261" y="221"/>
      <point x="338" y="181"/>
      <point x="420" y="181" type="curve" smooth="yes"/>
      <point x="477" y="181"/>
      <point x="509" y="203"/>
      <point x="528" y="221" type="curve"/>
      <point x="528" y="271" type="line"/>
      <point x="507" y="251"/>
      <point x="473" y="231"/>
      <point x="418" y="231" type="curve" smooth="yes"/>
      <point x="336" y="231"/>
      <point x="268" y="271"/>
      <point x="188" y="271" type="curve" smooth="yes"/>
      <point x="148" y="271"/>
      <point x="108" y="255"/>
      <point x="80" y="231" type="curve"/>
    </contour>
  </outline>
</glyph>
<glyph name="lessequal" format="1">
  <advance width="609"/>
  <unicode hex="2264"/>
  <note>
    GF Latin Plus glyph
  </note>
  <outline>
    <contour>
      <point x="96" y="378" type="line"/>
      <point x="511" y="246" type="line"/>
      <point x="511" y="296" type="line"/>
      <point x="150" y="406" type="line"/>
      <point x="511" y="512" type="line"/>
      <point x="511" y="562" type="line"/>
      <point x="96" y="431" type="line"/>
    </contour>
    <component base="minus" xOffset="1" yOffset="-250"/>
  </outline>
</glyph>
<glyph name="f_f" format="1">
  <advance width="761"/>
  <unicode hex="FB00"/>
  <note>
    GF Latin Plus glyph
  </note>
  <outline>
    <contour>
      <point x="22" y="482" type="line"/>
      <point x="106" y="482" type="line"/>
      <point x="106" y="0" type="line"/>
      <point x="167" y="0" type="line"/>
      <point x="167" y="482" type="line"/>
      <point x="519" y="482" type="line"/>
      <point x="519" y="533" type="line"/>
      <point x="167" y="533" type="line"/>
      <point x="167" y="601" type="line" smooth="yes"/>
      <point x="167" y="677"/>
      <point x="183" y="717"/>
      <point x="264" y="717" type="curve" smooth="yes"/>
      <point x="293" y="717"/>
      <point x="327" y="715"/>
      <point x="355" y="712" type="curve"/>
      <point x="355" y="755" type="line"/>
      <point x="328" y="763"/>
      <point x="297" y="769"/>
      <point x="248" y="769" type="curve" smooth="yes"/>
      <point x="138" y="769"/>
      <point x="106" y="713"/>
      <point x="106" y="608" type="curve" smooth="yes"/>
      <point x="106" y="533" type="line"/>
      <point x="22" y="522" type="line"/>
    </contour>
    <component base="f" xOffset="380"/>
  </outline>
</glyph>
<glyph name="fi" format="1">
  <advance width="603"/>
  <unicode hex="FB01"/>
  <note>
    GF Latin Plus glyph
  </note>
  <outline>
    <contour>
      <point x="22" y="482" type="line"/>
      <point x="106" y="482" type="line"/>
      <point x="106" y="0" type="line"/>
      <point x="167" y="0" type="line"/>
      <point x="167" y="482" type="line"/>
      <point x="491" y="482" type="line"/>
      <point x="491" y="533" type="line"/>
      <point x="167" y="533" type="line"/>
      <point x="167" y="601" type="line" smooth="yes"/>
      <point x="167" y="677"/>
      <point x="183" y="717"/>
      <point x="264" y="717" type="curve" smooth="yes"/>
      <point x="293" y="717"/>
      <point x="327" y="715"/>
      <point x="355" y="712" type="curve"/>
      <point x="355" y="755" type="line"/>
      <point x="328" y="763"/>
      <point x="297" y="769"/>
      <point x="248" y="769" type="curve" smooth="yes"/>
      <point x="138" y="769"/>
      <point x="106" y="713"/>
      <point x="106" y="608" type="curve" smooth="yes"/>
      <point x="106" y="533" type="line"/>
      <point x="22" y="522" type="line"/>
    </contour>
    <component base="i" xOffset="380"/>
  </outline>
</glyph>
<glyph name="fl" format="1">
  <advance width="669"/>
  <unicode hex="FB02"/>
  <note>
    GF Latin Plus glyph
  </note>
  <outline>
    <contour>
      <point x="22" y="482" type="line"/>
      <point x="106" y="482" type="line"/>
      <point x="106" y="0" type="line"/>
      <point x="167" y="0" type="line"/>
      <point x="167" y="482" type="line"/>
      <point x="340" y="482" type="line"/>
      <point x="340" y="533" type="line"/>
      <point x="167" y="533" type="line"/>
      <point x="167" y="601" type="line" smooth="yes"/>
      <point x="167" y="677"/>
      <point x="189" y="717"/>
      <point x="294" y="717" type="curve" smooth="yes"/>
      <point x="366" y="717"/>
      <point x="455" y="714"/>
      <point x="522" y="708" type="curve"/>
      <point x="522" y="750" type="line"/>
      <point x="462" y="756"/>
      <point x="385" y="769"/>
      <point x="287" y="769" type="curve" smooth="yes"/>
      <point x="147" y="769"/>
      <point x="106" y="712"/>
      <point x="106" y="603" type="curve" smooth="yes"/>
      <point x="106" y="533" type="line"/>
      <point x="22" y="522" type="line"/>
    </contour>
    <contour>
      <point x="461" y="171" type="line" smooth="yes"/>
      <point x="461" y="41"/>
      <point x="508" y="0"/>
      <point x="594" y="0" type="curve" smooth="yes"/>
      <point x="659" y="0" type="line"/>
      <point x="659" y="43" type="line"/>
      <point x="602" y="50" type="line" smooth="yes"/>
      <point x="552" y="56"/>
      <point x="522" y="75"/>
      <point x="522" y="178" type="curve" smooth="yes"/>
      <point x="522" y="742" type="line"/>
      <point x="461" y="742" type="line"/>
    </contour>
  </outline>
</glyph>
<glyph name="f_f_i" format="1">
  <advance width="983"/>
  <unicode hex="FB03"/>
  <note>
    GF Latin Plus glyph
  </note>
  <outline>
    <contour>
      <point x="22" y="482" type="line"/>
      <point x="106" y="482" type="line"/>
      <point x="106" y="0" type="line"/>
      <point x="167" y="0" type="line"/>
      <point x="167" y="482" type="line"/>
      <point x="516" y="482" type="line"/>
      <point x="516" y="533" type="line"/>
      <point x="167" y="533" type="line"/>
      <point x="167" y="601" type="line" smooth="yes"/>
      <point x="167" y="677"/>
      <point x="183" y="717"/>
      <point x="264" y="717" type="curve" smooth="yes"/>
      <point x="293" y="717"/>
      <point x="327" y="715"/>
      <point x="355" y="712" type="curve"/>
      <point x="355" y="755" type="line"/>
      <point x="328" y="763"/>
      <point x="297" y="769"/>
      <point x="248" y="769" type="curve" smooth="yes"/>
      <point x="138" y="769"/>
      <point x="106" y="713"/>
      <point x="106" y="608" type="curve" smooth="yes"/>
      <point x="106" y="533" type="line"/>
      <point x="22" y="522" type="line"/>
    </contour>
    <component base="fi" xOffset="380"/>
  </outline>
</glyph>
<glyph name="f_f_l" format="1">
  <advance width="1049"/>
  <unicode hex="FB04"/>
  <note>
    GF Latin Plus glyph
  </note>
  <outline>
    <contour>
      <point x="22" y="482" type="line"/>
      <point x="106" y="482" type="line"/>
      <point x="106" y="0" type="line"/>
      <point x="167" y="0" type="line"/>
      <point x="167" y="482" type="line"/>
      <point x="517" y="482" type="line"/>
      <point x="517" y="533" type="line"/>
      <point x="167" y="533" type="line"/>
      <point x="167" y="601" type="line" smooth="yes"/>
      <point x="167" y="677"/>
      <point x="183" y="717"/>
      <point x="264" y="717" type="curve" smooth="yes"/>
      <point x="293" y="717"/>
      <point x="327" y="715"/>
      <point x="355" y="712" type="curve"/>
      <point x="355" y="755" type="line"/>
      <point x="328" y="763"/>
      <point x="297" y="769"/>
      <point x="248" y="769" type="curve" smooth="yes"/>
      <point x="138" y="769"/>
      <point x="106" y="713"/>
      <point x="106" y="608" type="curve" smooth="yes"/>
      <point x="106" y="533" type="line"/>
      <point x="22" y="522" type="line"/>
    </contour>
    <component base="fl" xOffset="380"/>
  </outline>
</glyph>
<glyph name="ffl" format="1">
  <advance width="1028"/>
  <unicode hex="FB04"/>
  <outline>
    <contour>
      <point x="25" y="484" type="line"/>
      <point x="109" y="484" type="line"/>
      <point x="109" y="0" type="line"/>
      <point x="167" y="0" type="line"/>
      <point x="167" y="484" type="line"/>
      <point x="497" y="484" type="line"/>
      <point x="497" y="533" type="line"/>
      <point x="167" y="533" type="line"/>
      <point x="167" y="604" type="line" smooth="yes"/>
      <point x="167" y="680"/>
      <point x="182" y="720"/>
      <point x="263" y="720" type="curve" smooth="yes"/>
      <point x="354" y="720" type="line"/>
      <point x="354" y="761" type="line"/>
      <point x="328" y="765"/>
      <point x="300" y="769"/>
      <point x="254" y="769" type="curve" smooth="yes"/>
      <point x="139" y="769"/>
      <point x="109" y="708"/>
      <point x="109" y="602" type="curve" smooth="yes"/>
      <point x="109" y="533" type="line"/>
      <point x="25" y="522" type="line"/>
    </contour>
    <component base="fl" xOffset="360"/>
  </outline>
</glyph>
<glyph name="s_t" format="1">
  <advance width="856"/>
  <unicode hex="FB06"/>
  <outline>
    <contour>
      <point x="446" y="127" type="curve" smooth="yes"/>
      <point x="446" y="162" type="line" smooth="yes"/>
      <point x="446" y="246"/>
      <point x="388" y="291"/>
      <point x="294" y="291" type="curve" smooth="yes"/>
      <point x="221" y="291" type="line" smooth="yes"/>
      <point x="152" y="291"/>
      <point x="107" y="302"/>
      <point x="107" y="372" type="curve" smooth="yes"/>
      <point x="107" y="395" type="line" smooth="yes"/>
      <point x="107" y="468"/>
      <point x="154" y="488"/>
      <point x="240" y="488" type="curve" smooth="yes"/>
      <point x="600" y="488" type="line"/>
      <point x="597" y="168" type="line" smooth="yes"/>
      <point x="595" y="47"/>
      <point x="645" y="0"/>
      <point x="743" y="0" type="curve" smooth="yes"/>
      <point x="810" y="0" type="line"/>
      <point x="810" y="44" type="line"/>
      <point x="745" y="50" type="line" smooth="yes"/>
      <point x="709" y="54"/>
      <point x="657" y="67"/>
      <point x="657" y="168" type="curve" smooth="yes"/>
      <point x="657" y="482" type="line"/>
      <point x="818" y="482" type="line"/>
      <point x="818" y="533" type="line"/>
      <point x="657" y="533" type="line"/>
      <point x="657" y="682" type="line"/>
      <point x="611" y="682" type="line"/>
      <point x="601" y="530" type="line"/>
      <point x="531" y="533"/>
      <point x="358" y="538"/>
      <point x="260" y="538" type="curve" smooth="yes"/>
      <point x="116" y="538"/>
      <point x="53" y="495"/>
      <point x="53" y="397" type="curve" smooth="yes"/>
      <point x="53" y="367" type="line" smooth="yes"/>
      <point x="53" y="269"/>
      <point x="116" y="239"/>
      <point x="212" y="239" type="curve" smooth="yes"/>
      <point x="285" y="239" type="line" smooth="yes"/>
      <point x="358" y="239"/>
      <point x="391" y="208"/>
      <point x="391" y="156" type="curve" smooth="yes"/>
      <point x="391" y="131" type="line" smooth="yes"/>
      <point x="391" y="53"/>
      <point x="341" y="43"/>
      <point x="271" y="43" type="curve" smooth="yes"/>
      <point x="57" y="43" type="line"/>
      <point x="57" y="5" type="line"/>
      <point x="90" y="-1"/>
      <point x="213" y="-6"/>
      <point x="262" y="-6" type="curve" smooth="yes"/>
      <point x="368" y="-6"/>
      <point x="446" y="20"/>
    </contour>
  </outline>
</glyph>
<glyph name="A.smcp" format="1">
  <advance width="568"/>
  <outline>
    <contour>
      <point x="177" y="214" type="line"/>
      <point x="283" y="511" type="line"/>
      <point x="389" y="214" type="line"/>
    </contour>
    <contour>
      <point x="41" y="0" type="line"/>
      <point x="102" y="0" type="line"/>
      <point x="162" y="164" type="line"/>
      <point x="405" y="164" type="line"/>
      <point x="465" y="0" type="line"/>
      <point x="527" y="0" type="line"/>
      <point x="324" y="560" type="line"/>
      <point x="244" y="560" type="line"/>
    </contour>
    <contour>
      <point x="283" y="650" type="move" name="top"/>
    </contour>
    <contour>
      <point x="517" y="0" type="move" name="ogonek"/>
    </contour>
    <contour>
      <point x="283" y="-148" type="move" name="bottom"/>
    </contour>
  </outline>
</glyph>
<glyph name="AE.smcp" format="1">
  <advance width="800"/>
  <outline>
    <contour>
      <point x="234" y="211" type="line"/>
      <point x="401" y="469" type="line"/>
      <point x="401" y="211" type="line"/>
    </contour>
    <contour>
      <point x="42" y="0" type="line"/>
      <point x="97" y="0" type="line"/>
      <point x="207" y="165" type="line"/>
      <point x="401" y="165" type="line"/>
      <point x="401" y="90" type="line" smooth="yes"/>
      <point x="404" y="19"/>
      <point x="448" y="-4"/>
      <point x="524" y="-3" type="curve" smooth="yes"/>
      <point x="549" y="-3"/>
      <point x="723" y="2"/>
      <point x="740" y="5" type="curve"/>
      <point x="740" y="46" type="line"/>
      <point x="532" y="46" type="line" smooth="yes"/>
      <point x="481" y="46"/>
      <point x="452" y="64"/>
      <point x="452" y="115" type="curve" smooth="yes"/>
      <point x="452" y="254" type="line"/>
      <point x="706" y="258" type="line"/>
      <point x="706" y="299" type="line"/>
      <point x="452" y="302" type="line"/>
      <point x="452" y="460" type="line" smooth="yes"/>
      <point x="452" y="495"/>
      <point x="468" y="511"/>
      <point x="512" y="511" type="curve" smooth="yes"/>
      <point x="740" y="511" type="line"/>
      <point x="740" y="553" type="line"/>
      <point x="726" y="555"/>
      <point x="534" y="560"/>
      <point x="507" y="560" type="curve" smooth="yes"/>
      <point x="422" y="561"/>
      <point x="378" y="534"/>
      <point x="340" y="471" type="curve" smooth="yes"/>
    </contour>
    <contour>
      <point x="440" y="658" type="move" name="top"/>
    </contour>
  </outline>
</glyph>
<glyph name="B.smcp" format="1">
  <advance width="509"/>
  <outline>
    <contour>
      <point x="134" y="310" type="line"/>
      <point x="134" y="509" type="line"/>
      <point x="288" y="509" type="line" smooth="yes"/>
      <point x="346" y="509"/>
      <point x="387" y="484"/>
      <point x="384" y="409" type="curve" smooth="yes"/>
      <point x="383" y="348"/>
      <point x="345" y="310"/>
      <point x="292" y="310" type="curve" smooth="yes"/>
    </contour>
    <contour>
      <point x="134" y="51" type="line"/>
      <point x="134" y="266" type="line"/>
      <point x="294" y="266" type="line" smooth="yes"/>
      <point x="355" y="266"/>
      <point x="404" y="229"/>
      <point x="404" y="164" type="curve" smooth="yes"/>
      <point x="404" y="73"/>
      <point x="360" y="51"/>
      <point x="294" y="51" type="curve" smooth="yes"/>
    </contour>
    <contour>
      <point x="75" y="0" type="line"/>
      <point x="296" y="0" type="line" smooth="yes"/>
      <point x="397" y="0"/>
      <point x="461" y="35"/>
      <point x="461" y="155" type="curve" smooth="yes"/>
      <point x="461" y="245"/>
      <point x="397" y="282"/>
      <point x="356" y="291" type="curve"/>
      <point x="401" y="302"/>
      <point x="440" y="347"/>
      <point x="440" y="417" type="curve" smooth="yes"/>
      <point x="440" y="514"/>
      <point x="389" y="560"/>
      <point x="288" y="560" type="curve" smooth="yes"/>
      <point x="75" y="560" type="line"/>
    </contour>
    <contour>
      <point x="249" y="650" type="move" name="top"/>
    </contour>
  </outline>
</glyph>
<glyph name="C.smcp" format="1">
  <advance width="493"/>
  <outline>
    <contour>
      <point x="61" y="282" type="curve" smooth="yes"/>
      <point x="61" y="41"/>
      <point x="126" y="-5"/>
      <point x="269" y="-5" type="curve" smooth="yes"/>
      <point x="327" y="-5"/>
      <point x="393" y="3"/>
      <point x="444" y="13" type="curve"/>
      <point x="444" y="55" type="line"/>
      <point x="411" y="50"/>
      <point x="361" y="46"/>
      <point x="280" y="46" type="curve" smooth="yes"/>
      <point x="161" y="46"/>
      <point x="120" y="82"/>
      <point x="120" y="281" type="curve" smooth="yes"/>
      <point x="120" y="474"/>
      <point x="164" y="515"/>
      <point x="283" y="515" type="curve" smooth="yes"/>
      <point x="347" y="515"/>
      <point x="417" y="508"/>
      <point x="444" y="503" type="curve"/>
      <point x="444" y="545" type="line"/>
      <point x="394" y="556"/>
      <point x="323" y="565"/>
      <point x="274" y="565" type="curve" smooth="yes"/>
      <point x="127" y="565"/>
      <point x="61" y="508"/>
    </contour>
    <contour>
      <point x="274" y="658" type="move" name="top"/>
    </contour>
    <contour>
      <point x="281" y="-150" type="move" name="bottom"/>
    </contour>
  </outline>
</glyph>
<glyph name="D.smcp" format="1">
  <advance width="564"/>
  <outline>
    <contour>
      <point x="134" y="51" type="line"/>
      <point x="134" y="509" type="line"/>
      <point x="304" y="509" type="line" smooth="yes"/>
      <point x="402" y="509"/>
      <point x="444" y="449"/>
      <point x="444" y="280" type="curve" smooth="yes"/>
      <point x="444" y="140"/>
      <point x="401" y="51"/>
      <point x="304" y="51" type="curve" smooth="yes"/>
    </contour>
    <contour>
      <point x="75" y="0" type="line"/>
      <point x="309" y="0" type="line" smooth="yes"/>
      <point x="437" y="0"/>
      <point x="503" y="106"/>
      <point x="503" y="280" type="curve" smooth="yes"/>
      <point x="503" y="461"/>
      <point x="450" y="560"/>
      <point x="309" y="560" type="curve" smooth="yes"/>
      <point x="75" y="560" type="line"/>
    </contour>
    <contour>
      <point x="268" y="650" type="move" name="top"/>
    </contour>
    <contour>
      <point x="258" y="-150" type="move" name="bottom"/>
    </contour>
  </outline>
</glyph>
<glyph name="E.smcp" format="1">
  <advance width="497"/>
  <outline>
    <contour>
      <point x="75" y="102" type="line" smooth="yes"/>
      <point x="75" y="7"/>
      <point x="147" y="-3"/>
      <point x="200" y="-3" type="curve" smooth="yes"/>
      <point x="223" y="-3"/>
      <point x="417" y="2"/>
      <point x="438" y="5" type="curve"/>
      <point x="438" y="49" type="line"/>
      <point x="208" y="49" type="line" smooth="yes"/>
      <point x="172" y="49"/>
      <point x="134" y="58"/>
      <point x="134" y="117" type="curve" smooth="yes"/>
      <point x="134" y="253" type="line"/>
      <point x="403" y="257" type="line"/>
      <point x="403" y="300" type="line"/>
      <point x="134" y="303" type="line"/>
      <point x="134" y="440" type="line" smooth="yes"/>
      <point x="134" y="488"/>
      <point x="161" y="509"/>
      <point x="205" y="509" type="curve" smooth="yes"/>
      <point x="438" y="509" type="line"/>
      <point x="438" y="553" type="line"/>
      <point x="422" y="555"/>
      <point x="230" y="560"/>
      <point x="191" y="560" type="curve" smooth="yes"/>
      <point x="135" y="561"/>
      <point x="75" y="534"/>
      <point x="75" y="451" type="curve" smooth="yes"/>
    </contour>
    <contour>
      <point x="263" y="650" type="move" name="top"/>
    </contour>
    <contour>
      <point x="428" y="5" type="move" name="ogonek"/>
    </contour>
    <contour>
      <point x="269" y="-150" type="move" name="bottom"/>
    </contour>
  </outline>
</glyph>
<glyph name="Eng.smcp" format="1">
  <advance width="571"/>
  <outline>
    <contour>
      <point x="286" y="-169" type="line"/>
      <point x="309" y="-178"/>
      <point x="346" y="-186"/>
      <point x="377" y="-186" type="curve" smooth="yes"/>
      <point x="465" y="-186"/>
      <point x="510" y="-153"/>
      <point x="510" y="-60" type="curve" smooth="yes"/>
      <point x="510" y="29" type="line"/>
      <point x="451" y="29" type="line"/>
      <point x="451" y="-54" type="line" smooth="yes"/>
      <point x="451" y="-120"/>
      <point x="418" y="-137"/>
      <point x="367" y="-137" type="curve" smooth="yes"/>
      <point x="350" y="-137"/>
      <point x="302" y="-131"/>
      <point x="286" y="-126" type="curve"/>
    </contour>
    <component base="N.smcp"/>
  </outline>
</glyph>
<glyph name="Eth.smcp" format="1">
  <advance width="564"/>
  <outline>
    <contour>
      <point x="24" y="264" type="line"/>
      <point x="275" y="264" type="line"/>
      <point x="275" y="303" type="line"/>
      <point x="24" y="303" type="line"/>
    </contour>
    <component base="D.smcp"/>
  </outline>
</glyph>
<glyph name="F.smcp" format="1">
  <advance width="481"/>
  <outline>
    <contour>
      <point x="75" y="0" type="line"/>
      <point x="134" y="0" type="line"/>
      <point x="134" y="241" type="line"/>
      <point x="403" y="245" type="line"/>
      <point x="403" y="288" type="line"/>
      <point x="134" y="291" type="line"/>
      <point x="134" y="441" type="line" smooth="yes"/>
      <point x="134" y="486"/>
      <point x="160" y="509"/>
      <point x="204" y="509" type="curve" smooth="yes"/>
      <point x="438" y="509" type="line"/>
      <point x="438" y="553" type="line"/>
      <point x="411" y="557"/>
      <point x="205" y="560"/>
      <point x="191" y="560" type="curve" smooth="yes"/>
      <point x="135" y="561"/>
      <point x="75" y="534"/>
      <point x="75" y="451" type="curve" smooth="yes"/>
    </contour>
    <contour>
      <point x="263" y="650" type="move" name="top"/>
    </contour>
  </outline>
</glyph>
<glyph name="G.smcp" format="1">
  <advance width="550"/>
  <outline>
    <contour>
      <point x="61" y="282" type="curve" smooth="yes"/>
      <point x="61" y="83"/>
      <point x="100" y="-5"/>
      <point x="252" y="-4" type="curve" smooth="yes"/>
      <point x="319" y="-3"/>
      <point x="383" y="21"/>
      <point x="422" y="39" type="curve"/>
      <point x="431" y="0" type="line"/>
      <point x="475" y="0" type="line"/>
      <point x="475" y="294" type="line"/>
      <point x="456" y="296"/>
      <point x="431" y="297"/>
      <point x="404" y="297" type="curve" smooth="yes"/>
      <point x="352" y="297"/>
      <point x="302" y="294"/>
      <point x="271" y="290" type="curve"/>
      <point x="271" y="247" type="line"/>
      <point x="418" y="247" type="line"/>
      <point x="418" y="78" type="line"/>
      <point x="378" y="63"/>
      <point x="320" y="47"/>
      <point x="267" y="47" type="curve" smooth="yes"/>
      <point x="151" y="47"/>
      <point x="120" y="100"/>
      <point x="120" y="280" type="curve" smooth="yes"/>
      <point x="120" y="449"/>
      <point x="150" y="515"/>
      <point x="269" y="515" type="curve" smooth="yes"/>
      <point x="340" y="515"/>
      <point x="418" y="507"/>
      <point x="451" y="504" type="curve"/>
      <point x="451" y="546" type="line"/>
      <point x="395" y="557"/>
      <point x="321" y="565"/>
      <point x="260" y="565" type="curve" smooth="yes"/>
      <point x="104" y="565"/>
      <point x="61" y="472"/>
    </contour>
    <contour>
      <point x="277" y="650" type="move" name="top"/>
    </contour>
    <contour>
      <point x="285" y="-150" type="move" name="bottom"/>
    </contour>
  </outline>
</glyph>
<glyph name="Germandbls.smcp" format="1">
  <advance width="559"/>
  <outline>
    <contour>
      <point x="298" y="289" type="line"/>
      <point x="470" y="515" type="line"/>
      <point x="470" y="555" type="line"/>
      <point x="412" y="513" type="line"/>
      <point x="248" y="299" type="line"/>
    </contour>
    <contour>
      <point x="248" y="255" type="line"/>
      <point x="345" y="255" type="line" smooth="yes"/>
      <point x="416" y="255"/>
      <point x="442" y="225"/>
      <point x="442" y="171" type="curve" smooth="yes"/>
      <point x="442" y="130" type="line" smooth="yes"/>
      <point x="442" y="57"/>
      <point x="384" y="43"/>
      <point x="313" y="43" type="curve" smooth="yes"/>
      <point x="280" y="43"/>
      <point x="218" y="45"/>
      <point x="203" y="46" type="curve"/>
      <point x="203" y="6" type="line"/>
      <point x="229" y="1"/>
      <point x="290" y="-5"/>
      <point x="321" y="-5" type="curve" smooth="yes"/>
      <point x="417" y="-5"/>
      <point x="498" y="21"/>
      <point x="498" y="129" type="curve" smooth="yes"/>
      <point x="498" y="174" type="line" smooth="yes"/>
      <point x="498" y="252"/>
      <point x="451" y="299"/>
      <point x="357" y="299" type="curve" smooth="yes"/>
      <point x="248" y="299" type="line"/>
    </contour>
    <contour>
      <point x="76" y="0" type="line"/>
      <point x="132" y="0" type="line"/>
      <point x="132" y="432" type="line" smooth="yes"/>
      <point x="132" y="486"/>
      <point x="163" y="512"/>
      <point x="217" y="512" type="curve" smooth="yes"/>
      <point x="449" y="512" type="line"/>
      <point x="470" y="555" type="line"/>
      <point x="446" y="557"/>
      <point x="251" y="560"/>
      <point x="214" y="560" type="curve" smooth="yes"/>
      <point x="143" y="561"/>
      <point x="76" y="527"/>
      <point x="76" y="430" type="curve" smooth="yes"/>
    </contour>
  </outline>
</glyph>
<glyph name="H.smcp" format="1">
  <advance width="572"/>
  <outline>
    <contour>
      <point x="76" y="0" type="line"/>
      <point x="132" y="0" type="line"/>
      <point x="132" y="249" type="line"/>
      <point x="440" y="249" type="line"/>
      <point x="440" y="0" type="line"/>
      <point x="496" y="0" type="line"/>
      <point x="496" y="560" type="line"/>
      <point x="440" y="560" type="line"/>
      <point x="440" y="296" type="line"/>
      <point x="132" y="296" type="line"/>
      <point x="132" y="560" type="line"/>
      <point x="76" y="560" type="line"/>
    </contour>
    <contour>
      <point x="286" y="650" type="move" name="top"/>
    </contour>
  </outline>
</glyph>
<glyph name="I.smcp" format="1">
  <advance width="210"/>
  <outline>
    <contour>
      <point x="75" y="0" type="line"/>
      <point x="134" y="0" type="line"/>
      <point x="134" y="560" type="line"/>
      <point x="75" y="560" type="line"/>
    </contour>
    <contour>
      <point x="105" y="658" type="move" name="top"/>
    </contour>
    <contour>
      <point x="124" y="0" type="move" name="ogonek"/>
    </contour>
    <contour>
      <point x="105" y="-150" type="move" name="bottom"/>
    </contour>
  </outline>
</glyph>
<glyph name="J.smcp" format="1">
  <advance width="333"/>
  <outline>
    <contour>
      <point x="34" y="13" type="line"/>
      <point x="56" y="4"/>
      <point x="94" y="-5"/>
      <point x="125" y="-5" type="curve" smooth="yes"/>
      <point x="213" y="-5"/>
      <point x="258" y="29"/>
      <point x="258" y="121" type="curve" smooth="yes"/>
      <point x="258" y="560" type="line"/>
      <point x="199" y="560" type="line"/>
      <point x="199" y="128" type="line" smooth="yes"/>
      <point x="199" y="62"/>
      <point x="165" y="46"/>
      <point x="114" y="46" type="curve" smooth="yes"/>
      <point x="96" y="46"/>
      <point x="50" y="51"/>
      <point x="34" y="56" type="curve"/>
    </contour>
    <contour>
      <point x="228" y="650" type="move" name="top"/>
    </contour>
  </outline>
</glyph>
<glyph name="K.smcp" format="1">
  <advance width="510"/>
  <outline>
    <contour>
      <point x="75" y="0" type="line"/>
      <point x="134" y="0" type="line"/>
      <point x="134" y="254" type="line"/>
      <point x="241" y="254" type="line"/>
      <point x="409" y="0" type="line"/>
      <point x="472" y="0" type="line"/>
      <point x="288" y="280" type="line"/>
      <point x="471" y="560" type="line"/>
      <point x="407" y="560" type="line"/>
      <point x="241" y="305" type="line"/>
      <point x="134" y="305" type="line"/>
      <point x="134" y="560" type="line"/>
      <point x="75" y="560" type="line"/>
    </contour>
    <contour>
      <point x="247" y="650" type="move" name="top"/>
    </contour>
    <contour>
      <point x="247" y="-150" type="move" name="bottom"/>
    </contour>
  </outline>
</glyph>
<glyph name="L.smcp" format="1">
  <advance width="453"/>
  <outline>
    <contour>
      <point x="75" y="109" type="line" smooth="yes"/>
      <point x="75" y="24"/>
      <point x="124" y="0"/>
      <point x="190" y="0" type="curve" smooth="yes"/>
      <point x="420" y="0" type="line"/>
      <point x="420" y="51" type="line"/>
      <point x="205" y="51" type="line" smooth="yes"/>
      <point x="168" y="51"/>
      <point x="134" y="62"/>
      <point x="134" y="118" type="curve" smooth="yes"/>
      <point x="134" y="560" type="line"/>
      <point x="75" y="560" type="line"/>
    </contour>
    <contour>
      <point x="105" y="650" type="move" name="top"/>
    </contour>
    <contour>
      <point x="231" y="-150" type="move" name="bottom"/>
    </contour>
  </outline>
</glyph>
